<svg width="412" height="373" viewBox="0 0 412 373" fill="none" xmlns="http://www.w3.org/2000/svg">
<path d="M412 22.2615C361.089 -5.1228 329.942 34.7183 312.868 57.7786C257.612 24.4235 190.04 61.4847 194.18 132.519C142.648 138.799 78.9058 190.376 142.855 289H412V22.2615Z" fill="#7E61FF"/>
<path d="M305 172.63C278.446 153.731 232.956 152.525 216.18 172.63C198.066 168.307 171.923 168.911 157 186H305V172.63Z" fill="#9F80FF"/>
<path d="M373.32 67.0978C377.188 66.4977 381.055 68.598 381.369 75.0989C383.355 74.2988 388.268 74.0987 389 83L366.002 82.7999C365.898 71.3984 369.347 67.6979 373.32 67.0978Z" fill="#53A0A3"/>
<path d="M382.641 174.153C383.364 162.121 384.707 143.345 385.016 138.157C385.326 132.971 387.598 128.614 389.044 125.294C390.802 121.283 391.883 117.006 392.245 112.638C392.554 107.452 394 93.5515 394 88.8827C394 84.215 393.38 83.4889 385.326 82.5552C377.272 81.6217 305.299 82.0366 291.875 82.5552C278.451 83.074 269.984 83.1778 265.647 83.9039C261.309 84.63 261 85.5637 261 87.4308C261 89.298 262.136 112.846 262.136 116.58C262.136 120.315 263.892 131.414 264.201 134.423C264.51 137.431 267.402 139.817 268.848 141.995C270.294 144.174 278.657 153.717 279.587 155.17C280.517 156.623 281.445 159.112 281.858 165.025C282.272 170.937 283.924 183.074 284.234 185.875C284.543 188.676 288.467 191.685 292.185 195.108C295.902 198.531 301.272 202.784 304.782 206.414C308.293 210.046 318 218.76 326.054 216.685C334.109 214.61 352.799 209.839 359.717 204.859C366.636 199.88 373.554 190.854 376.033 187.328C378.511 183.801 382.228 181.933 382.641 174.153Z" fill="#6E4A9B"/>
<path d="M347.258 93.3291C345.513 100.505 346.026 111.265 346.232 113.828C346.437 116.391 346.95 129.1 346.642 131.046C346.334 132.994 346.334 137.709 346.232 141.604C346.225 142.025 346.331 142.441 346.541 142.809C346.75 143.176 347.054 143.48 347.421 143.689C347.788 143.899 348.205 144.006 348.628 144C349.05 143.994 349.464 143.873 349.824 143.653L365.222 134.839C366.099 134.359 366.841 133.666 367.379 132.824C367.918 131.982 368.235 131.018 368.301 130.022C368.507 126.845 368.814 122.334 368.712 120.9C368.609 119.465 371.278 113.111 372.715 110.753C374.468 107.62 375.585 104.171 376 100.607C376 98.5567 375.179 88 375.179 88L359.371 88.41L347.258 93.3291Z" fill="#5D4282"/>
<path d="M261.986 114C261.788 106.394 261 88.9653 261 87.3803C261 85.7958 261.197 84.6338 264.549 84L268 86.007C268 86.007 265.634 92.0281 265.141 94.1411C264.647 96.2529 264.056 102.064 264.056 102.064L263.071 114H261.986Z" fill="#B783D1"/>
<path d="M279.612 104.111C279.612 104.111 280.764 94.401 281.498 88.8216L288.31 85L323 90.9911C323 90.9911 322.266 105.041 322.581 108.76C322.895 112.478 323.314 115.474 322.581 116.714C321.847 117.953 319.437 122.602 317.969 125.081C316.502 127.561 315.035 129.317 315.245 130.556C315.454 131.795 317.969 143.262 317.969 143.262L315.978 168.674L283.07 182C282.441 177.041 281.393 169.397 281.183 165.162C280.764 159.274 279.716 156.691 278.878 155.349C278.039 154.006 276.887 152.87 275 150.596L277.515 117.23V110.825L279.612 104.111Z" fill="#5D4282"/>
<path d="M293.9 90C291.3 91.6756 289 94.294 288.4 95.7593C287.8 97.2259 284.3 100.367 283.4 104.346C282.5 108.325 283.4 106.65 283.4 106.65C284.732 104.982 286.168 103.407 287.7 101.938C289.4 100.577 293.2 97.7496 293.8 96.8067C294.652 94.5813 295.386 92.31 296 90H293.9Z" fill="#76589B"/>
<path d="M290.015 113.761C271.33 112.429 246.074 113.146 237.553 113.659C229.032 114.172 229.956 114.479 228.827 115.813C227.698 117.145 228.109 121.042 228.005 125.759C227.903 130.477 229.34 138.475 229.34 141.45C229.719 146.018 230.756 150.509 232.42 154.781C234.474 160.011 237.862 162.574 241.865 165.855C245.87 169.137 247.615 168.317 252.645 165.651C257.676 162.984 264.246 159.088 264.863 158.78C265.478 158.473 266.504 158.473 272.254 157.652C278.004 156.832 282.624 156.73 283.65 153.96C285.314 149.02 286.684 143.987 287.757 138.886C288.124 136.626 289.203 134.543 290.837 132.938C291.966 131.707 293.506 130.271 294.43 129.041C295.59 127.517 296.139 125.616 295.97 123.708C295.867 121.452 295.765 118.068 295.559 116.838C295.354 115.607 295.149 114.069 290.015 113.761Z" fill="#6E4A9B"/>
<path d="M236.987 126.151V133.475C236.987 134.731 235.874 136.51 235.503 138.916C235.075 141.22 234.919 143.576 235.039 145.927C235.131 148.123 235.688 146.659 235.967 144.147C236.245 141.636 238.287 138.707 239.494 136.823C240.595 135.309 241.245 133.441 241.35 131.488C241.469 129.314 241.686 127.149 242 125L236.987 126.151Z" fill="#A06DBA"/>
<path d="M251.367 120.218C243.628 119.056 235.821 118.419 228 118.311C228.04 117.464 228.251 116.633 228.621 115.874C229.758 114.496 229.862 114.073 237.409 113.649C244.957 113.225 271.427 112.378 290.246 113.755C295.416 114.073 295.519 115.768 295.829 116.934C296.139 118.1 295.933 117.781 295.933 118.311C292.934 118.628 282.387 120.431 281.044 120.642C279.699 120.854 278.251 121.808 276.184 122.655C274.115 123.503 269.979 125.728 267.809 126.046C263.147 126.691 258.449 127.01 253.746 127L236.892 126.257C236.726 125.598 236.726 124.905 236.892 124.244C237.203 123.609 238.237 122.549 243.923 121.702C249.61 120.854 254.574 120.748 251.367 120.218Z" fill="#53A0A3"/>
<path d="M261 85.9844C261.515 85.1754 262.546 84.6698 265.434 84.1641C268.322 83.6585 278.221 83.2539 291.628 82.8494L300.497 82.2427C322.05 81.8382 377.634 81.9393 384.956 82.5461C392.278 83.1528 392.072 83.8607 393 85.1754L388.256 85.8832C386.606 86.1867 379.903 87.6024 375.159 87.6024C372.787 89.3222 370.312 90.8382 364.641 90.8382C358.969 90.8382 352.059 92.5573 347.109 92.8612C342.159 93.1639 341.334 94.1754 336.075 93.9736H315.243C310.524 93.9928 305.808 93.7562 301.115 93.266C296.475 92.6582 294.928 91.1421 294.309 90.0297C290.803 90.0297 280.696 88.2092 278.015 88.108C272.282 87.9939 266.579 87.282 261 85.9844Z" fill="#53A0A3"/>
<path d="M296 46H348.481C348.619 46 348.751 46.0619 348.848 46.1723C348.945 46.2826 349 46.4323 349 46.5882L348.481 50H296.726L296 46Z" fill="#502D80"/>
<path d="M286 83H302L301.059 66.7387L300.954 65H287.045L286.941 66.7387L286 83Z" fill="#34466E"/>
<path d="M293.004 54.7176C292.967 58.1686 293.201 61.6172 293.704 65.0301C293.904 65.9489 294.004 66.8678 294.203 67.6846C295.238 73.1988 297.42 78.4217 300.602 83H306L297.402 49.9188L297.103 49H294.203L294.004 49.9188L293.604 51.6546L293.004 54.7176Z" fill="#FADECA"/>
<path d="M282 83H287.4C290.543 78.3992 292.722 73.1852 293.8 67.6846C293.99 66.8096 294.123 65.9228 294.2 65.0301C294.739 61.6203 295.006 58.1716 295 54.7176L294.3 51.6546L294 49.9188L293.8 49H290.8L290.6 49.9188L282 83Z" fill="#FADECA"/>
<path d="M297 50C295.345 52.6667 292.655 52.6667 291 50H297Z" fill="#D9A551"/>
<path d="M296 50L296.104 50.6111L300.151 65.0741L300.67 66.8056L305.132 83H307L297.868 50H296Z" fill="#BE73D1"/>
<path d="M281 83H282.868L287.33 66.8056L287.849 65.0741L291.896 50.6111L292 50H290.132L281 83Z" fill="#BE73D1"/>
<path d="M298 50L307.167 83H358L348.729 50H298Z" fill="#59338F"/>
<path d="M313.015 30.0313L311.07 29.0938C310.977 29.0938 310.977 29 311.07 29L313.015 28.0625H313.108L313.942 26H314.035L314.961 28.0625L317 29L314.961 29.9375L314.035 32H313.942L313.108 29.9375L313.015 30.0313Z" fill="#FADECA"/>
<path d="M332 75.1881C331.171 69.4863 329.513 65.5469 328.063 64.3029C326.613 63.0588 325.162 65.7543 324.126 70.4194C322.158 70.1084 320.604 70.1084 319.153 73.3222C318.343 75.0592 317.685 76.8627 317.185 78.7129C313.455 78.6092 309.414 80.6827 309 84H332V75.1881Z" fill="#53A0A3"/>
<path d="M289.55 46H298.451C298.596 46 298.736 46.0619 298.839 46.1723C298.942 46.2826 299 46.4323 299 46.5882L298.451 50H289.55L289 46.5882C289 46.4323 289.058 46.2826 289.161 46.1723C289.264 46.0619 289.404 46 289.55 46Z" fill="#BE73D1"/>
<path d="M331 29H360V83H331V29Z" fill="#EDC25C"/>
<path d="M356.789 0H334.211C333.359 0 332.542 0.349881 331.94 0.972769C331.338 1.59566 331 2.44052 331 3.32139V18H360V3.32139C360 2.88522 359.917 2.45337 359.756 2.05042C359.594 1.64733 359.358 1.28129 359.06 0.972769C358.762 0.66438 358.407 0.419757 358.018 0.252771C357.628 0.0859122 357.211 0 356.789 0Z" fill="#F065E9"/>
<path d="M331 18H360V29H331V18Z" fill="#BBD0FF"/>
<path d="M332 18H336V29H332V18Z" fill="white"/>
<path d="M343 18H360V29H343V18Z" fill="#A3B3FF"/>
<path d="M352 29H360V83H352V29Z" fill="#D9A551"/>
<path d="M352 61H366V83H352V61Z" fill="#EDC25C"/>
<path d="M366 61H378V83H366V61Z" fill="#D9A551"/>
<path d="M349 61H352V83H349V61Z" fill="#FFD97D"/>
<path d="M378 61H349L361.532 38.5157C361.617 38.3684 361.737 38.2443 361.882 38.1544C362.026 38.0644 362.191 38.0114 362.361 38H364.639C364.797 38.0082 364.949 38.0611 365.077 38.1525C365.206 38.2439 365.305 38.3699 365.364 38.5157L378 61Z" fill="#FADECA"/>
<path d="M331 29H335V83H331V29Z" fill="#FFD97D"/>
<path d="M331 24H360V26H331V24Z" fill="#7C73FF"/>
<path d="M359 56L366 60.819V67H352V60.819L359 56Z" fill="#EDC25C"/>
<path d="M372 56L378 60.819V67H366V60.819L372 56Z" fill="#D9A551"/>
<path d="M349.964 59L352 60.7067V67H349V60.7067L349.964 59Z" fill="#FFD97D"/>
<path d="M358 43.6629L361 38.5056C361.088 38.3612 361.212 38.2395 361.361 38.1514C361.511 38.0632 361.681 38.0112 361.857 38H364.214C364.377 38.008 364.535 38.0599 364.667 38.1496C364.8 38.2391 364.903 38.3627 364.964 38.5056L370 47L358 43.6629Z" fill="#34466E"/>
<path d="M350 59.3713L351.883 61L358.919 56.3174L361 44.8144L358.324 44L350 59.3713Z" fill="white"/>
<path d="M339 56.1012C339 54.3884 340.343 53 342 53C343.657 53 345 54.3884 345 56.1012V68.8987C345 70.6115 343.657 72 342 72C340.343 72 339 70.6115 339 68.8987V56.1012Z" fill="#E6B24A"/>
<path d="M342.829 75.3567C343.298 73.875 344.184 72.5743 345.37 71.623C346.557 70.6717 347.99 70.1137 349.485 70.0213C352.578 69.8397 355.631 70.8246 358.085 72.7957C360.44 74.7164 361.771 79.7317 363 84H333C333 76.6372 338.222 74.7164 342.829 75.3567Z" fill="#3C9186"/>
<path d="M346 87C345.25 80.4234 343.5 78.9493 342.625 80.6503C341.75 82.3511 341 87 341 87H346Z" fill="#85B386"/>
<path d="M322.937 82.8169C323.241 81.0712 324.658 79.7363 325.57 80.0444C326.481 80.3524 327.595 82.5087 328 86H320C320.608 84.0491 320.506 83.5356 322.937 82.8169Z" fill="#85B386"/>
<path d="M246.854 161.93C245.145 160.899 243.705 159.46 242.656 157.736C241.837 156.373 241.939 153.228 242.144 151.655C242.349 150.082 248.8 144.317 249.72 143.163C251.443 140.87 252.886 138.37 254.02 135.72C254.635 133.623 260.983 130.478 263.133 130.059C265.283 129.64 265.795 131.526 265.795 133.204C265.795 134.881 265.385 139.809 265.795 141.277C266.203 142.744 266.101 145.47 264.566 146.727C262.409 149.092 260.425 151.615 258.627 154.276C257.706 155.849 248.288 162.768 246.854 161.93Z" fill="#5D4282"/>
<path d="M273.547 108.824C273.547 108.824 274.298 103.678 276.337 100.796C278.376 97.9144 281.381 98.9427 282.239 100.796C283.098 102.649 282.454 103.986 283.635 104.708C284.814 105.428 288.142 110.471 289 115H267C267.323 110.677 270.435 108.722 273.547 108.824Z" fill="#3C9186"/>
<path d="M261 86.0435C264.704 86.9705 268.468 87.6243 272.261 88C276.954 85.174 284.775 84.8478 288.946 84.7391C293.118 84.6304 296.037 83.4347 300 83H282.377C274.243 83.3262 268.716 83.5435 265.484 84.0869C262.251 84.6304 261.416 85.1738 261 86.0435Z" fill="#69BA91"/>
<path d="M228.62 115.655C229.755 114.383 229.859 113.993 237.396 113.602C242.561 113.308 253.712 112.918 266 113.015C260.425 113.407 254.228 114.286 253.403 115.263C247.723 114.677 239.876 114.969 239.049 115.947C236.929 115.764 234.796 116.1 232.854 116.925C232.598 117.023 232.365 117.169 232.171 117.353C231.975 117.538 231.821 117.758 231.717 118H228C228.026 117.185 228.237 116.385 228.62 115.655Z" fill="#69BA91"/>
<path d="M252.173 120.207C254.291 118.151 257.09 117.004 260 117C257.992 117.828 257.19 121.448 257.19 121.448C255.62 121.332 254.044 121.332 252.474 121.448C250.366 121.655 246.553 122.69 245.148 122.793C243.743 122.897 241.737 123.931 241.737 124.759V126L237.12 125.794C236.96 125.148 236.96 124.473 237.12 123.827C237.422 123.207 238.425 122.172 243.944 121.345C247.958 120.725 251.57 120.517 252.072 120.207H252.173Z" fill="#69BA91"/>
<path d="M215.442 224.059C205.312 222.225 193.134 223.141 187.404 224.059C186.381 228.439 187.301 234.55 190.166 237.097C193.032 239.645 194.26 240.357 194.465 242.089C194.669 243.82 196.511 247.488 202.958 245.348C209.405 243.209 213.396 241.173 214.522 235.977C215.646 230.781 218.922 224.67 215.442 224.059Z" fill="#6356D6"/>
<path d="M228.933 89.2584C228.819 93.0762 227.914 94.0298 226.894 94.7717C225.875 95.5148 224.97 94.3484 223.951 92.6518C223.187 91.0936 222.874 89.3743 223.046 87.6679C223.046 86.9256 223.724 87.0317 225.423 87.0317C226.548 86.9203 227.686 87.1038 228.706 87.5618C229.045 87.8799 229.045 88.1978 228.933 89.2584Z" fill="#5D51C9"/>
<path d="M141.234 280.943C152.313 227.956 217.96 234.656 237.529 238.366C247.159 188.267 290.233 163.526 336.62 158.37C344.697 138.372 368.719 114.043 412 126.31V166.515V373H0C10.6644 318.466 50.219 277.644 141.234 280.943Z" fill="#CCBDFF"/>
<path d="M354.714 180.316C304.74 179.079 258.403 203.904 237 238C246.663 187.938 289.883 163.216 336.429 158.065C341.623 145.19 353.571 130.459 373 125C360.74 137.362 360.325 147.559 354.714 180.316Z" fill="url(#paint0_linear_174_690)"/>
<path d="M141.443 280.945C149.013 244.762 182.196 236.413 208.637 236C184.061 238.99 161.248 256.411 160.834 283.316C206.046 293.419 216 308.056 216 308.056C144.45 307.335 89.4899 319.396 51.6407 373H0C10.6814 318.468 50.2933 277.647 141.443 280.945Z" fill="url(#paint1_linear_174_690)"/>
<path d="M66.3691 308.569L64 307.5L66.3691 306.432H66.4762L67.4458 304.081C67.5542 303.973 67.5542 303.973 67.5542 304.081L68.631 306.432L71 307.5L68.631 308.569L67.5542 310.92C67.5542 311.027 67.5542 311.027 67.4458 310.92L66.4762 308.569H66.3691Z" fill="#FFFAE6"/>
<path d="M119.769 266.238L117 265L119.769 263.761L121.001 261.077C121.001 260.974 121.001 260.974 121.103 261.077L122.231 263.761H122.333L125 265L122.333 266.238H122.231L121.103 268.923C121.001 269.026 121.001 269.026 121.001 268.923L119.769 266.238Z" fill="#FFF5CF"/>
<path d="M296.667 158.605L294 157.5L296.667 156.395H296.769L297.897 154H298L299.231 156.395L302 157.5L299.231 158.605L298 161H297.897L296.769 158.605H296.667Z" fill="#C495DE"/>
<path d="M215.103 270.229L211.083 268.553C210.972 268.553 210.972 268.448 211.083 268.448L215.103 266.772L216.888 263H217.111L218.898 266.772L222.916 268.448C223.028 268.448 223.028 268.553 222.916 268.553L218.898 270.229L217.111 274H216.888L215.103 270.229Z" fill="#ADEDFF"/>
<path d="M253.628 288.666L252 288L253.628 287.429L254.441 286H254.559L255.255 287.429L257 288L255.255 288.666L254.559 290H254.441L253.628 288.666Z" fill="#FFEFC4"/>
<path d="M281 243.414C276.035 241.18 274.277 240.122 273.139 241.885C272.384 243.084 271.986 244.525 272 246L281 243.414Z" fill="#6C6C96"/>
<path d="M278.753 226C282.988 233.282 286 243.292 286 243.292L284.023 244C281.953 236.72 278 226.707 278 226.707L278.753 226Z" fill="#824B6F"/>
<path d="M280.312 227.426L284.031 231.168C285.015 228.336 283.922 226.414 281.078 226.009C282.28 225.503 286 223.279 286 223.279C284.25 222.671 282.061 222.975 279.766 224.999C278.89 223.784 276.922 222.369 273.64 223.784L277.577 225.706C274.296 226.111 273.421 227.83 272 229.752L277.469 228.032L277.796 234C277.796 234 280.749 229.752 280.312 227.426Z" fill="#58A67E"/>
<path d="M378.034 171.083L377.516 162.042C377.445 160.88 377.612 159.715 378.008 158.621C378.403 157.526 379.018 156.523 379.815 155.676C380.611 154.83 381.573 154.154 382.64 153.694C383.707 153.233 384.856 152.998 386.018 153C387.175 153.012 388.318 153.258 389.377 153.725C390.437 154.19 391.393 154.864 392.186 155.709C392.98 156.553 393.596 157.549 393.997 158.637C394.398 159.724 394.576 160.882 394.52 162.042L393.898 171.083C393.584 177.39 395.492 183.609 399.289 188.648C404.888 195.923 403.748 202.055 398.563 235H373.472C368.184 202.055 367.147 195.923 372.746 188.648C376.556 183.62 378.432 177.384 378.034 171.083Z" fill="#A281C7"/>
<path d="M357.842 176.643L357.536 170.822C357.478 170.069 357.579 169.312 357.832 168.601C358.085 167.889 358.484 167.238 359.004 166.69C359.523 166.141 360.152 165.708 360.849 165.417C361.546 165.127 362.296 164.985 363.051 165.001C363.798 164.999 364.537 165.152 365.221 165.449C365.906 165.746 366.522 166.181 367.031 166.728C367.539 167.274 367.929 167.921 368.176 168.626C368.423 169.33 368.521 170.078 368.464 170.822L368.158 176.643C367.904 180.717 369.138 184.745 371.631 187.977C375.206 192.777 374.491 196.759 371.12 218H354.88C351.509 196.759 350.795 192.777 354.369 187.977C356.862 184.745 358.096 180.717 357.842 176.643Z" fill="#A281C7"/>
<path d="M268.255 371H412V259.08L352.383 249L260.466 254.924C260.466 258.872 263.478 281.215 263.478 281.215C262.647 284.333 260.258 289.008 259.012 293.893C257.765 298.777 257.35 300.751 257.246 304.596V318.521L256 336.499L268.255 371Z" fill="#824B6F"/>
<path d="M358.828 265.49L356.035 284.849L352.931 294.321L352 332H412V253L358.103 256.018L358.828 265.49Z" fill="#5A3C5C"/>
<path d="M371.388 271.92L365.051 281.268L361 296L374.193 291.224L376.997 279.946C376.997 279.946 376.894 273.952 376.997 272.427C377.101 270.904 374.089 270.396 371.388 271.92Z" fill="#754465"/>
<path d="M327.795 269.203L321.937 284.494L315.557 293.69L314.197 305.159L312 318.384L332.711 322V307.122L331.142 295.654L337 283.874V266L327.795 269.203Z" fill="#734163"/>
<path d="M300 254.842L298.76 269.169C298.76 269.169 295.351 273.775 292.459 277.254C289.566 280.733 282.748 287.795 281.095 289.74C279.442 291.683 279.132 291.991 277.479 286.157C276.406 282.289 275.578 278.359 275 274.389C275 274.389 275.723 269.374 276.549 268.043L281.921 260.47L283.781 253L300 254.842Z" fill="#754465"/>
<path d="M278 272.011C278 273.427 278.334 278.483 278.334 278.483L278.917 280L280.084 276.865L281 271L278 272.011Z" fill="#824B6F"/>
<path d="M259.684 293.852C260.874 289.008 263.153 284.371 263.945 281.279C263.945 281.279 261.072 259.123 261.072 255.207L263.945 255L266.027 256.649L266.522 265.1L266.324 272.519L269 280.558C269 280.558 264.044 291.688 263.945 292.1L261.567 300.756L259.981 309L258 308.692V304.466C258.099 300.653 258.495 298.696 259.684 293.852Z" fill="#966290"/>
<path d="M305.464 271L305.268 283.462C305.268 283.462 299.768 292.187 299.179 294.472L298 306L309 286.163C309 286.163 308.411 281.49 308.411 279.412C308.411 277.335 309 271 309 271H305.464Z" fill="#966290"/>
<path d="M412 322.449C331.817 309.374 281.987 299.902 247.904 296.195C213.821 292.49 172.279 297.637 131.565 308.344C114.886 312.668 109.499 318.228 104.32 339.437C99.14 360.646 98 373 98 373H412V322.449Z" fill="#6EAC8D"/>
<path d="M204 327.04C197.203 326.787 191.318 327.718 190 330L204 327.04Z" fill="#629987"/>
<path d="M344 322.363C320.32 320.493 301.561 325.689 295 341.696L327.803 355L344 350.427V322.363Z" fill="#508F86"/>
<path d="M295 359.782C285.003 348.734 264.698 340.699 248.557 350.24C232.417 359.782 232 364 232 364C246.475 358.175 275.111 355.563 295 359.782Z" fill="#629987"/>
<path d="M166.389 299.405C165.98 289.741 162.002 286.181 159.859 285.163C157.717 284.146 157.717 288.011 160.268 293.2C154.248 289.335 151.902 290.555 151.596 292.183C151.289 293.81 155.983 296.353 159.044 297.778C152.717 296.659 146.597 298.388 155.37 301.44C164.144 304.491 167 305 167 305L166.389 299.405Z" fill="#92D18F"/>
<path d="M104 337C109.191 316.83 114.591 311.527 131.308 307.369C172.114 297.179 213.647 291.461 247.912 295.101C266.913 297.179 305.539 304.666 337 309.76C319.037 308.824 301.178 308.616 285.084 309.344C263.902 307.16 242.512 312.671 230.884 316.518C217.385 316.934 208.975 320.885 208.975 320.885C208.975 320.885 181.874 310.592 160.9 320.885C143.041 318.597 128.608 319.741 114.383 324.939C108.568 327.123 107.946 328.579 104 337Z" fill="#85C28D"/>
<path d="M217 300C218.174 297.164 222.966 296.03 226 297.958L217 300Z" fill="#BAD17B"/>
<path d="M158 313.472C162.049 313.849 166.114 314.024 170.181 313.997C171.997 313.997 171.035 312 164.838 312C158.64 312 158 313.472 158 313.472Z" fill="#6AA88D"/>
<path d="M226.241 294.188C228.657 289.721 224.833 286.676 221.412 288.807C221.01 283.731 210.244 279.772 206.622 286.778C203 293.782 203 295 203 295L226.241 294.188Z" fill="#6EAC8D"/>
<path d="M179 306.536C199.446 309.643 223.109 312 233.8 312C244.489 312 242.933 307.394 216.571 304.821C190.21 302.25 179 306.536 179 306.536Z" fill="#6AA88D"/>
<path d="M110.266 321C115.73 334.641 119.337 332.795 125.934 336.795C158.818 355.564 185 373 185 373H98C98 373 99.0305 360.18 104.288 338.436C106.04 330.846 107.896 325.308 110.266 321Z" fill="#78426A"/>
<path d="M131 340.723C127.659 345.188 125.097 350.19 123.424 355.516L122.615 361.291L121 362C121 362 121.202 358.15 121.303 356.428C121.403 354.704 123.424 348.119 123.424 348.119L128.273 339L131 340.723Z" fill="#5A3C5C"/>
<path d="M148.641 351C146.122 356.468 144.533 362.318 143.939 368.308L143 373H185L148.641 351Z" fill="#5A3C5C"/>
<path d="M162 361.796L153.365 366.935C152.913 367.059 152.429 367.005 152.018 366.783C151.605 366.561 151.296 366.191 151.157 365.75C150.354 363.97 152.863 358.337 153.566 356.558C154.089 355.415 154.492 354.223 154.771 353L162 361.796Z" fill="#78426A"/>
<path d="M104.189 338.47C105.913 330.968 107.74 325.316 110.072 321C112.609 327.269 116.871 330.249 119 331.996L117.175 334.257C111.493 343.815 110.072 356.557 110.072 356.557C110.072 356.557 103.885 367.758 103.479 373H98C98 373 99.0142 360.155 104.189 338.47Z" fill="#8F516F"/>
<path d="M101 349.899C101.724 346.362 102.655 342.422 103.69 338.077C105.448 330.7 107.311 325.244 109.689 321C110.32 322.445 111.081 323.831 111.966 325.143L113 329.184C110.413 333.833 107.516 340.501 107.516 340.501L104.207 344.341L101 350V349.899Z" fill="#BF6172"/>
<path d="M122.828 336.368C131.414 347.1 142.276 351.743 154.483 354.736C166.69 366.602 183.138 373 183.138 373H230C230 373 192.242 361.753 180.759 353.395C166.069 349.68 150.862 344.624 141.035 336.264C136.69 334.201 113.621 332.24 112.173 318C111.318 318.821 110.587 319.759 110 320.786C110 327.081 115.586 332.446 122.828 336.368Z" fill="#609684"/>
<path d="M314.496 158.847L313.775 147.475C313.677 146.003 313.88 144.527 314.373 143.138C314.867 141.749 315.639 140.476 316.643 139.4C317.646 138.323 318.859 137.466 320.207 136.882C321.554 136.297 323.007 135.996 324.474 136C325.942 135.996 327.395 136.297 328.742 136.882C330.089 137.466 331.302 138.323 332.306 139.4C333.309 140.476 334.082 141.749 334.575 143.138C335.068 144.527 335.272 146.003 335.173 147.475L334.556 158.847C334.033 166.873 336.448 174.815 341.345 181.177C348.341 190.377 347.003 198.235 340.317 240H308.632C302.048 198.235 300.608 190.377 307.706 181.177C312.512 174.767 314.916 166.862 314.496 158.847Z" fill="#FFDB9E"/>
<path d="M327.739 191.295L326 190.5L327.739 189.705L328.5 188L329.261 189.592L331 190.387L329.261 191.182L328.5 193L327.739 191.182V191.295Z" fill="white"/>
<path d="M337.816 209.952C326.591 197.385 312.713 203.466 310.57 215.424C301.284 206.607 291.59 213.701 291.181 225.456C290.773 237.211 291.181 244 291.181 244H342L337.816 209.952Z" fill="#69BA91"/>
<path d="M341.201 219.457C326.295 216.289 320.394 217.979 317.496 227.589C304.867 226.744 300.416 231.497 297 241L350 234.348L341.201 219.457Z" fill="#4C9677"/>
<path d="M306.821 180.715C311.717 174.397 314.167 166.605 313.738 158.705L313.004 147.496C312.853 145.284 313.419 143.082 314.622 141.199C315.825 139.317 317.605 137.848 319.712 137C317.72 143.115 319.712 149.84 320.445 155.036C321.179 160.233 321.913 169.608 317.511 175.213C313.109 180.817 304.725 186.319 302 196C302 188.867 303.467 184.892 306.821 180.715Z" fill="#FFEFC4"/>
<path d="M261.06 255.515C273.681 260.048 282.785 256.03 286.923 256.236C291.062 256.442 300.579 256.236 308.028 255.618C313.741 256.161 319.495 256.127 325.202 255.515C320.857 256.339 319.201 259.327 316.718 261.284C312.477 262.005 308.545 265.817 307.614 268.496C305.131 269.217 305.545 270.97 305.545 270.97C310.869 271.589 316.221 271.933 321.581 272C326.34 272 338.547 269.321 344.134 268.599C349.72 267.878 372.894 262.623 372.894 262.623C372.894 262.623 396.171 262.623 412 259.636V229.654C392.782 228.088 373.437 229.337 354.583 233.363C327.995 234.703 311.959 237.382 294.372 241.297C276.785 245.212 266.233 245.624 263.646 248.921C261.06 252.218 260.853 252.011 261.06 255.515Z" fill="#58A67E"/>
<path d="M320 247H304C318.142 242.5 320 247 320 247Z" fill="#4C9677"/>
<path d="M294.182 241.045C299.121 239.89 303.958 238.84 309 238C296.24 242.095 290.065 244.718 289.139 246.713C275.968 246.818 271.749 249.022 270.204 251.541C269.007 251.814 267.946 252.514 267.209 253.515C266.474 254.516 266.112 255.752 266.192 257C264.545 256.58 262.796 256.161 261.047 255.531C260.841 251.961 261.253 251.752 263.618 248.813C265.986 245.873 276.894 243.774 294.182 241.045Z" fill="#85C286"/>
<path d="M214 335C221.972 332.993 233.878 331.725 245.266 334.577C249.821 333.204 256.137 333.098 264.212 334.471C268.043 324.222 285.642 322.108 302 321.897C278.499 314.288 254.894 318.831 250.028 326.863C235.327 322.636 220.213 324.856 214 335Z" fill="#629987"/>
<path d="M266.143 373H412V279.256C394.235 271.789 383.431 272.723 382.6 279.256C370.757 276.353 358.394 277.182 359.849 286.618C346.24 287.344 338.344 296.055 342.292 311.61C329.514 309.122 332.007 321.877 334.5 326.646C327.748 327.995 328.059 333.698 332.215 340.128C325.462 339.091 317.151 339.297 316.32 344.172C307.49 340.646 299.075 334.528 292.946 336.705C286.817 338.882 287.336 345.519 287.336 345.519C278.297 344.172 274.038 344.897 275.596 351.119C276.511 354.862 277.691 358.535 279.129 362.111C268.533 362.008 262.299 362.733 266.143 373Z" fill="#1D2B38"/>
<path d="M117.225 361.826C124.22 358.874 132.227 355.606 136.282 355.079C140.337 354.551 136.688 356.66 130.808 361.826C127.087 365.165 123.722 368.911 120.773 373H108C109.521 368.572 110.231 364.672 117.225 361.826Z" fill="#854D76"/>
<path d="M226 307.424C222.453 296.643 214.423 295.074 212.858 294.55C212.546 281.573 212.754 279.269 203.472 276.443C194.191 273.617 181.675 272.781 174.479 276.443C167.283 280.107 164.468 290.887 164.154 296.225C163.949 298.941 163.949 301.671 164.154 304.388C164.154 304.388 187.411 309.726 226 307.424Z" fill="#8D8CC4"/>
<path d="M360.5 253C340.342 253 324 236.658 324 216.499C324 196.342 340.342 180 360.5 180C380.658 180 397 196.342 397 216.499C397 236.658 380.658 253 360.5 253Z" fill="#6238EB"/>
<path d="M345 183.695C350.336 181.025 356.251 179.766 362.195 180.036C368.139 180.305 373.919 182.093 379 185.234C362.911 188.005 355.726 182.257 345 183.695Z" fill="#632ADE"/>
<path d="M324 219.978C332.606 209.882 350.131 211.015 358.737 217.402C356.767 200.918 383.416 188.969 393.682 200.713C395.852 205.472 396.983 210.632 397 215.856C397.006 222.188 395.343 228.409 392.178 233.904C389.013 239.398 384.455 243.974 378.957 247.175L343.08 248C337.852 245.215 333.384 241.208 330.06 236.327C326.737 231.445 324.657 225.835 324 219.978Z" fill="#632ADE"/>
<path d="M348.378 177.485L346 176.5L348.378 175.406L349.459 173H349.568L350.541 175.406H350.649L352.919 176.5C353.027 176.5 353.027 176.5 352.919 176.609L350.649 177.594H350.541L349.568 180H349.459L348.378 177.594V177.485Z" fill="#82B8E8"/>
<path d="M365.34 225.71C373.638 214.355 375.073 203.101 394.435 203C396.981 209.319 397.649 216.226 396.361 222.908C395.072 229.59 391.88 235.768 387.162 240.715L374.765 246.392L342.187 247C334.327 242.303 328.547 234.845 326 226.116C339.626 228.954 358.988 234.328 365.34 225.71Z" fill="#6238EB"/>
<path d="M396.8 212.547C396.9 213.699 397 214.85 397 216.106C396.975 225.487 393.545 234.506 387.407 241.337L379.912 245C378.518 242.043 377.381 238.959 376.514 235.788C369.119 209.302 390.904 206.79 396.8 212.547Z" fill="#632ADE"/>
<path d="M382.048 219.989C382.868 214.46 391.572 212.061 397 220.614C396.08 228.392 392.743 235.666 387.476 241.374L386.247 242C391.163 231.882 381.229 225.935 382.048 219.989Z" fill="#6238EB"/>
<path opacity="0.32" d="M329.153 235C328.329 225.321 332.141 213.065 340.075 201.841C348.01 190.615 358.52 183.201 368 180.833C362.687 179.675 357.182 179.725 351.892 180.981C346.601 182.236 341.661 184.664 337.436 188.086C333.211 191.507 329.811 195.833 327.485 200.746C325.159 205.657 323.969 211.03 324.001 216.463C323.98 222.999 325.762 229.412 329.153 235Z" fill="url(#paint2_linear_174_690)"/>
<path d="M342.428 199.213C341.502 197.993 342.127 195.788 343.824 194.29C345.52 192.791 347.646 192.566 348.572 193.786C349.497 195.008 348.873 197.212 347.176 198.71C345.48 200.209 343.354 200.435 342.428 199.213Z" fill="#23283D"/>
<path d="M357.428 199.214C356.503 197.993 357.127 195.789 358.824 194.289C360.52 192.791 362.646 192.566 363.572 193.786C364.498 195.007 363.873 197.211 362.176 198.711C360.48 200.209 358.354 200.434 357.428 199.214Z" fill="#23283D"/>
<path d="M345.428 210.213C344.503 208.993 345.127 206.788 346.824 205.29C348.52 203.791 350.646 203.566 351.572 204.786C352.498 206.006 351.873 208.212 350.176 209.71C348.48 211.209 346.354 211.435 345.428 210.213Z" fill="#23283D"/>
<path d="M346.872 193.012C347.133 192.981 347.397 193.01 347.648 193.092C347.898 193.176 348.13 193.314 348.33 193.497C348.529 193.678 348.691 193.904 348.807 194.156C348.922 194.409 348.988 194.683 349 194.964C347.685 194.673 346.318 194.805 345.074 195.346C343.829 195.887 342.762 196.81 342.008 198C341.969 197.473 342.075 196.945 342.312 196.481C342.691 195.504 343.32 194.658 344.126 194.045C344.933 193.432 345.884 193.074 346.872 193.012Z" fill="#3A3C66"/>
<path d="M361.87 193.012C362.131 192.981 362.395 193.01 362.646 193.092C362.897 193.176 363.129 193.314 363.329 193.497C363.529 193.678 363.691 193.904 363.806 194.156C363.922 194.409 363.988 194.683 364 194.964C362.683 194.673 361.315 194.805 360.069 195.346C358.823 195.887 357.755 196.81 357 198C357.013 197.478 357.116 196.963 357.304 196.481C357.684 195.504 358.313 194.658 359.121 194.045C359.928 193.432 360.881 193.074 361.87 193.012Z" fill="#2D2E4F"/>
<path d="M349.872 204.003C350.393 203.973 350.906 204.155 351.302 204.511C351.699 204.868 351.948 205.371 352 205.917C350.674 205.612 349.29 205.745 348.038 206.297C346.786 206.849 345.728 207.792 345.007 209C344.971 208.449 345.076 207.899 345.311 207.405C345.709 206.46 346.343 205.645 347.146 205.047C347.948 204.448 348.89 204.087 349.872 204.003Z" fill="#2D2E4F"/>
<path d="M314.102 158.561V161H333.898C333.879 160.185 333.913 159.371 334 158.561V157H314L314.102 158.561Z" fill="#D44E7B"/>
<path d="M310 176H338C337.301 174.71 336.707 173.373 336.224 172H311.881C311.361 173.375 310.733 174.713 310 176Z" fill="#D44E7B"/>
<path d="M412 218.579C390.84 208.819 376.143 220.97 370.723 231.725C357.173 229.933 350.814 232.422 348 238H412V218.579Z" fill="#58A67E"/>
<path d="M328 238H395V255H328V238Z" fill="#58A67E"/>
<path d="M343.803 268.536C338.189 269.271 325.922 272 321.14 272C315.754 271.931 310.376 271.581 305.026 270.95C305.026 270.95 304.61 269.166 307.105 268.431C308.041 265.703 311.991 261.82 316.254 261.086C318.749 259.092 320.412 256.049 324.778 255.21C319.836 255.661 314.869 255.766 309.912 255.524C310.952 252.271 315.734 249.648 320.204 249.228C323.947 244.611 329.456 241.253 340.996 241.253H376.758L381.644 238H412V259.407C396.094 262.45 372.703 262.45 372.703 262.45C372.703 262.45 349.417 267.802 343.803 268.536Z" fill="#4C9677"/>
<path d="M412 230.186C411.369 229.17 410.51 228.322 409.493 227.711C408.477 227.099 407.332 226.742 406.153 226.669C404.974 226.596 403.795 226.809 402.713 227.291C401.631 227.773 400.677 228.508 399.93 229.439C399.615 220.149 395.312 218.334 392.688 219.189C390.064 220.042 387.335 222.819 387.335 234.137C380.513 234.458 376.42 238.728 376 243H411.895L412 230.186Z" fill="#437A6D"/>
<path d="M309.556 222.454C311.273 225.768 313.495 236.228 314 247H304C305.111 233.64 307.939 219.245 309.556 222.454Z" fill="#468069"/>
<path d="M325 240C324.357 231.677 323.5 228.139 322.643 227.099C321.786 226.058 319.429 233.446 319 240H325Z" fill="#468069"/>
<path d="M384 247H353V229H384V247Z" fill="#82B8E8"/>
<path d="M367 247H353V229H367V247Z" fill="#BBD0FF"/>
<path d="M356 247H360V240.25C360 239.654 359.794 239.081 359.428 238.66C359.063 238.238 358.566 238 358.049 238C357.531 238 357.035 238.238 356.669 238.66C356.303 239.081 356.098 239.654 356.098 240.25V247H356Z" fill="#827D99"/>
<path d="M353 237L360 230H353V237Z" fill="#D4E1FF"/>
<path d="M384 230H353L360.13 224H376.87L384 230Z" fill="#23283D"/>
<path d="M367 230L360 224L353 230H367Z" fill="#4E4766"/>
<path d="M372.456 243.137C371.484 243.137 370.697 242.352 370.697 241.382C370.697 240.413 371.484 239.627 372.456 239.627C373.428 239.627 374.216 240.413 374.216 241.382C374.216 242.352 373.428 243.137 372.456 243.137Z" fill="#6BA1D1"/>
<path d="M379.081 243.137C378.109 243.137 377.321 242.352 377.321 241.382C377.321 240.413 378.109 239.627 379.081 239.627C380.053 239.627 380.841 240.413 380.841 241.382C380.841 242.352 380.053 243.137 379.081 243.137Z" fill="#6BA1D1"/>
<path d="M379.081 236.53C378.109 236.53 377.321 235.745 377.321 234.775C377.321 233.807 378.109 233.021 379.081 233.021C380.053 233.021 380.841 233.807 380.841 234.775C380.841 235.745 380.053 236.53 379.081 236.53Z" fill="#6BA1D1"/>
<path d="M372.456 236.53C371.484 236.53 370.697 235.745 370.697 234.775C370.697 233.807 371.484 233.021 372.456 233.021C373.428 233.021 374.216 233.807 374.216 234.775C374.216 235.745 373.428 236.53 372.456 236.53Z" fill="#6BA1D1"/>
<path d="M332 232H341V240H332V232Z" fill="#82B8E8"/>
<path d="M332 232H341V234H332V232Z" fill="#827D99"/>
<path d="M347 240H341V225H347V240Z" fill="#82B8E8"/>
<path d="M405.556 250.786C396.878 247.411 390 256 390 256H410C409.809 254.825 409.296 253.724 408.515 252.805C407.733 251.888 406.711 251.191 405.556 250.786Z" fill="#58A67E"/>
<path d="M395.882 224C399.425 238.212 398.982 256 398.982 256H394.775C395.439 243.118 394 224.92 394 224.92L395.882 224Z" fill="#824B6F"/>
<path d="M396.2 227.379L403.1 234.671C404.3 230.519 402 227.076 397.3 225.354C399.2 224.949 405 222.619 405 222.619C403.45 221.744 401.684 221.336 399.912 221.444C398.14 221.551 396.436 222.171 395 223.228C393.3 221.101 389.8 218.063 384.7 219.278L391.5 223.733C386.1 223.228 384.9 225.658 383 228.291L391.7 227.379L393.2 237C393.2 237 397.5 231.33 396.2 227.379Z" fill="#85C286"/>
<path d="M316.369 260.865C318.924 258.927 320.627 255.971 325.099 255.155C328.009 253.299 331.562 252.603 335 253.219C325.631 255.869 323.608 260.457 323.608 260.457C325.303 260.277 327.018 260.487 328.612 261.068C321.692 261.578 314.772 263.617 312.11 267.287C310.377 267.247 308.649 267.488 307 268C307.958 265.35 312.004 261.578 316.369 260.865Z" fill="#5CAD84"/>
<path d="M290.881 266.071C284.543 266.413 280.556 268.807 278 272C285.974 271.088 287.302 270.632 291.903 269.036C296.503 267.439 298.548 265.615 290.881 266.071Z" fill="#4A8C7B"/>
<path d="M359 261H341C356.919 256.5 359 261 359 261Z" fill="#468069"/>
<path d="M345.516 249.076C348.723 249.495 352.038 255.666 353 261H336C337.925 254.411 338.994 248.24 345.516 249.076Z" fill="#6C6C96"/>
<path d="M295 266.683C293.802 263.232 291.297 261.966 289.773 263.922C286.723 264.152 284 264.381 284 268.985C284 268.985 291.188 269.33 295 266.683Z" fill="#58A67E"/>
<path d="M164.104 296.59C164.419 291.156 167.247 280.288 174.476 276.452C178.094 274.788 182.028 273.952 186 274.002C178.666 274.535 173.323 283.059 173.428 286.681C171.438 287.214 164.419 294.033 164 300C164 299.041 164 297.869 164.104 296.59Z" fill="#AEA3D1"/>
<path d="M205 293.823C203.047 294.132 196.265 295.996 196.265 300.653C196.094 303.153 195.611 305.623 194.826 308C188.66 307.69 183.419 307.276 179 306.862C179 303.653 181.158 300.342 184.036 297.444C186.912 294.547 188.147 291.856 189.482 287.302C190.817 282.749 195.237 276.332 203.458 277.056C201.095 279.644 202.02 284.818 205 293.823Z" fill="#7E74A6"/>
<path d="M187 276C184.338 276.453 183.197 278.152 183.008 278.831C182.818 279.51 185.955 277.926 185.955 277.926L187 276Z" fill="#B3A9D1"/>
<path d="M176.794 302.541C175.66 295.878 176.382 288.701 180.51 289.01C184.637 289.316 183.604 296.596 183.501 300.388C183.501 300.388 185.668 297.211 188.454 298.748C191.24 300.286 190.311 305.207 185.255 309H175.144C166.477 301.722 173.596 297.313 176.794 302.541Z" fill="#CFE08B"/>
<path d="M162 304C159.519 295.721 151.763 282.991 149.386 280.197C147.007 277.403 147.731 279.679 151.246 285.165C154.763 290.65 160.656 304 160.656 304H162Z" fill="#CFE08B"/>
<path d="M162.296 283.172C162.569 279.91 163.206 280.857 162.933 282.541C162.66 284.224 161.294 297.268 161.658 304H161.02C160.899 297.026 161.326 290.055 162.296 283.172Z" fill="#CFE08B"/>
<path d="M202.008 308C201.953 307.134 202.185 306.275 202.671 305.547C203.157 304.82 203.872 304.264 204.708 303.963C204.275 303.083 204.113 302.1 204.242 301.133C204.37 300.166 204.786 299.256 205.435 298.512C207.617 295.888 213.744 296.797 221.846 300.329C223.763 302.386 225.183 304.835 226 307.495H223.819C222.676 305.88 219.768 304.164 217.38 303.155C216.445 299.824 210.212 297.907 208.447 298.512C206.682 299.118 206.059 301.642 206.89 303.862C205.658 304.901 204.847 306.332 204.605 307.899L202.008 308Z" fill="#8C7CA6"/>
<path d="M178.837 305.221C178.125 299.026 178.939 292.412 180.056 293.042C181.174 293.672 181.277 296.821 181.277 303.75C181.987 301.336 184.935 300.706 184.833 303.016C185.747 301.545 188.797 300.811 189 304.171C188.086 306.095 186.725 307.755 185.036 309H176.805C172.638 304.171 176.703 303.961 178.837 305.221Z" fill="#BAD17B"/>
<path d="M360.54 309.779C347.307 304.378 345.848 318.918 346.057 323.383C340.43 323.383 339.805 329.407 341.368 335.846C332.616 329.407 331.99 340 331.99 340C327.823 333.562 327.51 327.954 334.283 326.603C331.782 321.722 329.281 308.948 342.097 311.441C338.138 295.863 346.057 287.139 359.706 286.516C358.977 281.531 361.999 278.934 366.687 278C364.083 280.804 364.604 285.789 367 287.865C357.622 287.762 356.372 301.159 360.54 309.779Z" fill="#20373D"/>
<path d="M388 298.306C382.438 295.312 371.838 297.17 372.363 306.98C367.536 305.844 361.764 307.599 363.233 314C366.486 310.179 374.462 309.663 381.703 312.554C380.911 310.66 379.604 309.017 377.925 307.805C377.401 302.229 380.864 299.442 388 298.306Z" fill="#253B47"/>
<path d="M337 347.9C328.5 345.319 321.97 348.624 321.97 353.582C312.019 349.966 305.488 354.511 304.97 356.267C299.061 351.516 288.903 352.032 286 353.582C291.598 354.201 300.927 359.365 303.519 362.774C297.921 363.29 294.811 367.009 294.811 373C299.994 367.629 310.464 363.187 316.787 363.601C315.32 362.016 313.513 360.779 311.5 359.985C317.5 356.88 324.244 355.485 330.988 355.957C329.537 351.825 331.299 349.346 337 347.9Z" fill="#20373D"/>
<path d="M412 318.522C398.021 314.506 392.909 318.832 392.909 326.864C373.297 325.936 363.177 332.322 366.933 346.946C354.727 347.976 343.356 358.583 342 373H354.727C357.544 363.216 373.088 351.58 388.006 351.58C382.268 342.518 379.973 341.488 379.973 341.488C389.258 336.545 406.367 335.927 412 340.148V318.522Z" fill="#192530"/>
<path d="M151 309.292C147.021 307.142 133.653 307.04 131 314L151 309.292Z" fill="#CFE08B"/>
<path d="M167 312.227C164.73 308.003 161.43 307.609 159.778 307.707C157.198 306.333 152.35 306.431 153.073 312.914C157.612 313.307 167 312.227 167 312.227Z" fill="#8C7CA6"/>
<path d="M164 308.873C163.077 308.427 162.153 308.65 161.948 309.096C161.743 309.543 163.282 311.104 163.384 313H161.23C161.235 311.895 160.87 310.824 160.205 309.988C159.076 308.985 157.025 309.765 156 310.546C156.074 309.68 156.211 308.823 156.411 307.98C156.82 306.753 158.872 306.865 159.692 307.311C161.257 307.226 162.795 307.784 164 308.873Z" fill="#7E74A6"/>
<path d="M172 332.595C171.971 332.324 173.514 332.062 175.447 332.009C177.379 331.957 178.971 332.134 179 332.405C179.029 332.677 177.487 332.939 175.554 332.991C173.621 333.043 172.03 332.866 172 332.595Z" fill="#85C28D"/>
<path d="M246.001 306C239.925 306 235 305.552 235 304.999C235 304.448 239.925 304 246.001 304C252.075 304 257 304.448 257 304.999C257 305.552 252.075 306 246.001 306Z" fill="#508F86"/>
<path d="M128 311.716C127.977 311.468 128.853 311.169 129.957 311.05C131.061 310.929 131.976 311.035 132 311.284C132.023 311.532 131.147 311.831 130.043 311.95C128.939 312.071 128.024 311.965 128 311.716Z" fill="#CFE08B"/>
<path d="M188.987 311.392C189.764 310.475 191.222 311.278 192 312.655L185 313C185.486 311.392 187.236 310.704 188.987 311.392Z" fill="#CFE08B"/>
<path d="M173.14 323.827C170.695 323.141 166.338 324.399 164 326L186 324.169C184.193 322.797 178.667 322.569 173.14 323.827Z" fill="#85C28D"/>
<path d="M251.996 313C252.036 308.955 251.762 304.92 251.18 301C250.774 305.052 251.058 309.219 251.996 313Z" fill="#CFE08B"/>
<path d="M252.001 313C251.977 308.901 252.735 304.821 254.249 300.884C254.812 299.715 255.375 299.291 254.672 302.267C253.968 305.242 252.703 313 252.703 313H252.001Z" fill="#CFE08B"/>
<path d="M218 341.562C212.3 336.938 206.299 336.219 205 343L218 341.562Z" fill="#7E74A6"/>
<path d="M265 302.448C265 294.08 281.926 292.04 288.339 295.101C294.436 291.427 305.474 291.427 306 304.592C292.649 303.878 282.346 304.183 277.405 305C268.05 304.081 265 302.448 265 302.448Z" fill="#629987"/>
<path d="M283 293.117C276.238 292.377 271.347 297.136 270.619 299.145C268.225 298.616 265.417 299.145 265 302C265 295.126 275.509 292.377 283 293.117Z" fill="#BAD17B"/>
<path d="M288.241 303.803C288.021 303.365 287.95 302.873 288.035 302.394C288.122 301.915 288.362 301.473 288.722 301.13C289.083 300.787 289.547 300.558 290.05 300.475C290.553 300.394 291.07 300.461 291.53 300.671C291.212 299.735 291.286 298.718 291.736 297.832C292.661 295.776 296.465 294.993 298.521 297.93C301.092 297.245 301.811 300.475 300.783 301.846C303.148 301.16 303.353 302.824 302.634 304C297.185 303.803 292.353 303.803 288.241 303.803Z" fill="#508F86"/>
<path d="M233 292.058L243 301L253 292.058V271.941L243 263L233 271.941V292.058Z" fill="#A73DB3"/>
<path d="M236 287.811L241 293L246 287.811V276.188L241 271L236 276.188V287.811Z" fill="#CC4CC8"/>
<path d="M241.181 271.038L243 263L233 271.733L235.929 276L241.181 271.038Z" fill="#F275FF"/>
<path d="M233 292.267L235.929 288L241.181 292.962L243 301L233 292.267Z" fill="#772C91"/>
<path d="M242.847 301L241 292.962L246.333 288L253 292.267L242.847 301Z" fill="#8C39A8"/>
<path d="M253 292L246 287.657V276.343L253 272V292Z" fill="#B341BF"/>
<path d="M243.162 288L241 286.286L245 285L243.162 288Z" fill="#D464CE"/>
<path d="M244.269 274C242.114 274.887 240.245 276.419 238.885 278.411L236 280.052V282C237.501 281.254 239.042 280.602 240.615 280.052C241.097 278.411 244.558 275.744 246 275.846L244.269 274Z" fill="#D45AE0"/>
<path d="M239.5 273.078L240 266L237 268.154L238.5 274L239.5 273.078Z" fill="white"/>
<path d="M307.72 311.528C302.93 310.356 297.732 311.267 296 312.96L312 314C312 314 311.898 310.097 307.72 311.528Z" fill="#629987"/>
<defs>
<linearGradient id="paint0_linear_174_690" x1="277.354" y1="196.94" x2="415.311" y2="124.016" gradientUnits="userSpaceOnUse">
<stop offset="0.03" stop-color="white"/>
<stop offset="1" stop-color="#CCBDFF"/>
</linearGradient>
<linearGradient id="paint1_linear_174_690" x1="107.447" y1="236.158" x2="0.00714647" y2="373.32" gradientUnits="userSpaceOnUse">
<stop stop-color="white"/>
<stop offset="1" stop-color="#CCBDFF"/>
</linearGradient>
<linearGradient id="paint2_linear_174_690" x1="356.418" y1="191.182" x2="328.035" y2="216.244" gradientUnits="userSpaceOnUse">
<stop stop-color="#6238EB"/>
<stop offset="1" stop-color="#80FBFF"/>
</linearGradient>
</defs>
</svg>
