<svg width="10800" height="3600" viewBox="0 0 10800 3600" fill="none" xmlns="http://www.w3.org/2000/svg">
<g clip-path="url(#clip0_403_2)">
<rect width="10800" height="3600" fill="url(#paint0_linear_403_2)"/>
<path fill-rule="evenodd" clip-rule="evenodd" d="M10800 3211.6C10371 3179.89 9936.02 3310.72 9414 3629.55C7948.01 2689.16 7332.69 2921.12 5887.3 3810H10800V3211.6ZM5355.52 3810H0V3142C315.202 3031.48 642.143 2994.42 972.6 3084.15C1104.83 3119.86 1244.54 3116.8 1375.08 3075.31C1505.61 3033.82 1621.46 2955.66 1708.8 2850.15C2514.6 1874.55 3043.2 2241.15 4005 3361.35C4361.98 2890.3 4662.84 3135.43 5355.52 3810Z" fill="#5865F2"/>
<path fill-rule="evenodd" clip-rule="evenodd" d="M1800 3600.69L1950 3496.03C2100 3391.38 2400 3182.07 2700 3129.74C3000 3077.42 3300 3182.07 3600 3286.72C3900 3391.38 4200 3496.03 4500 3426.26C4800 3356.49 5100 3112.3 5400 2972.76C5700 2833.22 6000 2798.34 6300 2885.55C6600 2972.76 6900 3182.07 7200 3216.95C7500 3251.84 7800 3112.3 8100 3164.63C8400 3216.95 8700 3461.15 8850 3583.25L9000 3705.34V3810H8850C8700 3810 8400 3810 8100 3810C7800 3810 7500 3810 7200 3810C6900 3810 6600 3810 6300 3810C6000 3810 5700 3810 5400 3810C5100 3810 4800 3810 4500 3810C4200 3810 3900 3810 3600 3810C3300 3810 3000 3810 2700 3810C2400 3810 2100 3810 1950 3810H1800V3600.69Z" fill="url(#paint1_linear_403_2)"/>
<path d="M12228 3600C12025.6 3305.86 11414.8 3173.16 10961.5 3252.78C10739.7 2865.75 10056.2 2651.22 9555.69 3080.27C9103.65 3043.79 8504.97 3179.79 8448 3600H12228Z" fill="#7A73FF"/>
<path d="M10800 3600H7998C8365.85 3426.31 9009.63 3391.26 9321.12 3496.39C9746.84 3278.51 10408.4 3272.41 10800 3600V3600Z" fill="#8088FF"/>
<path d="M2244 3588C2065.7 3293.86 1527.61 3161.16 1128.31 3240.78C932.922 2853.75 330.77 2639.22 -110.173 3068.27C-508.405 3031.79 -1035.81 3167.79 -1086 3588H2244Z" fill="#7A73FF"/>
<path d="M-204 3600H2598C2230.15 3426.31 1586.37 3391.26 1274.88 3496.39C849.156 3278.51 187.604 3272.41 -204 3600V3600Z" fill="#8088FF"/>
<path d="M8033.6 2972.54C8068.15 3116.18 8063.83 3295.97 8063.83 3295.97H8022.81C8029.28 3165.77 8015.25 2981.84 8015.25 2981.84L8033.6 2972.54Z" fill="#824B6F"/>
<path d="M8036.7 3006.69L8103.98 3080.39C8115.68 3038.42 8093.25 3003.63 8047.43 2986.22C8065.95 2982.13 8122.5 2958.58 8122.5 2958.58C8107.39 2949.73 8090.17 2945.61 8072.9 2946.7C8055.62 2947.79 8039 2954.05 8025 2964.73C8008.43 2943.24 7974.3 2912.53 7924.58 2924.81L7990.88 2969.84C7938.23 2964.73 7926.53 2989.29 7908 3015.91L7992.83 3006.69L8007.45 3103.93C8007.45 3103.93 8049.38 3046.62 8036.7 3006.69Z" fill="#85C286"/>
<path fill-rule="evenodd" clip-rule="evenodd" d="M3278 3343.37C3286.9 3335.65 3290.34 3318.7 3285.64 3300.98C3280.32 3280.92 3266.4 3266.87 3253.4 3267.62C3263.45 3285.95 3272.07 3313.5 3278 3343.37Z" fill="#535379"/>
<path d="M3231.75 3245.27C3258.22 3252.14 3281.56 3333.74 3285.86 3403.42L3144 3395.77C3164.67 3311.11 3177.9 3231.48 3231.75 3245.27Z" fill="#6C6C96"/>
<ellipse cx="3219.46" cy="3306.85" rx="33.4286" ry="18.5715" transform="rotate(3.08332 3219.46 3306.85)" fill="#535379"/>
<path d="M5560.22 3090.29C5587.16 3090.41 5618.33 3126.35 5629.45 3158.89L5487.99 3172.1C5500.17 3129.49 5505.47 3090.14 5560.22 3090.29Z" fill="#535379"/>
<path d="M5560.22 3090.29C5587.16 3090.41 5618.34 3126.35 5629.45 3158.89L5487.99 3172.1C5500.17 3129.49 5505.47 3090.14 5560.22 3090.29Z" fill="#6C6C96"/>
<path d="M6543.36 3163.2C6569.79 3168.85 6593.2 3221.67 6597.59 3266.01L6456 3254.26C6476.51 3201.64 6489.61 3151.85 6543.36 3163.2Z" fill="#535379"/>
<path d="M6543.36 3163.2C6569.79 3168.85 6593.2 3221.67 6597.59 3266.01L6456 3254.26C6476.51 3201.64 6489.61 3151.85 6543.36 3163.2Z" fill="#6C6C96"/>
<path d="M7887.09 3435.93L7593.35 3448.08L7586.43 3280.94L7880.18 3268.79L7887.09 3435.93Z" fill="#BACFFF"/>
<path d="M7726.01 3442.59L7593.35 3448.08L7586.42 3280.62L7719.08 3275.14L7726.01 3442.59Z" fill="#C8D9FF"/>
<path d="M7621.77 3446.9L7659.68 3445.33L7656.93 3379.03C7656.69 3373.18 7654.51 3367.63 7650.87 3363.64C7647.23 3359.63 7642.43 3357.49 7637.53 3357.69C7632.62 3357.89 7628.02 3360.43 7624.72 3364.72C7621.43 3369 7619.71 3374.71 7619.95 3380.56L7622.7 3446.86L7621.77 3446.9Z" fill="#827D99"/>
<path d="M7589.28 3349.85L7652.77 3278.34L7586.44 3281.09L7589.28 3349.85Z" fill="#D4E1FF"/>
<path d="M7880.19 3268.94L7586.44 3281.09L7651.56 3219.36L7810.19 3212.79L7880.19 3268.94Z" fill="#23283D"/>
<path d="M7719.1 3275.6L7650.33 3219.41L7586.44 3281.09L7719.1 3275.6Z" fill="#4E4766"/>
<path d="M7776.45 3402.22C7767.41 3402.75 7759.63 3395.61 7759.06 3386.24C7758.5 3376.88 7765.36 3368.86 7774.4 3368.32C7783.44 3367.78 7791.22 3374.93 7791.79 3384.29C7792.35 3393.66 7785.49 3401.68 7776.45 3402.22V3402.22Z" fill="#6BA1D1"/>
<path d="M7839.23 3399.62C7830.19 3400.16 7822.4 3393.01 7821.84 3383.65C7821.27 3374.29 7828.14 3366.26 7837.18 3365.72C7846.21 3365.18 7854 3372.34 7854.57 3381.69C7855.13 3391.06 7848.26 3399.08 7839.23 3399.62Z" fill="#6BA1D1"/>
<path d="M7836.54 3334.72C7827.51 3335.26 7819.72 3328.12 7819.15 3318.75C7818.59 3309.39 7825.46 3301.36 7834.49 3300.82C7843.53 3300.28 7851.32 3307.44 7851.88 3316.8C7852.45 3326.17 7845.58 3334.18 7836.54 3334.72Z" fill="#6BA1D1"/>
<path d="M7773.77 3337.32C7764.73 3337.86 7756.94 3330.71 7756.38 3321.35C7755.81 3311.99 7762.68 3303.96 7771.72 3303.42C7780.75 3302.88 7788.54 3310.04 7789.1 3319.39C7789.67 3328.76 7782.8 3336.78 7773.77 3337.32V3337.32Z" fill="#6BA1D1"/>
<path d="M9293.99 3328.08L9240 3303L9293.99 3277.92L9318.01 3223.56C9318.01 3221.48 9318.01 3221.48 9320 3223.56L9342.01 3277.92H9344L9396 3303L9344 3328.08H9342.01L9320 3382.43C9318.01 3384.52 9318.01 3384.52 9318.01 3382.43L9293.99 3328.08Z" fill="#FFF5CF"/>
<path d="M10367.1 3074.51L10340.7 3021.15L10398.5 3035.41L10451.3 3008.07C10452.6 3006.44 10452.6 3006.44 10452.8 3009.31L10436 3065.47L10437.5 3066.72L10462.4 3118.84L10406.1 3105.83L10404.6 3104.58L10353.4 3133.18C10350.5 3133.56 10350.5 3133.56 10351.8 3131.94L10367.1 3074.51Z" fill="#FDE37E"/>
<path d="M423.579 3058.12L452.725 3006.21L473.591 3061.97L525.944 3090.08C528.024 3090.24 528.024 3090.24 525.792 3092.07L469.908 3109.84L469.756 3111.83L440.762 3161.75L419.744 3107.98L419.897 3106L367.388 3079.89C365.461 3077.74 365.461 3077.74 367.541 3077.9L423.579 3058.12Z" fill="#FFF4CC"/>
<path d="M7399.2 984.6C7383.3 974.31 7369.8 960.744 7359.54 944.808C7349.28 928.878 7342.56 910.938 7339.8 892.2L7330.2 827.4C7329.84 825.918 7329 824.592 7327.8 823.62C7326.6 822.648 7325.1 822.078 7323.6 822C7322.04 821.976 7320.54 822.504 7319.28 823.494C7318.08 824.478 7317.3 825.864 7317 827.4L7307.4 892.2C7304.52 910.98 7297.68 928.932 7287.36 944.862C7276.98 960.792 7263.36 974.34 7247.4 984.6L7239 990C7238.1 990.624 7237.38 991.428 7236.9 992.364C7236.36 993.294 7236.06 994.332 7236 995.4C7236 996.48 7236.3 997.53 7236.84 998.472C7237.32 999.414 7238.1 1000.21 7239 1000.8L7247.4 1006.2C7263.42 1016.59 7277.04 1030.24 7287.36 1046.27C7297.68 1062.3 7304.52 1080.34 7307.4 1099.2L7317 1164C7317.3 1165.54 7318.08 1166.92 7319.28 1167.91C7320.54 1168.9 7322.04 1169.42 7323.6 1169.4C7325.1 1169.32 7326.6 1168.75 7327.8 1167.79C7329 1166.81 7329.84 1165.49 7330.2 1164L7339.8 1099.2C7342.56 1080.38 7349.28 1062.35 7359.54 1046.32C7369.74 1030.29 7383.3 1016.62 7399.2 1006.2L7408.2 1000.8C7409.04 1000.18 7409.7 999.366 7410.12 998.418C7410.54 997.47 7410.72 996.432 7410.6 995.4C7410.66 994.374 7410.48 993.354 7410.06 992.418C7409.64 991.482 7408.98 990.654 7408.2 990L7399.2 984.6Z" fill="#AFD7FF"/>
<path d="M10348.2 2382.6C10335.3 2374.23 10324.4 2363.21 10316.1 2350.28C10307.8 2337.34 10302.4 2322.8 10300.2 2307.6L10291.8 2255.4C10291.8 2254.13 10291.3 2252.9 10290.4 2252C10289.5 2251.1 10288.3 2250.6 10287 2250.6C10285.7 2250.59 10284.4 2251.08 10283.4 2251.96C10282.4 2252.85 10281.7 2254.07 10281.6 2255.4L10273.8 2307.6C10271.5 2322.83 10265.9 2337.4 10257.6 2350.33C10249.2 2363.26 10238.2 2374.26 10225.2 2382.6L10218.6 2386.8C10217.9 2387.3 10217.3 2387.93 10217 2388.65C10216.6 2389.37 10216.3 2390.17 10216.2 2391C10216.2 2391.85 10216.4 2392.68 10216.9 2393.42C10217.3 2394.16 10217.9 2394.77 10218.6 2395.2L10225.2 2399.4C10238.1 2407.79 10249.1 2418.81 10257.5 2431.73C10265.8 2444.65 10271.4 2459.19 10273.8 2474.4L10281.6 2526.6C10281.7 2527.92 10282.4 2529.15 10283.4 2530.04C10284.4 2530.92 10285.7 2531.41 10287 2531.4C10288.3 2531.4 10289.5 2530.89 10290.4 2529.99C10291.3 2529.09 10291.8 2527.87 10291.8 2526.6L10300.2 2474.4C10302.5 2459.23 10307.9 2444.7 10316.2 2431.79C10324.5 2418.86 10335.4 2407.83 10348.2 2399.4L10354.8 2395.2C10355.6 2394.83 10356.2 2394.23 10356.7 2393.48C10357.1 2392.73 10357.3 2391.86 10357.2 2391C10357.2 2390.15 10357 2389.31 10356.5 2388.57C10356.1 2387.84 10355.5 2387.22 10354.8 2386.8L10348.2 2382.6Z" fill="#404EED"/>
<path d="M825.001 1577.4C815.587 1571.51 807.595 1563.61 801.577 1554.28C795.565 1544.95 791.677 1534.4 790.201 1523.4L784.201 1485C784.057 1484.15 783.613 1483.39 782.953 1482.83C782.293 1482.28 781.459 1481.99 780.601 1482C779.737 1481.99 778.903 1482.28 778.243 1482.83C777.583 1483.39 777.139 1484.15 777.001 1485L771.001 1523.4C769.405 1534.37 765.469 1544.87 759.463 1554.18C753.463 1563.5 745.525 1571.42 736.201 1577.4L731.401 1580.4C730.825 1580.65 730.339 1581.07 730.015 1581.61C729.691 1582.15 729.547 1582.78 729.601 1583.4C729.547 1584.02 729.691 1584.65 730.015 1585.19C730.339 1585.73 730.825 1586.15 731.401 1586.4L736.201 1589.4C745.495 1595.57 753.391 1603.61 759.385 1613.02C765.379 1622.42 769.333 1632.97 771.001 1644L777.001 1681.8C777.139 1682.65 777.583 1683.41 778.243 1683.97C778.903 1684.52 779.737 1684.81 780.601 1684.8C781.459 1684.81 782.293 1684.52 782.953 1683.97C783.613 1683.41 784.057 1682.65 784.201 1681.8L790.201 1644C791.749 1632.94 795.661 1622.34 801.667 1612.92C807.667 1603.5 815.629 1595.48 825.001 1589.4L829.801 1586.4C830.377 1586.15 830.857 1585.73 831.181 1585.19C831.505 1584.65 831.649 1584.02 831.601 1583.4C831.649 1582.78 831.505 1582.15 831.181 1581.61C830.857 1581.07 830.377 1580.65 829.801 1580.4L825.001 1577.4Z" fill="#91FFAD"/>
<path d="M2598 1253.35C2597.16 1201.26 2578.26 1151.08 2544.54 1111.36C2510.82 1071.65 2464.38 1044.87 2413.08 1035.6C2361.84 1026.32 2308.92 1035.12 2263.44 1060.5C2217.96 1085.88 2182.62 1126.26 2163.6 1174.75C2146.86 1171.12 2129.76 1169.31 2112.6 1169.35C2078.16 1169.25 2044.14 1176.72 2012.94 1191.24C1981.74 1205.76 1954.08 1226.96 1932 1253.35H2598Z" fill="#CDD1FF" fill-opacity="0.5"/>
<path d="M10239.6 1623C10254.7 1623.16 10269.6 1619.99 10283.3 1613.71C10297 1607.42 10309.1 1598.18 10318.8 1586.65C10328.5 1575.12 10335.5 1561.58 10339.3 1547.02C10343.2 1532.45 10343.8 1517.21 10341 1502.4C10312.3 1347.34 10233.8 1205.84 10117.6 1099.28C10001.3 992.724 9853.5 926.886 9696.54 911.712C9539.52 896.532 9381.9 932.844 9247.38 1015.16C9112.86 1097.47 9008.76 1221.32 8950.8 1368C8897.16 1356.43 8842.44 1350.59 8787.6 1350.6C8682.18 1350.43 8577.84 1372.27 8481.36 1414.73C8384.88 1457.2 8298.3 1519.34 8227.2 1597.2C8225.28 1599.44 8224.02 1602.17 8223.6 1605.1C8223.12 1608.02 8223.54 1611.01 8224.74 1613.71C8225.94 1616.41 8227.86 1618.72 8230.32 1620.37C8232.78 1622.01 8235.66 1622.92 8238.6 1623H10239.6Z" fill="#CDD1FF" fill-opacity="0.5"/>
<path d="M5860.11 2825.46C5826.27 2938.87 5817.23 3086.37 5817.23 3086.37L5845.79 3090.22C5850.76 2983.32 5872.35 2832.99 5872.35 2832.99L5860.11 2825.46Z" fill="#824B6F"/>
<path d="M5843.93 2849.17L5805.75 2912.07C5783.76 2875.92 5792.44 2846.07 5829.27 2831.91C5811.6 2828.54 5754.87 2809.02 5754.87 2809.02C5776.42 2795.35 5806.68 2792.96 5843.71 2814C5851.67 2794.58 5873.64 2769.1 5921.99 2778.77L5875.22 2817.18C5920.44 2812.89 5937.49 2834.01 5962.5 2856.27L5883.91 2848.99L5898.05 2932.42C5898.05 2932.42 5845.31 2882.62 5843.93 2849.17V2849.17Z" fill="#58A67E"/>
<path d="M9001.78 284.624L9040.92 229H9008.3L8981.88 268.47L8956.6 229H8924.3L8962.8 284.624L8923 345.577H8954.8L8981.88 302.277L9008.79 345.577H9041.9L9001.78 284.624Z" fill="white"/>
<path d="M10583 283.091C10583 260.038 10569.2 244.252 10537.6 244.252C10506.9 244.252 10489.1 260.539 10489.1 283.592C10489.1 307.772 10508.4 324.561 10542.3 324.561C10558 324.561 10572.1 320.802 10580.5 315.916V292.237C10573.5 296.121 10564.9 298.752 10553.6 298.752C10539.3 298.752 10531 295.369 10527.1 289.856H10583V283.091ZM10539.6 267.681C10547.6 267.681 10552.1 271.189 10553.1 276.827H10525.8C10526.9 271.189 10531.7 267.681 10539.6 267.681Z" fill="white"/>
<path d="M10481.1 321.805V231.598H10442V321.805H10481.1Z" fill="white"/>
<path d="M10398.9 244.252C10381.8 244.252 10371.1 251.769 10366.9 266.804V247.635H10327.7V343.98H10366.9V305.642C10372.4 319.048 10383.3 324.561 10398.1 324.561C10419.9 324.561 10433.8 308.274 10433.8 284.344C10433.8 261.667 10420.9 244.252 10398.9 244.252ZM10379.7 297.373C10371.5 297.373 10366.8 292.237 10366.8 284.469C10366.8 276.827 10371.6 271.565 10379.8 271.565C10387.8 271.565 10393.1 276.701 10393.1 284.344C10393.1 292.111 10387.8 297.373 10379.7 297.373Z" fill="white"/>
<path d="M10308.4 245.63C10294.5 245.63 10286.8 253.524 10283.2 271.815V247.635H10245V321.805H10284.1V304.891C10284.1 286.474 10292.7 279.207 10307.2 279.207C10313.6 279.207 10318.4 280.711 10320.8 282.089V248.387C10318.5 247.259 10313.9 245.63 10308.4 245.63Z" fill="white"/>
<path d="M10194.8 283.968C10194.8 293.114 10191.2 297.875 10183.6 297.875C10175.9 297.875 10173.2 293.114 10173.2 284.218V247.635H10134V292.863C10134 313.035 10144.3 324.436 10164.5 324.436C10180.1 324.436 10190.2 317.294 10194.8 304.64V321.805H10233.8V247.635H10194.8V283.968Z" fill="white"/>
<path d="M10123.5 321.805V231.598H10084.4V321.805H10123.5Z" fill="white"/>
<path d="M10056.8 273.194C10067.4 270.939 10072.4 264.925 10072.4 256.405C10072.4 243.626 10060.7 234.104 10036 234.104H9971.96V321.805H10034C10063.9 321.805 10076.2 310.404 10076.2 294.492C10076.2 283.718 10070.4 275.825 10056.8 273.194ZM10024.2 256.405C10029.8 256.405 10032.5 258.661 10032.5 263.045C10032.5 267.055 10029.7 269.435 10024.2 269.435H10010.9V256.405H10024.2ZM10010.9 299.755V284.846H10025.4C10032.2 284.846 10035.4 287.602 10035.4 291.987C10035.4 296.873 10032 299.755 10024.6 299.755H10010.9Z" fill="white"/>
<path d="M9911.69 247.635V230.846L9872.52 235.607V247.635H9852.18V273.82H9872.52V321.805H9911.69V273.82H9933.4V247.635H9911.69Z" fill="white"/>
<path d="M9812.21 324.561C9825.52 324.561 9837.57 321.804 9846.86 316.918V292.237C9841.46 294.743 9833.68 297.123 9825.14 297.123C9809.2 297.123 9802.3 291.235 9802.3 284.344C9802.3 277.077 9810.33 271.815 9825.27 271.815C9834.06 271.815 9841.84 274.321 9846.74 277.077V251.644C9838.95 247.384 9828.16 244.252 9812.72 244.252C9778.57 244.252 9760.99 261.541 9760.99 283.968C9760.99 306.269 9777.56 324.561 9812.21 324.561Z" fill="white"/>
<path d="M9755.72 283.091C9755.72 260.038 9741.91 244.252 9710.27 244.252C9679.64 244.252 9661.82 260.539 9661.82 283.592C9661.82 307.772 9681.15 324.561 9715.04 324.561C9730.74 324.561 9744.8 320.802 9753.21 315.916V292.237C9746.18 296.121 9737.64 298.752 9726.34 298.752C9712.03 298.752 9703.74 295.369 9699.85 289.856H9755.72V283.091ZM9712.28 267.681C9720.31 267.681 9724.84 271.189 9725.84 276.827H9698.47C9699.6 271.189 9704.37 267.681 9712.28 267.681Z" fill="white"/>
<path d="M9634.67 253.022C9646.84 253.022 9655.51 247.259 9655.51 239.366C9655.51 231.348 9646.84 225.584 9634.67 225.584C9622.11 225.584 9613.2 231.348 9613.2 239.366C9613.2 247.259 9622.11 253.022 9634.67 253.022ZM9618.6 348.115C9641.95 348.115 9653.88 338.343 9653.88 320.552V256.405H9614.83V318.046C9614.83 323.434 9612.07 325.814 9607.05 325.814C9604.41 325.814 9602.53 325.188 9600.77 324.31C9599.02 323.434 9600.77 344.858 9600.77 344.858C9604.29 346.612 9610.82 348.115 9618.6 348.115Z" fill="white"/>
<path d="M9553.81 324.561C9587.7 324.561 9606.03 306.52 9606.03 283.592C9606.03 260.665 9587.58 244.252 9553.81 244.252C9519.79 244.252 9501.46 260.79 9501.46 283.592C9501.46 306.394 9519.79 324.561 9553.81 324.561ZM9553.81 297.875C9545.27 297.875 9540.38 292.738 9540.38 284.344C9540.38 276.075 9545.27 271.063 9553.81 271.063C9562.09 271.063 9566.99 276.075 9566.99 284.344C9566.99 292.738 9562.09 297.875 9553.81 297.875Z" fill="white"/>
<path d="M9485.73 245.63C9471.92 245.63 9464.14 253.524 9460.62 271.815V247.635H9422.33V321.805H9461.5V304.891C9461.5 286.474 9470.04 279.207 9484.6 279.207C9491 279.207 9495.78 280.711 9498.16 282.089V248.387C9495.9 247.259 9491.25 245.63 9485.73 245.63Z" fill="white"/>
<path d="M9308.35 233.979V321.805H9348.14V301.258H9371.12C9400.11 301.258 9415.3 287.1 9415.3 267.681C9415.3 247.635 9402.5 233.979 9376.89 233.979H9308.35ZM9348.14 279.583V258.911H9361.7C9369.99 258.911 9374.5 262.795 9374.5 269.184C9374.5 275.574 9369.61 279.583 9359.94 279.583H9348.14Z" fill="white"/>
<path d="M9239.84 265.269H9229.6C9221.17 265.269 9214.35 259.247 9214.35 251.833L9220.84 172.237C9220.84 167.022 9209.56 159 9203.63 159H9187.6C9181.69 159 9170.39 166.942 9170.39 172.237L9176.88 251.833C9176.88 259.247 9170.06 265.269 9161.63 265.269H9151.39C9144.02 265.269 9138.05 270.564 9138.05 276.984V294.59C9138.19 296.218 9139.57 297.438 9141.17 297.33H9250.08C9251.68 297.444 9253.08 296.22 9253.2 294.59V277.037C9253.18 270.524 9247.21 265.269 9239.84 265.269ZM9202.38 183.9C9202.21 186.423 9200.05 188.323 9197.57 188.149H9193.68C9191.2 188.316 9189.06 186.42 9188.85 183.9V174.964C9189.06 172.455 9191.2 170.574 9193.68 170.741H9197.57C9200.05 170.567 9202.19 172.451 9202.38 174.964V183.9Z" fill="white"/>
<path d="M9256.86 352.592V399.562C9256.86 408.089 9250.08 415 9241.71 415H9150.15C9146.12 415 9142.28 413.374 9139.44 410.477C9136.6 407.582 9135 403.655 9135 399.562V367.949V336.031C9135 327.755 9141.6 321.043 9149.71 321.043H9151.85C9159.98 321.043 9166.56 327.755 9166.56 336.031V362.245C9166.58 365.392 9169.07 367.943 9172.16 367.949C9175.25 367.949 9177.76 365.396 9177.76 362.245V327.832C9177.76 319.559 9184.34 312.851 9192.48 312.843H9198.53C9202.44 312.843 9206.19 314.422 9208.95 317.234C9211.71 320.044 9213.25 323.857 9213.25 327.832V360.713C9213.25 362.632 9214.01 364.473 9215.34 365.83C9216.67 367.188 9218.47 367.949 9220.36 367.949C9224.28 367.943 9227.46 364.707 9227.46 360.713V352.948C9227.4 344.982 9233.35 338.307 9241.15 337.643C9245.22 337.358 9249.22 338.804 9252.19 341.639C9255.18 344.471 9256.86 348.438 9256.86 352.592Z" fill="white"/>
<path d="M7170.36 329.943C7170.36 310.536 7154.89 294.804 7135.81 294.804C7124.23 294.804 7114.02 300.619 7107.75 309.507C7101.48 300.619 7091.26 294.804 7079.68 294.804C7060.6 294.804 7045.13 310.532 7045.13 329.943C7045.13 332.692 7045.48 335.356 7046.07 337.923C7050.86 368.238 7084 400.219 7107.75 409C7131.49 400.219 7164.63 368.238 7169.42 337.927C7170.01 335.359 7170.36 332.696 7170.36 329.943Z" fill="white"/>
<path fill-rule="evenodd" clip-rule="evenodd" d="M7183.12 199.152C7169.25 192.602 7154.39 187.776 7138.85 185.012C7138.56 184.958 7138.28 185.092 7138.13 185.358C7136.22 188.86 7134.1 193.428 7132.62 197.019C7115.9 194.441 7099.27 194.441 7082.9 197.019C7081.42 193.348 7079.22 188.86 7077.3 185.358C7077.16 185.1 7076.87 184.967 7076.59 185.012C7061.06 187.767 7046.19 192.593 7032.32 199.152C7032.2 199.205 7032.1 199.294 7032.03 199.41C7003.83 242.79 6996.11 285.105 6999.9 326.895C6999.92 327.099 7000.03 327.295 7000.18 327.419C7015.04 338.657 7029.53 346.368 7043.77 351.902C7042.02 347.386 7040.71 342.784 7039.96 338.157C7039.3 335.19 7038.91 332.056 7038.91 328.779C7038.91 305.349 7057.45 286.345 7080.35 286.345C7091.04 286.345 7100.75 290.503 7108.08 297.28C7115.41 290.503 7125.12 286.345 7135.81 286.345C7158.7 286.345 7177.25 305.354 7177.25 328.779C7177.25 332.056 7176.85 335.193 7176.19 338.169C7175.46 342.675 7174.2 347.158 7172.51 351.561C7186.52 346.052 7200.71 338.428 7215.27 327.419C7215.43 327.295 7215.54 327.108 7215.55 326.904C7220.09 278.59 7207.96 236.623 7183.4 199.419C7183.34 199.294 7183.24 199.205 7183.12 199.152ZM7141.04 270.701C7149.28 270.701 7156.97 273.115 7163.47 277.288C7162.9 265.658 7154.45 256.3 7143.95 256.3C7134.52 256.3 7126.77 263.889 7124.85 273.998C7129.83 271.875 7135.3 270.701 7141.04 270.701ZM7072.46 270.701C7079.12 270.701 7085.4 272.281 7090.99 275.09C7089.55 264.501 7081.51 256.3 7071.68 256.3C7061.66 256.3 7053.53 264.873 7052.3 275.932C7058.29 272.596 7065.16 270.701 7072.46 270.701Z" fill="white"/>
<path d="M7371.36 250.224H7268.7V280.802H7299.81V340.922H7340.9V280.802H7371.36V250.224Z" fill="white"/>
<path d="M7450.73 260.719C7434.27 260.719 7424.55 267.975 7419.23 283.523V247.632H7378.79V340.922H7419.23V305.55C7419.23 295.832 7422.99 290.908 7431.03 290.908C7438.68 290.908 7441.92 296.221 7441.92 305.29V340.922H7482.36V297.516C7482.36 273.028 7471.47 260.719 7450.73 260.719Z" fill="white"/>
<path d="M7533.93 260.719C7515.91 260.719 7502.43 265.254 7493.1 271.214V297.905C7499.97 292.463 7510.34 288.835 7520.06 288.835C7533.93 288.835 7543.39 294.666 7544.94 305.938C7538.85 298.812 7530.95 295.314 7519.54 295.314C7501.78 295.314 7489.73 305.161 7489.73 319.673C7489.73 333.407 7500.1 343.513 7517.34 343.513C7530.56 343.513 7540.02 338.201 7545.33 330.168V340.922H7584.35V305.161C7584.35 276.397 7567.11 260.719 7533.93 260.719ZM7534.83 324.855C7529.13 324.855 7525.5 321.875 7525.5 317.47C7525.5 313.194 7529.13 310.084 7534.96 310.084C7541.18 310.084 7545.33 313.065 7545.33 317.47C7545.33 321.746 7541.06 324.855 7534.83 324.855Z" fill="white"/>
<path d="M7666.42 260.719C7649.31 260.719 7639.72 268.493 7634.41 285.078V264.217H7594.48V340.922H7634.92V305.55C7634.92 295.832 7638.68 290.908 7646.72 290.908C7654.37 290.908 7657.61 296.221 7657.61 305.29V340.922H7698.05V297.516C7698.05 273.028 7687.16 260.719 7666.42 260.719Z" fill="white"/>
<path d="M7789.28 296.35L7812.61 264.217H7768.67L7749.1 292.981V247.632H7708.66V340.922H7749.1V300.237L7769.58 340.922H7814.29L7789.28 296.35Z" fill="white"/>
<path d="M7872.26 279.895L7855.67 250.224H7809.01L7850.1 313.842V340.922H7894.81V313.842L7935.77 250.224H7889.11L7872.26 279.895Z" fill="white"/>
<path d="M7974.02 343.772C8009.01 343.772 8027.94 325.114 8027.94 301.403C8027.94 277.692 8008.88 260.719 7974.02 260.719C7938.89 260.719 7919.97 277.822 7919.97 301.403C7919.97 324.985 7938.89 343.772 7974.02 343.772ZM7974.02 316.174C7965.2 316.174 7960.15 310.862 7960.15 302.181C7960.15 293.629 7965.2 288.446 7974.02 288.446C7982.57 288.446 7987.63 293.629 7987.63 302.181C7987.63 310.862 7982.57 316.174 7974.02 316.174Z" fill="white"/>
<path d="M8098.07 301.792C8098.07 311.251 8094.44 316.174 8086.54 316.174C8078.63 316.174 8075.78 311.251 8075.78 302.051V264.217H8035.34V310.991C8035.34 331.852 8045.97 343.643 8066.84 343.643C8082.91 343.643 8093.41 336.257 8098.07 323.171V340.922H8138.38V264.217H8098.07V301.792Z" fill="white"/>
<path d="M8202.28 340.922C8247.13 340.922 8265.79 318.766 8265.79 294.925C8265.79 269.4 8246.22 250.224 8206.04 250.224H8150.69V340.922H8202.28ZM8191.78 276.526H8203.19C8216.02 276.526 8221.72 284.559 8221.72 294.925C8221.72 306.716 8214.98 314.619 8201.5 314.619H8191.78V276.526Z" fill="white"/>
<path d="M8294.69 269.789C8307.39 269.789 8316.2 263.828 8316.2 255.536C8316.2 247.373 8307.39 241.413 8294.69 241.413C8281.72 241.413 8272.65 247.373 8272.65 255.536C8272.65 263.828 8281.72 269.789 8294.69 269.789ZM8314.65 340.922V273.417H8274.21V340.922H8314.65Z" fill="white"/>
<path d="M8369.66 343.513C8398.95 343.513 8413.85 332.759 8413.85 317.081C8413.85 301.144 8404.13 295.184 8385.86 292.981L8373.8 291.297C8368.49 290.52 8366.54 289.613 8366.54 287.669C8366.54 285.596 8369.14 284.171 8377.43 284.171C8389.1 284.171 8401.02 287.28 8409.45 291.427V268.752C8401.41 264.347 8387.15 260.589 8370.17 260.589C8342.7 260.589 8325.07 270.825 8325.07 287.021C8325.07 298.553 8331.68 305.938 8351.9 309.825L8364.73 312.417C8370.82 313.583 8371.86 315.008 8371.86 316.822C8371.86 318.636 8369.66 320.061 8364.73 320.061C8351.25 320.061 8332.71 315.138 8324.16 308.27V332.37C8336.47 339.497 8352.81 343.513 8369.66 343.513Z" fill="white"/>
<path d="M8471.69 343.772C8485.43 343.772 8497.88 340.922 8507.47 335.869V310.344C8501.89 312.935 8493.86 315.397 8485.04 315.397C8468.58 315.397 8461.45 309.307 8461.45 302.181C8461.45 294.666 8469.75 289.224 8485.17 289.224C8494.25 289.224 8502.28 291.815 8507.34 294.666V268.363C8499.3 263.958 8488.15 260.719 8472.21 260.719C8436.96 260.719 8418.81 278.599 8418.81 301.792C8418.81 324.855 8435.92 343.772 8471.69 343.772Z" fill="white"/>
<path d="M8567.92 343.772C8602.92 343.772 8621.84 325.114 8621.84 301.403C8621.84 277.692 8602.79 260.719 8567.92 260.719C8532.79 260.719 8513.87 277.822 8513.87 301.403C8513.87 324.985 8532.79 343.772 8567.92 343.772ZM8567.92 316.174C8559.11 316.174 8554.05 310.862 8554.05 302.181C8554.05 293.629 8559.11 288.446 8567.92 288.446C8576.47 288.446 8581.53 293.629 8581.53 302.181C8581.53 310.862 8576.47 316.174 8567.92 316.174Z" fill="white"/>
<path d="M8695.35 262.144C8681.09 262.144 8673.05 270.307 8669.42 289.224V264.217H8629.89V340.922H8670.33V323.43C8670.33 304.383 8679.15 296.868 8694.18 296.868C8700.79 296.868 8705.72 298.423 8708.18 299.849V264.995C8705.85 263.828 8701.05 262.144 8695.35 262.144Z" fill="white"/>
<path d="M8781.06 283.652C8776.26 267.975 8766.28 260.719 8749.69 260.719C8726.49 260.719 8711.97 278.858 8711.97 302.051C8711.97 326.41 8725.06 343.772 8747.62 343.772C8764.6 343.772 8776 336.905 8781.06 320.839V340.922H8821.5V247.632H8781.06V283.652ZM8767.58 315.656C8759.28 315.656 8753.84 310.344 8753.84 302.181C8753.84 294.148 8759.28 288.965 8767.71 288.965C8776.13 288.965 8781.19 294.148 8781.19 302.051C8781.19 310.084 8776 315.656 8767.58 315.656Z" fill="white"/>
</g>
<defs>
<linearGradient id="paint0_linear_403_2" x1="5400" y1="0" x2="5400" y2="5484" gradientUnits="userSpaceOnUse">
<stop stop-color="#5865F2"/>
<stop offset="1" stop-color="#B2ADFF"/>
</linearGradient>
<linearGradient id="paint1_linear_403_2" x1="5400" y1="2838" x2="5400" y2="5295" gradientUnits="userSpaceOnUse">
<stop stop-color="#85C28D"/>
<stop offset="1" stop-color="#2FB67E"/>
</linearGradient>
<clipPath id="clip0_403_2">
<rect width="10800" height="3600" fill="white"/>
</clipPath>
</defs>
</svg>
