<svg width="1800" height="600" viewBox="0 0 1800 600" fill="none" xmlns="http://www.w3.org/2000/svg">
<g clip-path="url(#clip0_174_2)">
<path fill-rule="evenodd" clip-rule="evenodd" d="M1800 535.266C1728.5 529.982 1656 551.787 1569 604.924C1324.67 448.194 1222.12 486.854 981.217 635H1800V535.266ZM892.587 635H0V523.667C52.5337 505.247 107.024 499.07 162.1 514.024C184.138 519.977 207.424 519.466 229.18 512.551C250.935 505.636 270.243 492.609 284.8 475.024C419.1 312.424 507.2 373.524 667.5 560.224C726.997 481.717 777.14 522.572 892.587 635Z" fill="#5865F2"/>
<path fill-rule="evenodd" clip-rule="evenodd" d="M300 600.115L325 582.673C350 565.23 400 530.345 450 521.624C500 512.903 550 530.345 600 547.788C650 565.23 700 582.673 750 571.044C800 559.416 850 518.717 900 495.46C950 472.203 1000 466.389 1050 480.925C1100 495.46 1150 530.345 1200 536.159C1250 541.973 1300 518.717 1350 527.438C1400 536.159 1450 576.858 1475 597.208L1500 617.558V635H1475C1450 635 1400 635 1350 635C1300 635 1250 635 1200 635C1150 635 1100 635 1050 635C1000 635 950 635 900 635C850 635 800 635 750 635C700 635 650 635 600 635C550 635 500 635 450 635C400 635 350 635 325 635H300V600.115Z" fill="url(#paint0_linear_174_2)"/>
<path d="M2038 600C2004.27 550.977 1902.47 528.86 1826.92 542.13C1789.96 477.624 1676.04 441.87 1592.62 513.378C1517.27 507.298 1417.49 529.965 1408 600H2038Z" fill="#7A73FF"/>
<path d="M1800 600H1333C1394.31 571.052 1501.6 565.21 1553.52 582.731C1624.47 546.419 1734.73 545.402 1800 600Z" fill="#8088FF"/>
<path d="M374 598C344.283 548.977 254.602 526.86 188.051 540.13C155.487 475.624 55.1283 439.87 -18.3621 511.378C-84.7342 505.298 -172.636 527.965 -181 598H374Z" fill="#7A73FF"/>
<path d="M-34 600H433C371.691 571.052 264.395 565.21 212.48 582.731C141.526 546.419 31.2673 545.402 -34 600Z" fill="#8088FF"/>
<path d="M1338.93 495.423C1344.69 519.363 1343.97 549.328 1343.97 549.328H1337.13C1338.21 527.628 1335.88 496.973 1335.88 496.973L1338.93 495.423Z" fill="#824B6F"/>
<path d="M1339.45 501.115L1350.66 513.399C1352.61 506.404 1348.87 500.604 1341.24 497.703C1344.32 497.022 1353.75 493.097 1353.75 493.097C1351.23 491.622 1348.36 490.935 1345.48 491.117C1342.6 491.298 1339.83 492.341 1337.5 494.122C1334.74 490.54 1329.05 485.421 1320.76 487.468L1331.81 494.973C1323.04 494.122 1321.09 498.215 1318 502.651L1332.14 501.115L1334.57 517.322C1334.57 517.322 1341.56 507.77 1339.45 501.115Z" fill="#85C286"/>
<path fill-rule="evenodd" clip-rule="evenodd" d="M546.334 557.228C547.816 555.942 548.39 553.116 547.607 550.164C546.72 546.819 544.4 544.478 542.233 544.603C543.908 547.659 545.345 552.25 546.334 557.228Z" fill="#535379"/>
<path d="M538.625 540.878C543.037 542.024 546.928 555.624 547.644 567.236L524 565.962C527.445 551.852 529.651 538.58 538.625 540.878Z" fill="#6C6C96"/>
<ellipse cx="536.577" cy="551.141" rx="5.57143" ry="3.09524" transform="rotate(3.08332 536.577 551.141)" fill="#535379"/>
<path d="M1314.52 572.655L1265.56 574.68L1264.41 546.823L1313.36 544.798L1314.52 572.655Z" fill="#BACFFF"/>
<path d="M1287.67 573.765L1265.56 574.68L1264.4 546.771L1286.51 545.856L1287.67 573.765Z" fill="#C8D9FF"/>
<path d="M1270.3 574.484L1276.61 574.222L1276.16 563.172C1276.12 562.196 1275.75 561.271 1275.15 560.606C1274.54 559.939 1273.74 559.582 1272.92 559.615C1272.1 559.649 1271.34 560.071 1270.79 560.786C1270.24 561.499 1269.95 562.451 1269.99 563.427L1270.45 574.477L1270.3 574.484Z" fill="#827D99"/>
<path d="M1264.88 558.308L1275.46 546.391L1264.41 546.848L1264.88 558.308Z" fill="#D4E1FF"/>
<path d="M1313.36 544.823L1264.41 546.848L1275.26 536.559L1301.7 535.466L1313.36 544.823Z" fill="#23283D"/>
<path d="M1286.52 545.933L1275.06 536.568L1264.41 546.848L1286.52 545.933Z" fill="#4E4766"/>
<path d="M1296.02 567.084C1294.49 567.147 1293.19 565.914 1293.13 564.326C1293.06 562.74 1294.25 561.402 1295.79 561.338C1297.32 561.275 1298.62 562.51 1298.68 564.096C1298.75 565.684 1297.56 567.02 1296.02 567.084Z" fill="#6BA1D1"/>
<path d="M1306.49 566.651C1304.95 566.714 1303.65 565.481 1303.59 563.893C1303.52 562.307 1304.71 560.969 1306.25 560.906C1307.78 560.842 1309.08 562.077 1309.15 563.663C1309.21 565.251 1308.02 566.588 1306.49 566.651Z" fill="#6BA1D1"/>
<path d="M1306.04 555.835C1304.5 555.898 1303.21 554.665 1303.14 553.077C1303.07 551.491 1304.27 550.153 1305.8 550.09C1307.34 550.026 1308.63 551.261 1308.7 552.847C1308.76 554.435 1307.57 555.771 1306.04 555.835Z" fill="#6BA1D1"/>
<path d="M1295.58 556.268C1294.04 556.331 1292.74 555.098 1292.68 553.51C1292.61 551.924 1293.8 550.586 1295.34 550.522C1296.87 550.459 1298.17 551.694 1298.24 553.28C1298.3 554.868 1297.11 556.204 1295.58 556.268Z" fill="#6BA1D1"/>
<path d="M830.157 532.446L836.147 532.112L837.133 549.796C837.225 551.45 835.959 552.866 834.305 552.958C832.65 553.05 831.235 551.784 831.142 550.13L830.157 532.446Z" fill="#9A9A9A"/>
<path d="M878.083 529.774L884.073 529.44L884.946 545.092C885.038 546.746 883.771 548.162 882.117 548.254C880.463 548.347 879.047 547.08 878.955 545.426L878.083 529.774Z" fill="#9A9A9A"/>
<rect x="819" y="494.007" width="72" height="39" rx="1" transform="rotate(-3.19008 819 494.007)" fill="#C4C4C4"/>
<rect x="821.109" y="495.892" width="68" height="35" rx="1" transform="rotate(-3.19008 821.109 495.892)" fill="#FFFCF5"/>
<path d="M870.046 505.179C869.802 500.662 865.947 497.198 861.437 497.442C858.7 497.591 856.357 499.075 854.987 501.224C853.393 499.235 850.904 498.013 848.167 498.161C843.656 498.405 840.198 502.264 840.443 506.782C840.478 507.422 840.592 508.037 840.764 508.628C842.28 515.622 850.516 522.641 856.241 524.381C861.744 522.033 869.175 514.165 869.925 507.049C870.034 506.444 870.081 505.819 870.046 505.179Z" fill="#EB459F"/>
<path d="M1549 554.68L1540 550.5L1549 546.32L1553 537.261C1553 536.913 1553 536.913 1553.33 537.261L1557 546.32H1557.33L1566 550.5L1557.33 554.68H1557L1553.33 563.739C1553 564.087 1553 564.087 1553 563.739L1549 554.68Z" fill="#FFF5CF"/>
<path d="M1727.85 512.419L1723.45 503.526L1733.09 505.901L1741.88 501.345C1742.1 501.073 1742.1 501.073 1742.14 501.552L1739.33 510.912L1739.59 511.12L1743.73 519.806L1734.35 517.638L1734.09 517.431L1725.56 522.197C1725.08 522.261 1725.08 522.261 1725.3 521.99L1727.85 512.419Z" fill="#FDE37E"/>
<path d="M70.5964 509.686L75.454 501.035L78.9317 510.328L87.6572 515.014C88.0039 515.041 88.0039 515.041 87.6318 515.345L78.3179 518.307L78.2925 518.638L73.4602 526.959L69.9572 517.997L69.9826 517.666L61.2312 513.314C60.9101 512.957 60.9101 512.957 61.2567 512.984L70.5964 509.686Z" fill="#FFF4CC"/>
<path d="M1233.2 164.1C1230.55 162.385 1228.3 160.124 1226.59 157.468C1224.88 154.813 1223.76 151.823 1223.3 148.7L1221.7 137.9C1221.64 137.653 1221.5 137.432 1221.3 137.27C1221.1 137.108 1220.85 137.013 1220.6 137C1220.34 136.996 1220.09 137.084 1219.88 137.249C1219.68 137.413 1219.55 137.644 1219.5 137.9L1217.9 148.7C1217.42 151.83 1216.28 154.822 1214.56 157.477C1212.83 160.132 1210.56 162.39 1207.9 164.1L1206.5 165C1206.35 165.104 1206.23 165.238 1206.15 165.394C1206.06 165.549 1206.01 165.722 1206 165.9C1206 166.08 1206.05 166.255 1206.14 166.412C1206.22 166.569 1206.35 166.702 1206.5 166.8L1207.9 167.7C1210.57 169.431 1212.84 171.707 1214.56 174.378C1216.28 177.05 1217.42 180.057 1217.9 183.2L1219.5 194C1219.55 194.256 1219.68 194.487 1219.88 194.652C1220.09 194.816 1220.34 194.904 1220.6 194.9C1220.85 194.887 1221.1 194.792 1221.3 194.631C1221.5 194.469 1221.64 194.248 1221.7 194L1223.3 183.2C1223.76 180.063 1224.88 177.059 1226.59 174.387C1228.29 171.715 1230.55 169.436 1233.2 167.7L1234.7 166.8C1234.84 166.697 1234.95 166.561 1235.02 166.403C1235.09 166.245 1235.12 166.072 1235.1 165.9C1235.11 165.729 1235.08 165.559 1235.01 165.403C1234.94 165.247 1234.83 165.109 1234.7 165L1233.2 164.1Z" fill="#AFD7FF"/>
<path d="M1724.7 397.1C1722.55 395.705 1720.73 393.868 1719.35 391.713C1717.97 389.557 1717.07 387.133 1716.7 384.6L1715.3 375.9C1715.3 375.688 1715.22 375.484 1715.07 375.334C1714.92 375.184 1714.71 375.1 1714.5 375.1C1714.28 375.099 1714.06 375.18 1713.9 375.327C1713.73 375.475 1713.62 375.679 1713.6 375.9L1712.3 384.6C1711.91 387.139 1710.99 389.567 1709.6 391.722C1708.2 393.877 1706.36 395.71 1704.2 397.1L1703.1 397.8C1702.99 397.883 1702.89 397.988 1702.83 398.108C1702.76 398.229 1702.71 398.362 1702.7 398.5C1702.7 398.642 1702.73 398.781 1702.81 398.904C1702.88 399.027 1702.98 399.129 1703.1 399.2L1704.2 399.9C1706.35 401.299 1708.18 403.135 1709.58 405.289C1710.97 407.442 1711.9 409.865 1712.3 412.4L1713.6 421.1C1713.62 421.321 1713.73 421.525 1713.9 421.673C1714.06 421.821 1714.28 421.902 1714.5 421.9C1714.71 421.9 1714.92 421.816 1715.07 421.666C1715.22 421.516 1715.3 421.312 1715.3 421.1L1716.7 412.4C1717.08 409.872 1717.99 407.451 1719.37 405.298C1720.75 403.144 1722.56 401.305 1724.7 399.9L1725.8 399.2C1725.93 399.139 1726.04 399.039 1726.11 398.913C1726.18 398.788 1726.21 398.644 1726.2 398.5C1726.2 398.358 1726.16 398.219 1726.09 398.096C1726.02 397.973 1725.92 397.871 1725.8 397.8L1724.7 397.1Z" fill="#404EED"/>
<path d="M137.5 262.9C135.931 261.918 134.599 260.602 133.596 259.047C132.594 257.491 131.946 255.734 131.7 253.9L130.7 247.5C130.676 247.359 130.602 247.231 130.492 247.139C130.382 247.047 130.243 246.998 130.1 247C129.956 246.998 129.817 247.047 129.707 247.139C129.597 247.231 129.523 247.359 129.5 247.5L128.5 253.9C128.234 255.728 127.578 257.478 126.577 259.03C125.577 260.583 124.254 261.903 122.7 262.9L121.9 263.4C121.804 263.442 121.723 263.512 121.669 263.602C121.615 263.692 121.591 263.796 121.6 263.9C121.591 264.004 121.615 264.109 121.669 264.198C121.723 264.288 121.804 264.359 121.9 264.4L122.7 264.9C124.249 265.928 125.565 267.268 126.564 268.836C127.563 270.403 128.222 272.162 128.5 274L129.5 280.3C129.523 280.441 129.597 280.569 129.707 280.661C129.817 280.753 129.956 280.802 130.1 280.8C130.243 280.802 130.382 280.753 130.492 280.661C130.602 280.569 130.676 280.441 130.7 280.3L131.7 274C131.958 272.157 132.61 270.39 133.611 268.82C134.611 267.25 135.938 265.913 137.5 264.9L138.3 264.4C138.396 264.359 138.476 264.288 138.53 264.198C138.584 264.109 138.608 264.004 138.6 263.9C138.608 263.796 138.584 263.692 138.53 263.602C138.476 263.512 138.396 263.442 138.3 263.4L137.5 262.9Z" fill="#91FFAD"/>
<path d="M433 208.892C432.86 200.21 429.71 191.846 424.09 185.227C418.47 178.608 410.73 174.145 402.18 172.599C393.64 171.053 384.82 172.52 377.24 176.75C369.66 180.979 363.77 187.71 360.6 195.792C357.81 195.186 354.96 194.884 352.1 194.892C346.36 194.874 340.69 196.12 335.49 198.539C330.29 200.959 325.68 204.493 322 208.892H433Z" fill="#CDD1FF" fill-opacity="0.5"/>
<path d="M1706.6 270.5C1709.11 270.527 1711.6 269.998 1713.88 268.951C1716.16 267.903 1718.18 266.363 1719.8 264.441C1721.41 262.52 1722.58 260.264 1723.22 257.836C1723.86 255.408 1723.96 252.869 1723.5 250.4C1718.71 224.556 1705.63 200.974 1686.26 183.214C1666.88 165.454 1642.25 154.481 1616.09 151.952C1589.92 149.422 1563.65 155.474 1541.23 169.193C1518.81 182.912 1501.46 203.553 1491.8 228C1482.86 226.071 1473.74 225.098 1464.6 225.1C1447.03 225.071 1429.64 228.712 1413.56 235.789C1397.48 242.866 1383.05 253.224 1371.2 266.2C1370.88 266.573 1370.67 267.029 1370.6 267.516C1370.52 268.003 1370.59 268.501 1370.79 268.952C1370.99 269.402 1371.31 269.787 1371.72 270.061C1372.13 270.335 1372.61 270.487 1373.1 270.5H1706.6Z" fill="#CDD1FF" fill-opacity="0.5"/>
<path d="M1349.22 35.9617H1337.74V38.442H1342.04V48.4522H1344.99V38.442H1349.22V35.9617ZM1357.53 37.7282C1355.61 37.7282 1354.33 38.6204 1353.61 40.4583V35.6049H1350.77V48.4522H1353.61V43.2062C1353.61 41.4397 1354.55 40.2085 1356.34 40.2085C1357.99 40.2085 1358.79 41.2077 1358.79 43.2954V48.4522H1361.65V42.653C1361.65 39.4948 1360.16 37.7282 1357.53 37.7282ZM1368.17 37.7282C1366.28 37.7282 1364.97 38.3528 1364.02 39.0665V41.5111C1364.92 40.6189 1366 40.1371 1367.37 40.1371C1369.24 40.1371 1370.64 41.1007 1370.66 43.0813V43.5452C1369.94 42.5638 1368.82 42.0642 1367.33 42.0642C1364.99 42.0642 1363.48 43.4738 1363.48 45.4009C1363.48 47.328 1364.93 48.7912 1367.19 48.7912C1368.77 48.7912 1369.98 48.2024 1370.68 47.0604V48.4522H1373.46V42.8136C1373.46 39.5304 1371.48 37.7282 1368.17 37.7282ZM1368.31 46.9176C1366.98 46.9176 1366.19 46.2396 1366.19 45.276C1366.19 44.3303 1366.98 43.6523 1368.36 43.6523C1369.75 43.6523 1370.68 44.3303 1370.68 45.2404C1370.68 46.2039 1369.7 46.9176 1368.31 46.9176ZM1382.65 37.7282C1380.7 37.7282 1379.43 38.6383 1378.71 40.494V38.1565H1375.89V48.4522H1378.73V43.2062C1378.73 41.4397 1379.67 40.2085 1381.46 40.2085C1383.1 40.2085 1383.91 41.2077 1383.91 43.2954V48.4522H1386.76V42.653C1386.76 39.4948 1385.27 37.7282 1382.65 37.7282ZM1394.99 42.5817L1399.77 38.1565H1396.27L1392.08 42.2248V35.6049H1389.21V48.4522H1392.08V43.0278L1396.6 48.4522H1400.1L1394.99 42.5817ZM1406.66 41.5289L1403.3 35.9617H1399.99L1405.14 44.1519V48.4522H1408.22V44.1519L1413.44 35.9617H1410.09L1406.66 41.5289ZM1418.43 48.7555C1422.13 48.7555 1424.37 46.311 1424.37 43.2062C1424.37 40.0836 1422.13 37.7282 1418.43 37.7282C1414.78 37.7282 1412.5 40.0836 1412.5 43.2062C1412.5 46.311 1414.78 48.7555 1418.43 48.7555ZM1418.43 46.418C1416.54 46.418 1415.39 45.0798 1415.39 43.2419C1415.39 41.3862 1416.54 40.1014 1418.43 40.1014C1420.33 40.1014 1421.48 41.3862 1421.48 43.2419C1421.48 45.0798 1420.33 46.418 1418.43 46.418ZM1434.09 43.5631C1434.09 45.3653 1433.14 46.4894 1431.46 46.4894C1429.85 46.4894 1429.04 45.5972 1429.04 43.7058V38.1565H1426.17V44.2946C1426.17 47.221 1427.64 48.8269 1430.29 48.8269C1432.02 48.8269 1433.39 48.0418 1434.09 46.3645V48.4522H1436.94V38.1565H1434.09V43.5631ZM1445.26 48.4522C1450.19 48.4522 1452.68 45.7578 1452.68 42.1534C1452.68 38.5669 1450.35 35.9617 1445.73 35.9617H1439.69V48.4522H1445.26ZM1442.63 38.2814H1445.48C1448.3 38.2814 1449.56 39.8516 1449.56 42.1356C1449.56 44.6158 1448.02 46.1325 1445.22 46.1325H1442.63V38.2814ZM1456.15 37.6569C1457.09 37.6569 1457.8 37.0502 1457.8 36.2472C1457.8 35.4443 1457.09 34.8733 1456.15 34.8733C1455.2 34.8733 1454.49 35.4443 1454.49 36.2472C1454.49 37.0502 1455.19 37.6569 1456.15 37.6569ZM1457.57 48.4522V38.4777H1454.71V48.4522H1457.57ZM1464.53 48.7555C1467.49 48.7555 1469.2 47.4173 1469.2 45.4188C1469.2 43.6166 1468.06 42.7601 1466.17 42.3676L1464.14 41.9215C1463.07 41.6717 1462.62 41.404 1462.62 40.8509C1462.62 40.2442 1463.28 39.8516 1464.68 39.8516C1466.29 39.8516 1467.66 40.3869 1468.64 41.065V38.8702C1467.7 38.2457 1466.29 37.7282 1464.44 37.7282C1461.51 37.7282 1459.73 39.013 1459.73 40.8687C1459.73 42.2783 1460.55 43.2597 1462.79 43.8307L1465.03 44.366C1466.1 44.6515 1466.26 45.0976 1466.26 45.508C1466.26 46.2039 1465.61 46.6321 1464.3 46.6321C1462.67 46.6321 1460.95 46.0968 1459.68 45.0976V47.3637C1461.04 48.2916 1462.76 48.7555 1464.53 48.7555ZM1476.56 48.7555C1478.2 48.7555 1479.53 48.3094 1480.67 47.5065V45.1868C1479.86 45.7935 1478.66 46.3288 1477.29 46.3288C1474.75 46.3288 1473.44 44.9549 1473.44 43.224C1473.44 41.4575 1474.86 40.155 1477.24 40.155C1478.69 40.155 1479.83 40.6903 1480.62 41.3505V38.9238C1479.78 38.2814 1478.55 37.7282 1476.64 37.7282C1472.79 37.7282 1470.46 40.1193 1470.46 43.224C1470.46 46.311 1472.7 48.7555 1476.56 48.7555ZM1487.92 48.7555C1491.62 48.7555 1493.86 46.311 1493.86 43.2062C1493.86 40.0836 1491.62 37.7282 1487.92 37.7282C1484.26 37.7282 1481.99 40.0836 1481.99 43.2062C1481.99 46.311 1484.26 48.7555 1487.92 48.7555ZM1487.92 46.418C1486.03 46.418 1484.88 45.0798 1484.88 43.2419C1484.88 41.3862 1486.03 40.1014 1487.92 40.1014C1489.81 40.1014 1490.97 41.3862 1490.97 43.2419C1490.97 45.0798 1489.81 46.418 1487.92 46.418ZM1501.58 37.9602C1500.16 37.9602 1499.11 38.9059 1498.62 40.9758V38.1565H1495.8V48.4522H1498.67V44.0092C1498.69 41.6895 1499.79 40.601 1501.35 40.601C1502.07 40.601 1502.65 40.7973 1503.03 41.0828V38.3885C1502.68 38.1386 1502.19 37.9602 1501.58 37.9602ZM1512.84 40.2977C1512.1 38.6561 1510.77 37.7282 1508.85 37.7282C1505.97 37.7282 1503.82 39.9944 1503.82 43.2597C1503.82 46.3823 1505.73 48.7555 1508.6 48.7555C1510.72 48.7555 1512.12 47.7028 1512.84 46.0968V48.4522H1515.69V35.6049H1512.84V40.2977ZM1509.77 46.3823C1507.95 46.3823 1506.78 45.0619 1506.78 43.2419C1506.78 41.4218 1507.95 40.1014 1509.81 40.1014C1511.7 40.1014 1512.87 41.404 1512.87 43.1884C1512.87 45.0084 1511.67 46.3823 1509.77 46.3823Z" fill="white"/>
<path d="M1323.29 49.0324C1323.29 45.849 1320.76 43.2684 1317.64 43.2684C1315.75 43.2684 1314.07 44.2223 1313.05 45.6802C1312.02 44.2223 1310.35 43.2684 1308.46 43.2684C1305.34 43.2684 1302.81 45.8484 1302.81 49.0324C1302.81 49.4833 1302.87 49.9202 1302.97 50.3414C1303.75 55.3138 1309.17 60.5597 1313.05 62C1316.93 60.5597 1322.35 55.3138 1323.13 50.3419C1323.23 49.9208 1323.29 49.4839 1323.29 49.0324Z" fill="white"/>
<path fill-rule="evenodd" clip-rule="evenodd" d="M1325.47 27.6555C1323.17 26.5753 1320.71 25.7794 1318.14 25.3236C1318.09 25.3148 1318.05 25.3368 1318.02 25.3808C1317.71 25.9582 1317.36 26.7116 1317.11 27.3037C1314.35 26.8787 1311.59 26.8787 1308.88 27.3037C1308.64 26.6984 1308.27 25.9582 1307.96 25.3808C1307.93 25.3383 1307.89 25.3163 1307.84 25.3236C1305.27 25.778 1302.81 26.5738 1300.51 27.6555C1300.49 27.6643 1300.48 27.679 1300.47 27.698C1295.8 34.8519 1294.52 41.8299 1295.15 48.7215C1295.15 48.7552 1295.17 48.7874 1295.2 48.8079C1297.65 50.6612 1300.05 51.9328 1302.41 52.8454C1302.12 52.1006 1301.9 51.3417 1301.78 50.5787C1301.67 50.0895 1301.6 49.5725 1301.6 49.0322C1301.6 45.1684 1304.67 42.0344 1308.46 42.0344C1310.23 42.0344 1311.84 42.7201 1313.05 43.8376C1314.26 42.72 1315.87 42.0344 1317.64 42.0344C1321.43 42.0344 1324.5 45.1692 1324.5 49.0322C1324.5 49.5725 1324.43 50.0898 1324.32 50.5807C1324.2 51.3238 1323.99 52.063 1323.71 52.789C1326.03 51.8807 1328.38 50.6234 1330.79 48.8079C1330.81 48.7874 1330.83 48.7566 1330.83 48.7229C1331.59 40.7556 1329.58 33.8347 1325.51 27.6995C1325.5 27.679 1325.49 27.6643 1325.47 27.6555ZM1318.5 39.4546C1319.87 39.4546 1321.14 39.8527 1322.22 40.5409C1322.12 38.6229 1320.72 37.0797 1318.99 37.0797C1317.43 37.0797 1316.14 38.3313 1315.83 39.9983C1316.65 39.6482 1317.55 39.4546 1318.5 39.4546ZM1307.16 39.4546C1308.26 39.4546 1309.3 39.7151 1310.22 40.1783C1309.98 38.4321 1308.65 37.0797 1307.03 37.0797C1305.37 37.0797 1304.02 38.4935 1303.82 40.3172C1304.81 39.7671 1305.95 39.4546 1307.16 39.4546Z" fill="white"/>
<path d="M1542.12 42.5651L1548.03 34.1774H1543.1L1539.11 40.1292L1535.29 34.1774H1530.41L1536.23 42.5651L1530.22 51.7565H1535.02L1539.11 45.2271L1543.18 51.7565H1548.18L1542.12 42.5651Z" fill="white"/>
<path d="M1576.55 39.2108H1575.08C1573.88 39.2108 1572.9 38.3487 1572.9 37.2877L1573.83 25.8947C1573.83 25.1482 1572.21 24 1571.37 24H1569.07C1568.23 24 1566.61 25.1368 1566.61 25.8947L1567.54 37.2877C1567.54 38.3487 1566.57 39.2108 1565.36 39.2108H1563.89C1562.84 39.2108 1561.99 39.9687 1561.99 40.8876V43.4076C1562.01 43.6405 1562.21 43.8151 1562.44 43.7998H1578.01C1578.24 43.8161 1578.44 43.641 1578.46 43.4076V40.8952C1578.45 39.963 1577.6 39.2108 1576.55 39.2108ZM1571.19 27.564C1571.16 27.9252 1570.85 28.1971 1570.5 28.1722H1569.94C1569.59 28.1961 1569.28 27.9247 1569.25 27.564V26.285C1569.28 25.9258 1569.59 25.6566 1569.94 25.6806H1570.5C1570.85 25.6556 1571.16 25.9253 1571.19 26.285V27.564Z" fill="white"/>
<path d="M1579 51.7238V58.4633C1579 59.6866 1578.02 60.6782 1576.82 60.6782H1563.69C1563.11 60.6782 1562.56 60.445 1562.15 60.0293C1561.75 59.6139 1561.52 59.0505 1561.52 58.4633V53.9274V49.3478C1561.52 48.1601 1562.46 47.1973 1563.63 47.1973H1563.94C1565.1 47.1973 1566.05 48.1601 1566.05 49.3478V53.1088C1566.05 53.5605 1566.41 53.9263 1566.85 53.9274C1567.29 53.9274 1567.65 53.5609 1567.65 53.1088V48.1712C1567.65 46.9842 1568.6 46.0217 1569.76 46.0207H1570.63C1571.19 46.0207 1571.73 46.2473 1572.12 46.6506C1572.52 47.0539 1572.74 47.6009 1572.74 48.1712V52.889C1572.74 53.1644 1572.85 53.4285 1573.04 53.6232C1573.23 53.818 1573.49 53.9274 1573.76 53.9274C1574.32 53.9263 1574.78 53.462 1574.78 52.889V51.7749C1574.77 50.632 1575.63 49.6742 1576.74 49.579C1577.33 49.538 1577.9 49.7456 1578.33 50.1522C1578.76 50.5587 1579 51.1279 1579 51.7238H1579Z" fill="white"/>
<path d="M1586.39 50.1043H1590.22V45.5899H1592.46C1596.12 45.5899 1597.98 42.8638 1597.98 40.1159C1597.98 37.3899 1596.14 34.6638 1592.44 34.6638H1586.39V50.1043ZM1590.22 42.1223V38.3058H1592.44C1594.75 38.284 1594.75 42.1442 1592.44 42.1223H1590.22ZM1607.68 50.1043H1612.45L1608.32 44.8048C1610.16 44.216 1611.3 42.6021 1611.3 39.7452C1611.21 36.1249 1608.79 34.6638 1605.67 34.6638H1599.61V50.1043H1603.49V45.1974H1604.17L1607.68 50.1043ZM1603.49 41.8388V38.3058H1605.73C1608.15 38.3058 1608.15 41.8388 1605.73 41.8388H1603.49ZM1612.96 45.0229C1612.96 48.5559 1616.11 50.3224 1619.25 50.3224C1622.4 50.3224 1625.52 48.5559 1625.52 45.0229V39.7452C1625.52 36.2122 1622.37 34.4457 1619.23 34.4457C1616.08 34.4457 1612.96 36.1904 1612.96 39.7452V45.0229ZM1616.79 39.7452C1616.79 38.6111 1617.99 38.0005 1619.19 38.0005C1620.43 38.0005 1621.69 38.5457 1621.69 39.7452V45.0229C1621.69 46.1351 1620.47 46.7022 1619.25 46.7022C1618.03 46.7022 1616.79 46.157 1616.79 45.0229V39.7452ZM1626.42 45.5681C1626.85 48.8394 1629.44 50.3224 1632.05 50.3224C1634.94 50.3224 1637.83 48.4251 1637.83 45.0665V34.6638H1630.59V38.1968H1634.04V45.0665C1634.04 45.9607 1633.14 46.5495 1632.2 46.5495C1631.26 46.5495 1630.25 46.0479 1630.04 44.8048L1626.42 45.5681ZM1643.99 38.3276H1650.66V34.6638H1640.11V50.1043H1650.66V46.4187H1643.99V44.1069H1650.13V40.7266H1643.99V38.3276ZM1660.32 45.2846C1659.48 47.4219 1656.06 46.8985 1656.06 45.0447V39.7234C1656.06 37.8042 1659.44 37.368 1660.46 39.2872L1663.59 38.0005C1662.37 35.2526 1660.12 34.4457 1658.26 34.4457C1655.22 34.4457 1652.23 36.234 1652.23 39.7234V45.0447C1652.23 48.5559 1655.22 50.3224 1658.2 50.3224C1660.1 50.3224 1662.39 49.3628 1663.66 46.8548L1660.32 45.2846ZM1676.07 38.3494V34.642H1664.15V38.3494H1668.17V50.1043H1672.04V38.3494H1676.07ZM1691.99 39.3744C1692.07 36.4303 1689.96 34.6638 1687.07 34.6638H1680.99V50.1043H1687.18C1690.53 50.1043 1692.18 48.5995 1692.57 46.1133C1692.76 44.9357 1692.5 42.9511 1690.43 41.8824C1691.52 41.3154 1691.97 40.0723 1691.99 39.3744ZM1684.84 40.7048V37.9569H1687.07C1688.99 37.9569 1688.93 40.7048 1687.07 40.7048H1684.84ZM1684.84 46.6804V43.5181H1687.07C1689.34 43.5181 1689.38 46.6804 1687.07 46.6804H1684.84ZM1694.34 50.1043H1704.36V46.2442H1698.2V34.6638H1694.34V50.1043ZM1709.46 34.6638H1705.58V44.9357C1705.56 52.1762 1717.65 52.1762 1717.68 44.9357V34.6638H1713.8V44.9357C1713.78 47.4219 1709.46 47.4219 1709.46 44.9357V34.6638ZM1728.01 50.1043H1732.78L1728.65 44.8048C1730.49 44.216 1731.63 42.6021 1731.63 39.7452C1731.54 36.1249 1729.12 34.6638 1726 34.6638H1719.95V50.1043H1723.82V45.1974H1724.5L1728.01 50.1043ZM1723.82 41.8388V38.3058H1726.06C1728.48 38.3058 1728.48 41.8388 1726.06 41.8388H1723.82ZM1733.78 50.1043H1737.61V45.5899H1739.86C1743.51 45.5899 1745.38 42.8638 1745.38 40.1159C1745.38 37.3899 1743.54 34.6638 1739.83 34.6638H1733.78V50.1043ZM1737.61 42.1223V38.3058H1739.83C1742.15 38.284 1742.15 42.1442 1739.83 42.1223H1737.61ZM1747.01 50.1043H1757.02V46.2442H1750.86V34.6638H1747.01V50.1043ZM1762.42 38.3276H1769.09V34.6638H1758.54V50.1043H1769.09V46.4187H1762.42V44.1069H1768.56V40.7266H1762.42V38.3276Z" fill="white"/>
</g>
<defs>
<linearGradient id="paint0_linear_174_2" x1="900" y1="473" x2="900" y2="882.5" gradientUnits="userSpaceOnUse">
<stop stop-color="#85C28D"/>
<stop offset="1" stop-color="#2FB67E"/>
</linearGradient>
<clipPath id="clip0_174_2">
<rect width="1800" height="600" fill="white"/>
</clipPath>
</defs>
</svg>
