<svg width="10800" height="4500" viewBox="0 0 10800 4500" fill="none" xmlns="http://www.w3.org/2000/svg">
<g clip-path="url(#clip0_403_2)">
<rect width="10800" height="4500" fill="url(#paint0_linear_403_2)"/>
<path fill-rule="evenodd" clip-rule="evenodd" d="M10800 4111.6C10371 4079.89 9936.02 4210.72 9414 4529.55C7948.01 3589.16 7332.69 3821.12 5887.3 4710H10800V4111.6ZM5355.52 4710H0V4042C315.202 3931.48 642.143 3894.42 972.6 3984.15C1104.83 4019.86 1244.54 4016.8 1375.08 3975.31C1505.61 3933.82 1621.46 3855.66 1708.8 3750.15C2514.6 2774.55 3043.2 3141.15 4005 4261.35C4361.98 3790.3 4662.84 4035.43 5355.52 4710Z" fill="#5865F2"/>
<path fill-rule="evenodd" clip-rule="evenodd" d="M1800 4500.69L1950 4396.03C2100 4291.38 2400 4082.07 2700 4029.74C3000 3977.42 3300 4082.07 3600 4186.72C3900 4291.38 4200 4396.03 4500 4326.26C4800 4256.49 5100 4012.3 5400 3872.76C5700 3733.22 6000 3698.34 6300 3785.55C6600 3872.76 6900 4082.07 7200 4116.95C7500 4151.84 7800 4012.3 8100 4064.63C8400 4116.95 8700 4361.15 8850 4483.25L9000 4605.34V4710H8850C8700 4710 8400 4710 8100 4710C7800 4710 7500 4710 7200 4710C6900 4710 6600 4710 6300 4710C6000 4710 5700 4710 5400 4710C5100 4710 4800 4710 4500 4710C4200 4710 3900 4710 3600 4710C3300 4710 3000 4710 2700 4710C2400 4710 2100 4710 1950 4710H1800V4500.69Z" fill="url(#paint1_linear_403_2)"/>
<path d="M12228 4500C12025.6 4205.86 11414.8 4073.16 10961.5 4152.78C10739.7 3765.75 10056.2 3551.22 9555.69 3980.27C9103.65 3943.79 8504.97 4079.79 8448 4500H12228Z" fill="#7A73FF"/>
<path d="M10800 4500H7998C8365.85 4326.31 9009.63 4291.26 9321.12 4396.39C9746.84 4178.51 10408.4 4172.41 10800 4500Z" fill="#8088FF"/>
<path d="M2244 4488C2065.7 4193.86 1527.61 4061.16 1128.31 4140.78C932.922 3753.75 330.77 3539.22 -110.173 3968.27C-508.405 3931.79 -1035.81 4067.79 -1086 4488H2244Z" fill="#7A73FF"/>
<path d="M-204 4500H2598C2230.15 4326.31 1586.37 4291.26 1274.88 4396.39C849.156 4178.51 187.604 4172.41 -204 4500Z" fill="#8088FF"/>
<path d="M8033.6 3872.54C8068.15 4016.18 8063.83 4195.97 8063.83 4195.97H8022.81C8029.28 4065.77 8015.25 3881.84 8015.25 3881.84L8033.6 3872.54Z" fill="#824B6F"/>
<path d="M8036.7 3906.69L8103.98 3980.39C8115.68 3938.42 8093.25 3903.63 8047.43 3886.22C8065.95 3882.13 8122.5 3858.58 8122.5 3858.58C8107.39 3849.73 8090.17 3845.61 8072.9 3846.7C8055.62 3847.79 8039 3854.05 8025 3864.73C8008.43 3843.24 7974.3 3812.53 7924.58 3824.81L7990.88 3869.84C7938.23 3864.73 7926.53 3889.29 7908 3915.91L7992.83 3906.69L8007.45 4003.93C8007.45 4003.93 8049.38 3946.62 8036.7 3906.69Z" fill="#85C286"/>
<path fill-rule="evenodd" clip-rule="evenodd" d="M3278 4243.37C3286.89 4235.65 3290.34 4218.7 3285.64 4200.98C3280.32 4180.92 3266.4 4166.87 3253.4 4167.62C3263.44 4185.95 3272.07 4213.5 3278 4243.37Z" fill="#535379"/>
<path d="M3231.75 4145.27C3258.22 4152.14 3281.56 4233.74 3285.86 4303.42L3144 4295.77C3164.67 4211.11 3177.9 4131.48 3231.75 4145.27Z" fill="#6C6C96"/>
<ellipse cx="3219.46" cy="4206.85" rx="33.4286" ry="18.5715" transform="rotate(3.0833 3219.46 4206.85)" fill="#535379"/>
<path d="M5560.22 3990.29C5587.16 3990.41 5618.33 4026.35 5629.45 4058.89L5488 4072.1C5500.17 4029.49 5505.47 3990.14 5560.22 3990.29Z" fill="#535379"/>
<path d="M5560.22 3990.29C5587.16 3990.41 5618.33 4026.35 5629.45 4058.89L5487.99 4072.1C5500.17 4029.49 5505.47 3990.14 5560.22 3990.29Z" fill="#6C6C96"/>
<path d="M6543.36 4063.2C6569.79 4068.85 6593.2 4121.67 6597.59 4166.01L6456 4154.26C6476.51 4101.64 6489.61 4051.85 6543.36 4063.2Z" fill="#535379"/>
<path d="M6543.36 4063.2C6569.79 4068.85 6593.2 4121.67 6597.59 4166.01L6456 4154.26C6476.51 4101.64 6489.61 4051.85 6543.36 4063.2Z" fill="#6C6C96"/>
<path d="M7887.09 4335.93L7593.35 4348.08L7586.43 4180.94L7880.18 4168.79L7887.09 4335.93Z" fill="#BACFFF"/>
<path d="M7726.01 4342.59L7593.35 4348.08L7586.42 4180.62L7719.08 4175.14L7726.01 4342.59Z" fill="#C8D9FF"/>
<path d="M7621.77 4346.9L7659.68 4345.33L7656.93 4279.03C7656.69 4273.18 7654.51 4267.63 7650.87 4263.64C7647.23 4259.63 7642.43 4257.49 7637.53 4257.69C7632.62 4257.89 7628.02 4260.43 7624.72 4264.72C7621.43 4269 7619.71 4274.71 7619.95 4280.56L7622.7 4346.86L7621.77 4346.9Z" fill="#827D99"/>
<path d="M7589.28 4249.85L7652.77 4178.34L7586.44 4181.09L7589.28 4249.85Z" fill="#D4E1FF"/>
<path d="M7880.19 4168.94L7586.44 4181.09L7651.56 4119.36L7810.19 4112.79L7880.19 4168.94Z" fill="#23283D"/>
<path d="M7719.1 4175.6L7650.33 4119.41L7586.44 4181.09L7719.1 4175.6Z" fill="#4E4766"/>
<path d="M7776.32 4302.06C7767.21 4302.68 7759.42 4295.68 7758.93 4286.4C7758.44 4277.13 7765.42 4269.1 7774.53 4268.47C7783.64 4267.85 7791.43 4274.86 7791.92 4284.13C7792.41 4293.41 7785.43 4301.43 7776.32 4302.06Z" fill="#6BA1D1"/>
<path d="M7839.09 4299.46C7829.98 4300.09 7822.2 4293.09 7821.71 4283.8C7821.21 4274.53 7828.2 4266.5 7837.31 4265.88C7846.42 4265.25 7854.21 4272.26 7854.7 4281.53C7855.19 4290.82 7848.2 4298.83 7839.09 4299.46Z" fill="#6BA1D1"/>
<path d="M7836.41 4234.56C7827.3 4235.19 7819.51 4228.19 7819.02 4218.91C7818.53 4209.64 7825.52 4201.61 7834.63 4200.98C7843.74 4200.35 7851.52 4207.37 7852.01 4216.64C7852.51 4225.92 7845.52 4233.94 7836.41 4234.56Z" fill="#6BA1D1"/>
<path d="M7773.63 4237.16C7764.52 4237.79 7756.74 4230.79 7756.25 4221.5C7755.75 4212.23 7762.74 4204.2 7771.85 4203.58C7780.96 4202.95 7788.74 4209.96 7789.24 4219.23C7789.73 4228.52 7782.74 4236.53 7773.63 4237.16Z" fill="#6BA1D1"/>
<path d="M9293.99 4228.08L9240 4203L9293.99 4177.92L9318.01 4123.56C9318.01 4121.48 9318.01 4121.48 9320 4123.56L9342.01 4177.92H9344L9396 4203L9344 4228.08H9342.01L9320 4282.43C9318.01 4284.52 9318.01 4284.52 9318.01 4282.43L9293.99 4228.08Z" fill="#FFF5CF"/>
<path d="M10367.1 3974.51L10340.7 3921.15L10398.5 3935.41L10451.3 3908.07C10452.6 3906.44 10452.6 3906.44 10452.8 3909.31L10436 3965.47L10437.5 3966.72L10462.4 4018.84L10406.1 4005.83L10404.6 4004.58L10353.4 4033.18C10350.5 4033.56 10350.5 4033.56 10351.8 4031.94L10367.1 3974.51Z" fill="#FDE37E"/>
<path d="M423.579 3958.12L452.725 3906.21L473.591 3961.97L525.944 3990.08C528.024 3990.24 528.024 3990.24 525.792 3992.07L469.908 4009.84L469.756 4011.83L440.762 4061.75L419.744 4007.98L419.897 4006L367.388 3979.89C365.461 3977.74 365.461 3977.74 367.541 3977.9L423.579 3958.12Z" fill="#FFF4CC"/>
<path d="M7399.2 1884.6C7383.3 1874.31 7369.8 1860.74 7359.54 1844.81C7349.28 1828.88 7342.56 1810.94 7339.8 1792.2L7330.2 1727.4C7329.84 1725.92 7329 1724.59 7327.8 1723.62C7326.6 1722.65 7325.1 1722.08 7323.6 1722C7322.04 1721.98 7320.54 1722.5 7319.28 1723.49C7318.08 1724.48 7317.3 1725.86 7317 1727.4L7307.4 1792.2C7304.52 1810.98 7297.68 1828.93 7287.36 1844.86C7276.98 1860.79 7263.36 1874.34 7247.4 1884.6L7239 1890C7238.1 1890.62 7237.38 1891.43 7236.9 1892.36C7236.36 1893.29 7236.06 1894.33 7236 1895.4C7236 1896.48 7236.3 1897.53 7236.84 1898.47C7237.32 1899.41 7238.1 1900.21 7239 1900.8L7247.4 1906.2C7263.42 1916.59 7277.04 1930.24 7287.36 1946.27C7297.68 1962.3 7304.52 1980.34 7307.4 1999.2L7317 2064C7317.3 2065.54 7318.08 2066.92 7319.28 2067.91C7320.54 2068.9 7322.04 2069.42 7323.6 2069.4C7325.1 2069.32 7326.6 2068.75 7327.8 2067.79C7329 2066.81 7329.84 2065.49 7330.2 2064L7339.8 1999.2C7342.56 1980.38 7349.28 1962.35 7359.54 1946.32C7369.74 1930.29 7383.3 1916.62 7399.2 1906.2L7408.2 1900.8C7409.04 1900.18 7409.7 1899.37 7410.12 1898.42C7410.54 1897.47 7410.72 1896.43 7410.6 1895.4C7410.66 1894.37 7410.48 1893.35 7410.06 1892.42C7409.64 1891.48 7408.98 1890.65 7408.2 1890L7399.2 1884.6Z" fill="#AFD7FF"/>
<path d="M10348.2 3282.6C10335.3 3274.23 10324.4 3263.21 10316.1 3250.28C10307.8 3237.34 10302.4 3222.8 10300.2 3207.6L10291.8 3155.4C10291.8 3154.13 10291.3 3152.9 10290.4 3152C10289.5 3151.1 10288.3 3150.6 10287 3150.6C10285.7 3150.59 10284.4 3151.08 10283.4 3151.96C10282.4 3152.85 10281.7 3154.07 10281.6 3155.4L10273.8 3207.6C10271.5 3222.83 10265.9 3237.4 10257.6 3250.33C10249.2 3263.26 10238.2 3274.26 10225.2 3282.6L10218.6 3286.8C10217.9 3287.3 10217.3 3287.93 10217 3288.65C10216.6 3289.37 10216.3 3290.17 10216.2 3291C10216.2 3291.85 10216.4 3292.68 10216.9 3293.42C10217.3 3294.16 10217.9 3294.77 10218.6 3295.2L10225.2 3299.4C10238.1 3307.79 10249.1 3318.81 10257.5 3331.73C10265.8 3344.65 10271.4 3359.19 10273.8 3374.4L10281.6 3426.6C10281.7 3427.92 10282.4 3429.15 10283.4 3430.04C10284.4 3430.92 10285.7 3431.41 10287 3431.4C10288.3 3431.4 10289.5 3430.89 10290.4 3429.99C10291.3 3429.09 10291.8 3427.87 10291.8 3426.6L10300.2 3374.4C10302.5 3359.23 10307.9 3344.7 10316.2 3331.79C10324.5 3318.86 10335.4 3307.83 10348.2 3299.4L10354.8 3295.2C10355.6 3294.83 10356.2 3294.23 10356.7 3293.48C10357.1 3292.73 10357.3 3291.86 10357.2 3291C10357.2 3290.15 10357 3289.31 10356.5 3288.57C10356.1 3287.84 10355.5 3287.22 10354.8 3286.8L10348.2 3282.6Z" fill="#404EED"/>
<path d="M825.001 2477.4C815.587 2471.51 807.595 2463.61 801.577 2454.28C795.565 2444.95 791.677 2434.4 790.201 2423.4L784.201 2385C784.057 2384.15 783.613 2383.39 782.953 2382.83C782.293 2382.28 781.459 2381.99 780.601 2382C779.737 2381.99 778.903 2382.28 778.243 2382.83C777.583 2383.39 777.139 2384.15 777.001 2385L771.001 2423.4C769.405 2434.37 765.469 2444.87 759.463 2454.18C753.463 2463.5 745.525 2471.42 736.201 2477.4L731.401 2480.4C730.825 2480.65 730.339 2481.07 730.015 2481.61C729.691 2482.15 729.547 2482.78 729.601 2483.4C729.547 2484.02 729.691 2484.65 730.015 2485.19C730.339 2485.73 730.825 2486.15 731.401 2486.4L736.201 2489.4C745.495 2495.57 753.391 2503.61 759.385 2513.02C765.379 2522.42 769.333 2532.97 771.001 2544L777.001 2581.8C777.139 2582.65 777.583 2583.41 778.243 2583.97C778.903 2584.52 779.737 2584.81 780.601 2584.8C781.459 2584.81 782.293 2584.52 782.953 2583.97C783.613 2583.41 784.057 2582.65 784.201 2581.8L790.201 2544C791.749 2532.94 795.661 2522.34 801.667 2512.92C807.667 2503.5 815.629 2495.48 825.001 2489.4L829.801 2486.4C830.377 2486.15 830.857 2485.73 831.181 2485.19C831.505 2484.65 831.649 2484.02 831.601 2483.4C831.649 2482.78 831.505 2482.15 831.181 2481.61C830.857 2481.07 830.377 2480.65 829.801 2480.4L825.001 2477.4Z" fill="#91FFAD"/>
<path d="M2598 2153.35C2597.16 2101.26 2578.26 2051.08 2544.54 2011.36C2510.82 1971.65 2464.38 1944.87 2413.08 1935.6C2361.84 1926.32 2308.92 1935.12 2263.44 1960.5C2217.96 1985.88 2182.62 2026.26 2163.6 2074.75C2146.86 2071.12 2129.76 2069.31 2112.6 2069.35C2078.16 2069.25 2044.14 2076.72 2012.94 2091.24C1981.74 2105.76 1954.08 2126.96 1932 2153.35H2598Z" fill="#CDD1FF" fill-opacity="0.5"/>
<path d="M10239.6 2523C10254.7 2523.16 10269.6 2519.99 10283.3 2513.71C10297 2507.42 10309.1 2498.18 10318.8 2486.65C10328.5 2475.12 10335.5 2461.58 10339.3 2447.02C10343.2 2432.45 10343.8 2417.21 10341 2402.4C10312.3 2247.34 10233.8 2105.84 10117.6 1999.28C10001.3 1892.72 9853.5 1826.89 9696.54 1811.71C9539.52 1796.53 9381.9 1832.84 9247.38 1915.16C9112.86 1997.47 9008.76 2121.32 8950.8 2268C8897.16 2256.43 8842.44 2250.59 8787.6 2250.6C8682.18 2250.43 8577.84 2272.27 8481.36 2314.73C8384.88 2357.2 8298.3 2419.34 8227.2 2497.2C8225.28 2499.44 8224.02 2502.17 8223.6 2505.1C8223.12 2508.02 8223.54 2511.01 8224.74 2513.71C8225.94 2516.41 8227.86 2518.72 8230.32 2520.37C8232.78 2522.01 8235.66 2522.92 8238.6 2523H10239.6Z" fill="#CDD1FF" fill-opacity="0.5"/>
<path d="M5860.11 3725.46C5826.27 3838.87 5817.23 3986.37 5817.23 3986.37L5845.79 3990.22C5850.76 3883.32 5872.35 3732.99 5872.35 3732.99L5860.11 3725.46Z" fill="#824B6F"/>
<path d="M5843.93 3749.17L5805.75 3812.07C5783.76 3775.92 5792.44 3746.07 5829.27 3731.91C5811.6 3728.54 5754.87 3709.02 5754.87 3709.02C5776.42 3695.35 5806.68 3692.96 5843.71 3714C5851.67 3694.58 5873.64 3669.1 5921.99 3678.77L5875.22 3717.18C5920.44 3712.89 5937.49 3734.01 5962.5 3756.27L5883.91 3748.99L5898.05 3832.42C5898.05 3832.42 5845.31 3782.62 5843.93 3749.17Z" fill="#58A67E"/>
<path d="M9001.78 284.624L9040.92 229H9008.3L8981.88 268.47L8956.6 229H8924.3L8962.8 284.624L8923 345.577H8954.8L8981.88 302.277L9008.79 345.577H9041.9L9001.78 284.624Z" fill="white"/>
<path d="M10583 283.091C10583 260.038 10569.2 244.252 10537.6 244.252C10506.9 244.252 10489.1 260.539 10489.1 283.592C10489.1 307.772 10508.4 324.561 10542.3 324.561C10558 324.561 10572.1 320.802 10580.5 315.916V292.237C10573.5 296.121 10564.9 298.752 10553.6 298.752C10539.3 298.752 10531 295.369 10527.1 289.856H10583V283.091ZM10539.6 267.681C10547.6 267.681 10552.1 271.189 10553.1 276.827H10525.8C10526.9 271.189 10531.7 267.681 10539.6 267.681Z" fill="white"/>
<path d="M10481.1 321.805V231.598H10442V321.805H10481.1Z" fill="white"/>
<path d="M10398.9 244.252C10381.8 244.252 10371.1 251.769 10366.9 266.804V247.635H10327.7V343.98H10366.9V305.642C10372.4 319.048 10383.3 324.561 10398.1 324.561C10419.9 324.561 10433.8 308.274 10433.8 284.344C10433.8 261.667 10420.9 244.252 10398.9 244.252ZM10379.7 297.373C10371.5 297.373 10366.8 292.237 10366.8 284.469C10366.8 276.827 10371.6 271.565 10379.8 271.565C10387.8 271.565 10393.1 276.701 10393.1 284.344C10393.1 292.111 10387.8 297.373 10379.7 297.373Z" fill="white"/>
<path d="M10308.4 245.63C10294.5 245.63 10286.8 253.524 10283.2 271.815V247.635H10245V321.805H10284.1V304.891C10284.1 286.474 10292.7 279.207 10307.2 279.207C10313.6 279.207 10318.4 280.711 10320.8 282.089V248.387C10318.5 247.259 10313.9 245.63 10308.4 245.63Z" fill="white"/>
<path d="M10194.8 283.968C10194.8 293.114 10191.2 297.875 10183.6 297.875C10175.9 297.875 10173.2 293.114 10173.2 284.218V247.635H10134V292.863C10134 313.035 10144.3 324.436 10164.5 324.436C10180.1 324.436 10190.2 317.294 10194.8 304.64V321.805H10233.8V247.635H10194.8V283.968Z" fill="white"/>
<path d="M10123.5 321.805V231.598H10084.4V321.805H10123.5Z" fill="white"/>
<path d="M10056.8 273.194C10067.4 270.938 10072.4 264.925 10072.4 256.405C10072.4 243.626 10060.7 234.104 10036 234.104H9971.96V321.805H10034C10063.9 321.805 10076.2 310.404 10076.2 294.492C10076.2 283.718 10070.4 275.825 10056.8 273.194ZM10024.2 256.405C10029.8 256.405 10032.5 258.661 10032.5 263.045C10032.5 267.055 10029.7 269.435 10024.2 269.435H10010.9V256.405H10024.2ZM10010.9 299.755V284.846H10025.4C10032.2 284.846 10035.4 287.602 10035.4 291.987C10035.4 296.873 10032 299.755 10024.6 299.755H10010.9Z" fill="white"/>
<path d="M9911.69 247.635V230.846L9872.52 235.607V247.635H9852.18V273.82H9872.52V321.805H9911.69V273.82H9933.4V247.635H9911.69Z" fill="white"/>
<path d="M9812.21 324.561C9825.52 324.561 9837.57 321.804 9846.86 316.918V292.237C9841.46 294.743 9833.68 297.123 9825.14 297.123C9809.2 297.123 9802.3 291.235 9802.3 284.344C9802.3 277.077 9810.33 271.815 9825.27 271.815C9834.06 271.815 9841.84 274.321 9846.74 277.077V251.644C9838.95 247.384 9828.16 244.252 9812.72 244.252C9778.57 244.252 9760.99 261.541 9760.99 283.968C9760.99 306.269 9777.56 324.561 9812.21 324.561Z" fill="white"/>
<path d="M9755.72 283.091C9755.72 260.038 9741.91 244.252 9710.27 244.252C9679.64 244.252 9661.82 260.539 9661.82 283.592C9661.82 307.772 9681.15 324.561 9715.04 324.561C9730.74 324.561 9744.8 320.802 9753.21 315.916V292.237C9746.18 296.121 9737.64 298.752 9726.34 298.752C9712.03 298.752 9703.74 295.369 9699.85 289.856H9755.72V283.091ZM9712.28 267.681C9720.31 267.681 9724.84 271.189 9725.84 276.827H9698.47C9699.6 271.189 9704.37 267.681 9712.28 267.681Z" fill="white"/>
<path d="M9634.67 253.022C9646.84 253.022 9655.51 247.259 9655.51 239.366C9655.51 231.348 9646.84 225.584 9634.67 225.584C9622.11 225.584 9613.2 231.348 9613.2 239.366C9613.2 247.259 9622.11 253.022 9634.67 253.022ZM9618.6 348.115C9641.95 348.115 9653.88 338.343 9653.88 320.552V256.405H9614.83V318.046C9614.83 323.434 9612.07 325.814 9607.05 325.814C9604.41 325.814 9602.53 325.188 9600.77 324.31C9599.02 323.434 9600.77 344.858 9600.77 344.858C9604.29 346.612 9610.82 348.115 9618.6 348.115Z" fill="white"/>
<path d="M9553.81 324.561C9587.7 324.561 9606.03 306.52 9606.03 283.592C9606.03 260.665 9587.58 244.252 9553.81 244.252C9519.79 244.252 9501.46 260.79 9501.46 283.592C9501.46 306.394 9519.79 324.561 9553.81 324.561ZM9553.81 297.875C9545.27 297.875 9540.38 292.738 9540.38 284.344C9540.38 276.075 9545.27 271.063 9553.81 271.063C9562.09 271.063 9566.99 276.075 9566.99 284.344C9566.99 292.738 9562.09 297.875 9553.81 297.875Z" fill="white"/>
<path d="M9485.73 245.63C9471.92 245.63 9464.14 253.524 9460.62 271.815V247.635H9422.33V321.805H9461.5V304.891C9461.5 286.474 9470.04 279.207 9484.6 279.207C9491 279.207 9495.78 280.711 9498.16 282.089V248.387C9495.9 247.259 9491.25 245.63 9485.73 245.63Z" fill="white"/>
<path d="M9308.35 233.979V321.805H9348.14V301.258H9371.12C9400.11 301.258 9415.3 287.1 9415.3 267.681C9415.3 247.635 9402.5 233.979 9376.89 233.979H9308.35ZM9348.14 279.583V258.911H9361.7C9369.99 258.911 9374.5 262.795 9374.5 269.184C9374.5 275.574 9369.61 279.583 9359.94 279.583H9348.14Z" fill="white"/>
<path d="M9239.84 265.269H9229.6C9221.17 265.269 9214.35 259.246 9214.35 251.833L9220.84 172.237C9220.84 167.022 9209.56 159 9203.63 159H9187.6C9181.69 159 9170.39 166.942 9170.39 172.237L9176.88 251.833C9176.88 259.246 9170.06 265.269 9161.63 265.269H9151.39C9144.02 265.269 9138.05 270.564 9138.05 276.984V294.59C9138.19 296.218 9139.57 297.438 9141.17 297.33H9250.08C9251.68 297.444 9253.08 296.22 9253.2 294.59V277.037C9253.18 270.524 9247.21 265.269 9239.84 265.269ZM9202.38 183.9C9202.21 186.423 9200.05 188.323 9197.57 188.149H9193.68C9191.2 188.316 9189.06 186.42 9188.85 183.9V174.964C9189.06 172.455 9191.2 170.574 9193.68 170.741H9197.57C9200.05 170.567 9202.19 172.451 9202.38 174.964V183.9Z" fill="white"/>
<path d="M9256.86 352.592V399.562C9256.86 408.089 9250.08 415 9241.71 415H9150.15C9146.12 415 9142.28 413.374 9139.44 410.477C9136.6 407.582 9135 403.655 9135 399.562V367.949V336.031C9135 327.755 9141.6 321.043 9149.71 321.043H9151.85C9159.98 321.043 9166.56 327.755 9166.56 336.031V362.245C9166.58 365.392 9169.07 367.943 9172.16 367.949C9175.25 367.949 9177.76 365.396 9177.76 362.245V327.832C9177.76 319.559 9184.34 312.851 9192.48 312.843H9198.53C9202.44 312.843 9206.19 314.422 9208.95 317.234C9211.71 320.044 9213.25 323.857 9213.25 327.832V360.713C9213.25 362.632 9214.01 364.473 9215.34 365.83C9216.67 367.188 9218.47 367.949 9220.36 367.949C9224.28 367.943 9227.46 364.707 9227.46 360.713V352.948C9227.4 344.982 9233.35 338.307 9241.15 337.643C9245.22 337.358 9249.22 338.804 9252.19 341.639C9255.18 344.471 9256.86 348.438 9256.86 352.592Z" fill="white"/>
<path d="M7170.36 329.943C7170.36 310.536 7154.89 294.804 7135.81 294.804C7124.23 294.804 7114.02 300.619 7107.75 309.507C7101.48 300.619 7091.26 294.804 7079.68 294.804C7060.6 294.804 7045.13 310.532 7045.13 329.943C7045.13 332.692 7045.48 335.356 7046.07 337.923C7050.86 368.238 7084 400.219 7107.75 409C7131.49 400.219 7164.63 368.238 7169.42 337.927C7170.01 335.359 7170.36 332.696 7170.36 329.943Z" fill="white"/>
<path fill-rule="evenodd" clip-rule="evenodd" d="M7183.12 199.152C7169.25 192.602 7154.39 187.776 7138.85 185.012C7138.56 184.958 7138.28 185.092 7138.13 185.358C7136.22 188.86 7134.1 193.428 7132.62 197.019C7115.9 194.441 7099.27 194.441 7082.9 197.019C7081.42 193.348 7079.22 188.86 7077.3 185.358C7077.16 185.1 7076.87 184.967 7076.59 185.012C7061.06 187.767 7046.19 192.593 7032.32 199.152C7032.2 199.205 7032.1 199.294 7032.03 199.41C7003.83 242.79 6996.11 285.105 6999.9 326.895C6999.92 327.099 7000.03 327.295 7000.18 327.419C7015.04 338.657 7029.53 346.368 7043.77 351.902C7042.02 347.386 7040.71 342.784 7039.96 338.157C7039.3 335.19 7038.91 332.056 7038.91 328.779C7038.91 305.349 7057.45 286.345 7080.35 286.345C7091.04 286.345 7100.75 290.503 7108.08 297.28C7115.41 290.503 7125.12 286.345 7135.81 286.345C7158.7 286.345 7177.25 305.354 7177.25 328.779C7177.25 332.056 7176.85 335.193 7176.19 338.169C7175.46 342.675 7174.2 347.158 7172.51 351.561C7186.52 346.052 7200.71 338.428 7215.27 327.419C7215.43 327.295 7215.54 327.108 7215.55 326.904C7220.09 278.59 7207.96 236.623 7183.4 199.419C7183.34 199.294 7183.24 199.205 7183.12 199.152ZM7141.04 270.701C7149.28 270.701 7156.97 273.115 7163.47 277.288C7162.9 265.658 7154.45 256.3 7143.95 256.3C7134.52 256.3 7126.77 263.889 7124.85 273.998C7129.83 271.875 7135.3 270.701 7141.04 270.701ZM7072.46 270.701C7079.12 270.701 7085.4 272.281 7090.99 275.09C7089.55 264.501 7081.51 256.3 7071.68 256.3C7061.66 256.3 7053.53 264.873 7052.3 275.932C7058.29 272.596 7065.16 270.701 7072.46 270.701Z" fill="white"/>
<path d="M7371.36 250.224H7268.7V280.802H7299.81V340.922H7340.9V280.802H7371.36V250.224Z" fill="white"/>
<path d="M7450.73 260.719C7434.27 260.719 7424.55 267.975 7419.23 283.523V247.632H7378.79V340.922H7419.23V305.55C7419.23 295.832 7422.99 290.908 7431.03 290.908C7438.68 290.908 7441.92 296.221 7441.92 305.29V340.922H7482.36V297.516C7482.36 273.028 7471.47 260.719 7450.73 260.719Z" fill="white"/>
<path d="M7533.93 260.719C7515.91 260.719 7502.43 265.254 7493.1 271.214V297.905C7499.97 292.463 7510.34 288.835 7520.06 288.835C7533.93 288.835 7543.39 294.666 7544.94 305.938C7538.85 298.812 7530.95 295.314 7519.54 295.314C7501.78 295.314 7489.73 305.161 7489.73 319.673C7489.73 333.407 7500.1 343.513 7517.34 343.513C7530.56 343.513 7540.02 338.201 7545.33 330.168V340.922H7584.35V305.161C7584.35 276.397 7567.11 260.719 7533.93 260.719ZM7534.83 324.855C7529.13 324.855 7525.5 321.875 7525.5 317.47C7525.5 313.194 7529.13 310.084 7534.96 310.084C7541.18 310.084 7545.33 313.065 7545.33 317.47C7545.33 321.746 7541.06 324.855 7534.83 324.855Z" fill="white"/>
<path d="M7666.42 260.719C7649.31 260.719 7639.72 268.493 7634.41 285.078V264.217H7594.48V340.922H7634.92V305.55C7634.92 295.832 7638.68 290.908 7646.72 290.908C7654.37 290.908 7657.61 296.221 7657.61 305.29V340.922H7698.05V297.516C7698.05 273.028 7687.16 260.719 7666.42 260.719Z" fill="white"/>
<path d="M7789.28 296.35L7812.61 264.217H7768.67L7749.1 292.981V247.632H7708.66V340.922H7749.1V300.237L7769.58 340.922H7814.29L7789.28 296.35Z" fill="white"/>
<path d="M7872.26 279.895L7855.67 250.224H7809.01L7850.1 313.842V340.922H7894.81V313.842L7935.77 250.224H7889.11L7872.26 279.895Z" fill="white"/>
<path d="M7974.02 343.772C8009.01 343.772 8027.94 325.114 8027.94 301.403C8027.94 277.692 8008.88 260.719 7974.02 260.719C7938.89 260.719 7919.97 277.822 7919.97 301.403C7919.97 324.985 7938.89 343.772 7974.02 343.772ZM7974.02 316.174C7965.2 316.174 7960.15 310.862 7960.15 302.181C7960.15 293.629 7965.2 288.446 7974.02 288.446C7982.57 288.446 7987.63 293.629 7987.63 302.181C7987.63 310.862 7982.57 316.174 7974.02 316.174Z" fill="white"/>
<path d="M8098.07 301.792C8098.07 311.251 8094.44 316.174 8086.54 316.174C8078.63 316.174 8075.78 311.251 8075.78 302.051V264.217H8035.34V310.991C8035.34 331.852 8045.97 343.643 8066.84 343.643C8082.91 343.643 8093.41 336.257 8098.07 323.171V340.922H8138.38V264.217H8098.07V301.792Z" fill="white"/>
<path d="M8202.28 340.922C8247.13 340.922 8265.79 318.766 8265.79 294.925C8265.79 269.4 8246.22 250.224 8206.04 250.224H8150.69V340.922H8202.28ZM8191.78 276.526H8203.19C8216.02 276.526 8221.72 284.559 8221.72 294.925C8221.72 306.716 8214.98 314.619 8201.5 314.619H8191.78V276.526Z" fill="white"/>
<path d="M8294.69 269.789C8307.39 269.789 8316.2 263.828 8316.2 255.536C8316.2 247.373 8307.39 241.413 8294.69 241.413C8281.72 241.413 8272.65 247.373 8272.65 255.536C8272.65 263.828 8281.72 269.789 8294.69 269.789ZM8314.65 340.922V273.417H8274.21V340.922H8314.65Z" fill="white"/>
<path d="M8369.66 343.513C8398.95 343.513 8413.85 332.759 8413.85 317.081C8413.85 301.144 8404.13 295.184 8385.86 292.981L8373.8 291.297C8368.49 290.52 8366.54 289.613 8366.54 287.669C8366.54 285.596 8369.14 284.171 8377.43 284.171C8389.1 284.171 8401.02 287.28 8409.45 291.427V268.752C8401.41 264.347 8387.15 260.589 8370.17 260.589C8342.7 260.589 8325.07 270.825 8325.07 287.021C8325.07 298.553 8331.68 305.938 8351.9 309.825L8364.73 312.417C8370.82 313.583 8371.86 315.008 8371.86 316.822C8371.86 318.636 8369.66 320.061 8364.73 320.061C8351.25 320.061 8332.71 315.138 8324.16 308.27V332.37C8336.47 339.497 8352.81 343.513 8369.66 343.513Z" fill="white"/>
<path d="M8471.69 343.772C8485.43 343.772 8497.88 340.922 8507.47 335.869V310.344C8501.89 312.935 8493.86 315.397 8485.04 315.397C8468.58 315.397 8461.45 309.307 8461.45 302.181C8461.45 294.666 8469.75 289.224 8485.17 289.224C8494.25 289.224 8502.28 291.815 8507.34 294.666V268.363C8499.3 263.958 8488.15 260.719 8472.21 260.719C8436.96 260.719 8418.81 278.599 8418.81 301.792C8418.81 324.855 8435.92 343.772 8471.69 343.772Z" fill="white"/>
<path d="M8567.92 343.772C8602.92 343.772 8621.84 325.114 8621.84 301.403C8621.84 277.692 8602.79 260.719 8567.92 260.719C8532.79 260.719 8513.87 277.822 8513.87 301.403C8513.87 324.985 8532.79 343.772 8567.92 343.772ZM8567.92 316.174C8559.11 316.174 8554.05 310.862 8554.05 302.181C8554.05 293.629 8559.11 288.446 8567.92 288.446C8576.47 288.446 8581.53 293.629 8581.53 302.181C8581.53 310.862 8576.47 316.174 8567.92 316.174Z" fill="white"/>
<path d="M8695.35 262.144C8681.09 262.144 8673.05 270.307 8669.42 289.224V264.217H8629.89V340.922H8670.33V323.43C8670.33 304.383 8679.15 296.868 8694.18 296.868C8700.79 296.868 8705.72 298.423 8708.18 299.849V264.995C8705.85 263.828 8701.05 262.144 8695.35 262.144Z" fill="white"/>
<path d="M8781.06 283.652C8776.26 267.975 8766.28 260.719 8749.69 260.719C8726.49 260.719 8711.97 278.858 8711.97 302.051C8711.97 326.41 8725.06 343.772 8747.62 343.772C8764.6 343.772 8776 336.905 8781.06 320.839V340.922H8821.5V247.632H8781.06V283.652ZM8767.58 315.656C8759.28 315.656 8753.84 310.344 8753.84 302.181C8753.84 294.148 8759.28 288.965 8767.71 288.965C8776.13 288.965 8781.19 294.148 8781.19 302.051C8781.19 310.084 8776 315.656 8767.58 315.656Z" fill="white"/>
</g>
<defs>
<linearGradient id="paint0_linear_403_2" x1="5400" y1="0" x2="5400" y2="6855" gradientUnits="userSpaceOnUse">
<stop stop-color="#5865F2"/>
<stop offset="1" stop-color="#B2ADFF"/>
</linearGradient>
<linearGradient id="paint1_linear_403_2" x1="5400" y1="3738" x2="5400" y2="6195" gradientUnits="userSpaceOnUse">
<stop stop-color="#85C28D"/>
<stop offset="1" stop-color="#2FB67E"/>
</linearGradient>
<clipPath id="clip0_403_2">
<rect width="10800" height="4500" fill="white"/>
</clipPath>
</defs>
</svg>
