<svg width="5400" height="1800" viewBox="0 0 5400 1800" fill="none" xmlns="http://www.w3.org/2000/svg">
<g clip-path="url(#clip0_403_2)">
<path fill-rule="evenodd" clip-rule="evenodd" d="M5400 1605.8C5185.5 1589.95 4968.01 1655.36 4707 1814.77C3974.01 1344.58 3666.35 1460.56 2943.65 1905H5400V1605.8ZM2677.76 1905H0V1571C157.601 1515.74 321.071 1497.21 486.3 1542.07C552.414 1559.93 622.272 1558.4 687.54 1537.65C752.805 1516.91 810.729 1477.83 854.4 1425.07C1257.3 937.273 1521.6 1120.57 2002.5 1680.67C2180.99 1445.15 2331.42 1567.72 2677.76 1905Z" fill="#5865F2"/>
<path fill-rule="evenodd" clip-rule="evenodd" d="M900 1800.35L975 1748.02C1050 1695.69 1200 1591.04 1350 1564.87C1500 1538.71 1650 1591.04 1800 1643.36C1950 1695.69 2100 1748.02 2250 1713.13C2400 1678.25 2550 1556.15 2700 1486.38C2850 1416.61 3000 1399.17 3150 1442.77C3300 1486.38 3450 1591.04 3600 1608.48C3750 1625.92 3900 1556.15 4050 1582.31C4200 1608.48 4350 1730.58 4425 1791.62L4500 1852.67V1905H4425C4350 1905 4200 1905 4050 1905C3900 1905 3750 1905 3600 1905C3450 1905 3300 1905 3150 1905C3000 1905 2850 1905 2700 1905C2550 1905 2400 1905 2250 1905C2100 1905 1950 1905 1800 1905C1650 1905 1500 1905 1350 1905C1200 1905 1050 1905 975 1905H900V1800.35Z" fill="url(#paint0_linear_403_2)"/>
<path d="M6114 1800C6012.8 1652.93 5707.4 1586.58 5480.77 1626.39C5369.87 1432.87 5028.11 1325.61 4777.85 1540.13C4551.82 1521.89 4252.48 1589.89 4224 1800H6114Z" fill="#7A73FF"/>
<path d="M5400 1800H3999C4182.93 1713.16 4504.81 1695.63 4660.56 1748.19C4873.42 1639.26 5204.2 1636.21 5400 1800V1800Z" fill="#8088FF"/>
<path d="M1122 1794C1032.85 1646.93 763.805 1580.58 564.153 1620.39C466.461 1426.87 165.385 1319.61 -55.0864 1534.13C-254.203 1515.89 -517.907 1583.89 -543 1794H1122Z" fill="#7A73FF"/>
<path d="M-102 1800H1299C1115.07 1713.16 793.185 1695.63 637.439 1748.19C424.578 1639.26 93.8018 1636.21 -102 1800V1800Z" fill="#8088FF"/>
<path d="M4016.8 1486.27C4034.07 1558.09 4031.91 1647.98 4031.91 1647.98H4011.4C4014.64 1582.88 4007.62 1490.92 4007.62 1490.92L4016.8 1486.27Z" fill="#824B6F"/>
<path d="M4018.35 1503.35L4051.99 1540.2C4057.84 1519.21 4046.63 1501.81 4023.71 1493.11C4032.98 1491.07 4061.25 1479.29 4061.25 1479.29C4053.69 1474.87 4045.09 1472.8 4036.45 1473.35C4027.81 1473.89 4019.5 1477.02 4012.5 1482.37C4004.21 1471.62 3987.15 1456.26 3962.29 1462.4L3995.44 1484.92C3969.11 1482.37 3963.26 1494.65 3954 1507.95L3996.41 1503.35L4003.72 1551.97C4003.72 1551.97 4024.69 1523.31 4018.35 1503.35Z" fill="#85C286"/>
<path fill-rule="evenodd" clip-rule="evenodd" d="M1639 1671.69C1643.45 1667.83 1645.17 1659.35 1642.82 1650.49C1640.16 1640.46 1633.2 1633.43 1626.7 1633.81C1631.72 1642.98 1636.03 1656.75 1639 1671.69Z" fill="#535379"/>
<path d="M1615.87 1622.63C1629.11 1626.07 1640.78 1666.87 1642.93 1701.71L1572 1697.89C1582.33 1655.56 1588.95 1615.74 1615.87 1622.63Z" fill="#6C6C96"/>
<ellipse cx="1609.73" cy="1653.42" rx="16.7143" ry="9.28574" transform="rotate(3.08332 1609.73 1653.42)" fill="#535379"/>
<path d="M2780.11 1545.15C2793.58 1545.21 2809.17 1563.18 2814.72 1579.45L2744 1586.05C2750.08 1564.74 2752.73 1545.07 2780.11 1545.15Z" fill="#535379"/>
<path d="M2780.11 1545.15C2793.58 1545.21 2809.17 1563.18 2814.73 1579.45L2744 1586.05C2750.08 1564.74 2752.73 1545.07 2780.11 1545.15Z" fill="#6C6C96"/>
<path d="M3271.68 1581.6C3284.89 1584.43 3296.6 1610.84 3298.79 1633.01L3228 1627.13C3238.25 1600.82 3244.8 1575.92 3271.68 1581.6Z" fill="#535379"/>
<path d="M3271.68 1581.6C3284.89 1584.43 3296.6 1610.84 3298.79 1633.01L3228 1627.13C3238.25 1600.82 3244.8 1575.92 3271.68 1581.6Z" fill="#6C6C96"/>
<path d="M3943.55 1717.96L3796.67 1724.04L3793.22 1640.47L3940.09 1634.4L3943.55 1717.96Z" fill="#BACFFF"/>
<path d="M3863 1721.3L3796.67 1724.04L3793.21 1640.31L3859.54 1637.57L3863 1721.3Z" fill="#C8D9FF"/>
<path d="M3810.89 1723.45L3829.84 1722.67L3828.47 1689.52C3828.35 1686.59 3827.26 1683.81 3825.44 1681.82C3823.62 1679.82 3821.22 1678.74 3818.76 1678.85C3816.31 1678.95 3814.01 1680.21 3812.36 1682.36C3810.71 1684.5 3809.86 1687.35 3809.98 1690.28L3811.35 1723.43L3810.89 1723.45Z" fill="#827D99"/>
<path d="M3794.64 1674.92L3826.38 1639.17L3793.22 1640.54L3794.64 1674.92Z" fill="#D4E1FF"/>
<path d="M3940.09 1634.47L3793.22 1640.54L3825.78 1609.68L3905.09 1606.4L3940.09 1634.47Z" fill="#23283D"/>
<path d="M3859.55 1637.8L3825.17 1609.7L3793.22 1640.54L3859.55 1637.8Z" fill="#4E4766"/>
<path d="M3888.22 1701.11C3883.71 1701.38 3879.81 1697.81 3879.53 1693.12C3879.25 1688.44 3882.68 1684.43 3887.2 1684.16C3891.72 1683.89 3895.61 1687.47 3895.89 1692.14C3896.18 1696.83 3892.74 1700.84 3888.22 1701.11V1701.11Z" fill="#6BA1D1"/>
<path d="M3919.61 1699.81C3915.09 1700.08 3911.2 1696.51 3910.92 1691.82C3910.64 1687.14 3914.07 1683.13 3918.59 1682.86C3923.11 1682.59 3927 1686.17 3927.28 1690.85C3927.57 1695.53 3924.13 1699.54 3919.61 1699.81Z" fill="#6BA1D1"/>
<path d="M3918.27 1667.36C3913.75 1667.63 3909.86 1664.06 3909.58 1659.37C3909.29 1654.7 3912.73 1650.68 3917.25 1650.41C3921.77 1650.14 3925.66 1653.72 3925.94 1658.4C3926.22 1663.08 3922.79 1667.09 3918.27 1667.36Z" fill="#6BA1D1"/>
<path d="M3886.88 1668.66C3882.36 1668.93 3878.47 1665.36 3878.19 1660.67C3877.91 1655.99 3881.34 1651.98 3885.86 1651.71C3890.38 1651.44 3894.27 1655.02 3894.55 1659.7C3894.84 1664.38 3891.4 1668.39 3886.88 1668.66V1668.66Z" fill="#6BA1D1"/>
<path d="M4647 1664.04L4620 1651.5L4647 1638.96L4659.01 1611.78C4659.01 1610.74 4659.01 1610.74 4660 1611.78L4671.01 1638.96H4672L4698 1651.5L4672 1664.04H4671.01L4660 1691.22C4659.01 1692.26 4659.01 1692.26 4659.01 1691.22L4647 1664.04Z" fill="#FFF5CF"/>
<path d="M5183.56 1537.26L5170.36 1510.58L5199.26 1517.7L5225.64 1504.03C5226.3 1503.22 5226.3 1503.22 5226.42 1504.66L5217.98 1532.74L5218.76 1533.36L5231.18 1559.42L5203.05 1552.91L5202.28 1552.29L5176.68 1566.59C5175.25 1566.78 5175.25 1566.78 5175.9 1565.97L5183.56 1537.26Z" fill="#FDE37E"/>
<path d="M211.79 1529.06L226.363 1503.11L236.795 1530.98L262.972 1545.04C264.012 1545.12 264.012 1545.12 262.896 1546.03L234.954 1554.92L234.878 1555.91L220.381 1580.88L209.872 1553.99L209.948 1553L183.694 1539.94C182.731 1538.87 182.731 1538.87 183.771 1538.95L211.79 1529.06Z" fill="#FFF4CC"/>
<path d="M3699.6 492.3C3691.65 487.155 3684.9 480.372 3679.77 472.404C3674.64 464.439 3671.28 455.469 3669.9 446.1L3665.1 413.7C3664.92 412.959 3664.5 412.296 3663.9 411.81C3663.3 411.324 3662.55 411.039 3661.8 411C3661.02 410.988 3660.27 411.252 3659.64 411.747C3659.04 412.239 3658.65 412.932 3658.5 413.7L3653.7 446.1C3652.26 455.49 3648.84 464.466 3643.68 472.431C3638.49 480.396 3631.68 487.17 3623.7 492.3L3619.5 495C3619.05 495.312 3618.69 495.714 3618.45 496.182C3618.18 496.647 3618.03 497.166 3618 497.7C3618 498.24 3618.15 498.765 3618.42 499.236C3618.66 499.707 3619.05 500.106 3619.5 500.4L3623.7 503.1C3631.71 508.293 3638.52 515.121 3643.68 523.134C3648.84 531.15 3652.26 540.171 3653.7 549.6L3658.5 582C3658.65 582.768 3659.04 583.461 3659.64 583.956C3660.27 584.448 3661.02 584.712 3661.8 584.7C3662.55 584.661 3663.3 584.376 3663.9 583.893C3664.5 583.407 3664.92 582.744 3665.1 582L3669.9 549.6C3671.28 540.189 3674.64 531.177 3679.77 523.161C3684.87 515.145 3691.65 508.308 3699.6 503.1L3704.1 500.4C3704.52 500.091 3704.85 499.683 3705.06 499.209C3705.27 498.735 3705.36 498.216 3705.3 497.7C3705.33 497.187 3705.24 496.677 3705.03 496.209C3704.82 495.741 3704.49 495.327 3704.1 495L3699.6 492.3Z" fill="#AFD7FF"/>
<path d="M5174.1 1191.3C5167.65 1187.11 5162.19 1181.6 5158.05 1175.14C5153.91 1168.67 5151.21 1161.4 5150.1 1153.8L5145.9 1127.7C5145.9 1127.06 5145.66 1126.45 5145.21 1126C5144.76 1125.55 5144.13 1125.3 5143.5 1125.3C5142.84 1125.3 5142.18 1125.54 5141.7 1125.98C5141.19 1126.42 5140.86 1127.04 5140.8 1127.7L5136.9 1153.8C5135.73 1161.42 5132.97 1168.7 5128.8 1175.17C5124.6 1181.63 5119.08 1187.13 5112.6 1191.3L5109.3 1193.4C5108.97 1193.65 5108.67 1193.96 5108.49 1194.32C5108.28 1194.69 5108.13 1195.09 5108.1 1195.5C5108.1 1195.93 5108.19 1196.34 5108.43 1196.71C5108.64 1197.08 5108.94 1197.39 5109.3 1197.6L5112.6 1199.7C5119.05 1203.9 5124.54 1209.4 5128.74 1215.87C5132.91 1222.33 5135.7 1229.59 5136.9 1237.2L5140.8 1263.3C5140.86 1263.96 5141.19 1264.57 5141.7 1265.02C5142.18 1265.46 5142.84 1265.71 5143.5 1265.7C5144.13 1265.7 5144.76 1265.45 5145.21 1265C5145.66 1264.55 5145.9 1263.94 5145.9 1263.3L5150.1 1237.2C5151.24 1229.62 5153.97 1222.35 5158.11 1215.89C5162.25 1209.43 5167.68 1203.91 5174.1 1199.7L5177.4 1197.6C5177.79 1197.42 5178.12 1197.12 5178.33 1196.74C5178.54 1196.36 5178.63 1195.93 5178.6 1195.5C5178.6 1195.07 5178.48 1194.66 5178.27 1194.29C5178.06 1193.92 5177.76 1193.61 5177.4 1193.4L5174.1 1191.3Z" fill="#404EED"/>
<path d="M412.501 788.699C407.794 785.753 403.798 781.805 400.789 777.14C397.783 772.472 395.839 767.201 395.101 761.699L392.101 742.499C392.029 742.076 391.807 741.692 391.477 741.416C391.147 741.14 390.729 740.993 390.3 740.999C389.868 740.993 389.451 741.14 389.121 741.416C388.791 741.692 388.57 742.076 388.501 742.499L385.501 761.699C384.703 767.183 382.735 772.433 379.732 777.089C376.732 781.748 372.763 785.708 368.101 788.699L365.701 790.199C365.413 790.325 365.17 790.535 365.008 790.805C364.846 791.075 364.773 791.387 364.8 791.699C364.773 792.011 364.846 792.326 365.008 792.593C365.17 792.863 365.413 793.076 365.701 793.199L368.101 794.699C372.748 797.783 376.696 801.803 379.693 806.507C382.69 811.208 384.667 816.485 385.501 821.999L388.501 840.899C388.57 841.322 388.791 841.706 389.121 841.982C389.451 842.258 389.868 842.405 390.3 842.399C390.729 842.405 391.147 842.258 391.477 841.982C391.807 841.706 392.029 841.322 392.101 840.899L395.101 821.999C395.875 816.47 397.831 811.169 400.834 806.459C403.834 801.749 407.815 797.738 412.501 794.699L414.901 793.199C415.189 793.076 415.429 792.863 415.591 792.593C415.753 792.326 415.824 792.011 415.8 791.699C415.824 791.387 415.753 791.075 415.591 790.805C415.429 790.535 415.189 790.325 414.901 790.199L412.501 788.699Z" fill="#91FFAD"/>
<path d="M1299 626.677C1298.58 600.631 1289.13 575.539 1272.27 555.682C1255.41 535.825 1232.19 522.436 1206.54 517.798C1180.92 513.16 1154.46 517.561 1131.72 530.251C1108.98 542.938 1091.31 563.131 1081.8 587.377C1073.43 585.559 1064.88 584.653 1056.3 584.677C1039.08 584.623 1022.07 588.361 1006.47 595.618C990.87 602.878 977.04 613.48 966 626.677H1299Z" fill="#CDD1FF" fill-opacity="0.5"/>
<path d="M5119.8 811.5C5127.33 811.581 5134.8 809.994 5141.64 806.853C5148.48 803.709 5154.54 799.089 5159.4 793.323C5164.23 787.56 5167.74 780.792 5169.66 773.508C5171.58 766.224 5171.88 758.607 5170.5 751.2C5156.13 673.668 5116.89 602.922 5058.78 549.642C5000.64 496.362 4926.75 463.443 4848.27 455.856C4769.76 448.266 4690.95 466.422 4623.69 507.579C4556.43 548.736 4504.38 610.659 4475.4 684C4448.58 678.213 4421.22 675.294 4393.8 675.3C4341.09 675.213 4288.92 686.136 4240.68 707.367C4192.44 728.598 4149.15 759.672 4113.6 798.6C4112.64 799.719 4112.01 801.087 4111.8 802.548C4111.56 804.009 4111.77 805.503 4112.37 806.856C4112.97 808.206 4113.93 809.361 4115.16 810.183C4116.39 811.005 4117.83 811.461 4119.3 811.5H5119.8Z" fill="#CDD1FF" fill-opacity="0.5"/>
<path d="M2930.06 1412.73C2913.14 1469.44 2908.61 1543.18 2908.61 1543.18L2922.89 1545.11C2925.38 1491.66 2936.17 1416.5 2936.17 1416.5L2930.06 1412.73Z" fill="#824B6F"/>
<path d="M2921.96 1424.59L2902.87 1456.04C2891.88 1437.96 2896.22 1423.03 2914.64 1415.95C2905.8 1414.27 2877.43 1404.51 2877.43 1404.51C2888.21 1397.68 2903.34 1396.48 2921.86 1407C2925.84 1397.29 2936.82 1384.55 2961 1389.38L2937.61 1408.59C2960.22 1406.45 2968.75 1417.01 2981.25 1428.13L2941.95 1424.49L2949.03 1466.21C2949.03 1466.21 2922.65 1441.31 2921.96 1424.59V1424.59Z" fill="#58A67E"/>
<path d="M3932.19 82.2921H3893.6V90.6466H3908.07V124.365H3917.95V90.6466H3932.19V82.2921ZM3960.11 88.2424C3953.63 88.2424 3949.34 91.2476 3946.93 97.4384V81.09H3937.4V124.365H3946.93V106.694C3946.93 100.744 3950.1 96.5969 3956.1 96.5969C3961.63 96.5969 3964.34 99.9628 3964.34 106.995V124.365H3973.93V104.831C3973.93 94.1928 3968.93 88.2424 3960.11 88.2424ZM3995.86 88.2424C3989.5 88.2424 3985.09 90.3461 3981.92 92.7503V100.985C3984.92 97.9793 3988.56 96.3565 3993.15 96.3565C3999.45 96.3565 4004.15 99.6022 4004.21 106.274V107.836C4001.8 104.531 3998.03 102.848 3993.03 102.848C3985.15 102.848 3980.09 107.596 3980.09 114.087C3980.09 120.579 3984.97 125.507 3992.56 125.507C3997.86 125.507 4001.92 123.524 4004.27 119.677V124.365H4013.62V105.372C4013.62 94.313 4006.98 88.2424 3995.86 88.2424ZM3996.33 119.196C3991.86 119.196 3989.21 116.912 3989.21 113.667C3989.21 110.481 3991.86 108.197 3996.5 108.197C4001.15 108.197 4004.27 110.481 4004.27 113.546C4004.27 116.792 4000.98 119.196 3996.33 119.196ZM4044.5 88.2424C4037.97 88.2424 4033.67 91.3078 4031.26 97.5586V89.6849H4021.79V124.365H4031.32V106.694C4031.32 100.744 4034.5 96.5969 4040.5 96.5969C4046.03 96.5969 4048.73 99.9628 4048.73 106.995V124.365H4058.32V104.831C4058.32 94.1928 4053.32 88.2424 4044.5 88.2424ZM4085.96 104.591L4102.02 89.6849H4090.25L4076.19 103.389V81.09H4066.54V124.365H4076.19V106.093L4091.37 124.365H4103.14L4085.96 104.591ZM4125.18 101.045L4113.89 82.2921H4102.77L4120.07 109.88V124.365H4130.42V109.88L4147.95 82.2921H4136.71L4125.18 101.045ZM4164.74 125.387C4177.15 125.387 4184.68 117.153 4184.68 106.694C4184.68 96.1762 4177.15 88.2424 4164.74 88.2424C4152.45 88.2424 4144.8 96.1762 4144.8 106.694C4144.8 117.153 4152.45 125.387 4164.74 125.387ZM4164.74 117.513C4158.39 117.513 4154.5 113.005 4154.5 106.815C4154.5 100.564 4158.39 96.2363 4164.74 96.2363C4171.09 96.2363 4174.98 100.564 4174.98 106.815C4174.98 113.005 4171.09 117.513 4164.74 117.513ZM4217.33 107.897C4217.33 113.967 4214.15 117.754 4208.51 117.754C4203.09 117.754 4200.39 114.748 4200.39 108.377V89.6849H4190.74V110.361C4190.74 120.218 4195.68 125.627 4204.56 125.627C4210.39 125.627 4214.98 122.983 4217.33 117.333V124.365H4226.92V89.6849H4217.33V107.897ZM4254.86 124.365C4271.45 124.365 4279.81 115.289 4279.81 103.148C4279.81 91.0673 4271.98 82.2921 4256.45 82.2921H4236.16V124.365H4254.86ZM4246.04 90.1057H4255.63C4265.1 90.1057 4269.33 95.3948 4269.33 103.088C4269.33 111.443 4264.16 116.552 4254.75 116.552H4246.04V90.1057ZM4291.46 88.002C4294.64 88.002 4296.99 85.9585 4296.99 83.2538C4296.99 80.5491 4294.64 78.6257 4291.46 78.6257C4288.28 78.6257 4285.87 80.5491 4285.87 83.2538C4285.87 85.9585 4288.23 88.002 4291.46 88.002ZM4296.23 124.365V90.7668H4286.64V124.365H4296.23ZM4319.61 125.387C4329.55 125.387 4335.32 120.879 4335.32 114.147C4335.32 108.077 4331.49 105.192 4325.14 103.87L4318.31 102.367C4314.73 101.525 4313.2 100.624 4313.2 98.7607C4313.2 96.7171 4315.43 95.3948 4320.14 95.3948C4325.55 95.3948 4330.14 97.198 4333.43 99.4819V92.0891C4330.26 89.9855 4325.55 88.2424 4319.31 88.2424C4309.49 88.2424 4303.49 92.5699 4303.49 98.8208C4303.49 103.569 4306.25 106.875 4313.78 108.798L4321.31 110.601C4324.9 111.563 4325.43 113.066 4325.43 114.448C4325.43 116.792 4323.26 118.234 4318.84 118.234C4313.37 118.234 4307.61 116.431 4303.31 113.066V120.699C4307.9 123.824 4313.67 125.387 4319.61 125.387ZM4360.02 125.387C4365.55 125.387 4370.03 123.884 4373.85 121.18V113.366C4371.14 115.41 4367.08 117.213 4362.5 117.213C4353.97 117.213 4349.55 112.585 4349.55 106.755C4349.55 100.804 4354.32 96.4166 4362.32 96.4166C4367.2 96.4166 4371.03 98.2198 4373.67 100.444V92.2694C4370.85 90.1057 4366.73 88.2424 4360.32 88.2424C4347.38 88.2424 4339.55 96.2964 4339.55 106.755C4339.55 117.153 4347.08 125.387 4360.02 125.387ZM4398.22 125.387C4410.63 125.387 4418.16 117.153 4418.16 106.694C4418.16 96.1762 4410.63 88.2424 4398.22 88.2424C4385.92 88.2424 4378.27 96.1762 4378.27 106.694C4378.27 117.153 4385.92 125.387 4398.22 125.387ZM4398.22 117.513C4391.86 117.513 4387.98 113.005 4387.98 106.815C4387.98 100.564 4391.86 96.2363 4398.22 96.2363C4404.57 96.2363 4408.45 100.564 4408.45 106.815C4408.45 113.005 4404.57 117.513 4398.22 117.513ZM4444.1 89.0238C4439.34 89.0238 4435.81 92.2093 4434.16 99.1814V89.6849H4424.69V124.365H4434.34V109.399C4434.39 101.586 4438.1 97.9192 4443.34 97.9192C4445.75 97.9192 4447.69 98.5804 4448.98 99.5421V90.4663C4447.81 89.6248 4446.16 89.0238 4444.1 89.0238ZM4481.94 96.8975C4479.47 91.3679 4474.99 88.2424 4468.52 88.2424C4458.88 88.2424 4451.64 95.8757 4451.64 106.875C4451.64 117.393 4458.05 125.387 4467.7 125.387C4474.82 125.387 4479.52 121.841 4481.94 116.431V124.365H4491.53V81.09H4481.94V96.8975ZM4471.64 117.393C4465.52 117.393 4461.58 112.945 4461.58 106.815C4461.58 100.684 4465.52 96.2363 4471.76 96.2363C4478.11 96.2363 4482.05 100.624 4482.05 106.634C4482.05 112.765 4477.99 117.393 4471.64 117.393Z" fill="white"/>
<path d="M3845.04 126.319C3845.04 115.596 3836.54 106.904 3826.07 106.904C3819.7 106.904 3814.09 110.117 3810.65 115.028C3807.2 110.117 3801.59 106.904 3795.23 106.904C3784.75 106.904 3776.26 115.594 3776.26 126.319C3776.26 127.838 3776.44 129.31 3776.77 130.729C3779.4 147.478 3797.6 165.148 3810.65 170C3823.69 165.148 3841.89 147.478 3844.52 130.731C3844.85 129.312 3845.04 127.84 3845.04 126.319Z" fill="white"/>
<path fill-rule="evenodd" clip-rule="evenodd" d="M3852.37 54.3132C3844.66 50.6747 3836.4 47.994 3827.75 46.4586C3827.6 46.429 3827.44 46.503 3827.36 46.6511C3826.3 48.5962 3825.12 51.1338 3824.29 53.1284C3815 51.6967 3805.75 51.6967 3796.65 53.1284C3795.82 51.0895 3794.6 48.5962 3793.54 46.6511C3793.45 46.508 3793.3 46.4339 3793.14 46.4586C3784.5 47.9891 3776.24 50.6698 3768.53 54.3132C3768.46 54.343 3768.4 54.3924 3768.36 54.4565C3752.69 78.5538 3748.39 102.059 3750.5 125.272C3750.51 125.386 3750.57 125.494 3750.66 125.564C3758.92 131.806 3766.97 136.089 3774.89 139.163C3773.92 136.655 3773.19 134.098 3772.77 131.528C3772.41 129.88 3772.19 128.139 3772.19 126.319C3772.19 113.304 3782.5 102.748 3795.23 102.748C3801.17 102.748 3806.57 105.057 3810.65 108.822C3814.72 105.057 3820.12 102.748 3826.07 102.748C3838.8 102.748 3849.11 113.307 3849.11 126.319C3849.11 128.139 3848.89 129.882 3848.52 131.535C3848.11 134.038 3847.41 136.528 3846.47 138.974C3854.26 135.914 3862.15 131.679 3870.25 125.564C3870.34 125.494 3870.4 125.391 3870.4 125.277C3872.93 98.4398 3866.18 75.1276 3852.53 54.4614C3852.49 54.3924 3852.44 54.343 3852.37 54.3132ZM3828.97 94.0576C3833.56 94.0576 3837.83 95.3984 3841.44 97.7168C3841.13 91.2563 3836.43 86.058 3830.59 86.058C3825.35 86.058 3821.04 90.2739 3819.98 95.8891C3822.74 94.7097 3825.78 94.0576 3828.97 94.0576ZM3790.84 94.0576C3794.55 94.0576 3798.04 94.9351 3801.15 96.4955C3800.35 90.6135 3795.87 86.058 3790.41 86.058C3784.84 86.058 3780.32 90.8202 3779.63 96.9632C3782.96 95.1104 3786.78 94.0576 3790.84 94.0576Z" fill="white"/>
<path d="M4580.32 104.535L4600.19 76.2817H4583.63L4570.22 96.3299L4557.38 76.2817H4540.99L4560.53 104.535L4540.33 135.496H4556.47L4570.22 113.502L4583.88 135.496H4600.68L4580.32 104.535Z" fill="white"/>
<path d="M4695.99 93.2364H4691.07C4687.02 93.2364 4683.74 90.3325 4683.74 86.7585L4686.86 48.3822C4686.86 45.8676 4681.44 42 4678.59 42H4670.89C4668.05 42 4662.62 45.8293 4662.62 48.3822L4665.74 86.7585C4665.74 90.3325 4662.46 93.2364 4658.41 93.2364H4653.49C4649.95 93.2364 4647.08 95.7893 4647.08 98.8846V107.373C4647.15 108.158 4647.81 108.746 4648.58 108.694H4700.91C4701.68 108.749 4702.35 108.159 4702.41 107.373V98.9102C4702.4 95.7701 4699.53 93.2364 4695.99 93.2364ZM4677.99 54.005C4677.91 55.2217 4676.87 56.1377 4675.68 56.0536H4673.81C4672.62 56.1341 4671.59 55.22 4671.49 54.005V49.697C4671.59 48.487 4672.62 47.5803 4673.81 47.661H4675.68C4676.87 47.5767 4677.9 48.4853 4677.99 49.697V54.005Z" fill="white"/>
<path d="M4704.23 135.386V158.087C4704.23 162.208 4700.96 165.548 4696.93 165.548H4652.8C4650.86 165.548 4649.01 164.762 4647.64 163.362C4646.27 161.963 4645.5 160.065 4645.5 158.087V142.808V127.382C4645.5 123.382 4648.68 120.138 4652.59 120.138H4653.62C4657.54 120.138 4660.71 123.382 4660.71 127.382V140.051C4660.72 141.572 4661.92 142.805 4663.41 142.808C4664.9 142.808 4666.11 141.574 4666.11 140.051V123.419C4666.11 119.421 4669.28 116.179 4673.2 116.175H4676.12C4678 116.175 4679.81 116.938 4681.14 118.297C4682.47 119.655 4683.21 121.498 4683.21 123.419V139.311C4683.21 140.238 4683.58 141.128 4684.22 141.784C4684.86 142.44 4685.73 142.808 4686.64 142.808C4688.53 142.805 4690.06 141.241 4690.06 139.311V135.558C4690.03 131.708 4692.9 128.482 4696.66 128.161C4698.62 128.023 4700.55 128.722 4701.98 130.092C4703.42 131.461 4704.23 133.378 4704.23 135.386H4704.23Z" fill="white"/>
<path d="M4729.06 129.93H4741.93V114.724H4749.48C4761.77 114.724 4768.03 105.541 4768.03 96.2854C4768.03 87.1028 4761.84 77.9202 4749.41 77.9202H4729.06V129.93ZM4741.93 103.044V90.1881H4749.41C4757.17 90.1147 4757.17 103.117 4749.41 103.044H4741.93ZM4800.61 129.93H4816.65L4802.77 112.079C4808.95 110.096 4812.76 104.66 4812.76 95.0366C4812.48 82.842 4804.35 77.9202 4793.85 77.9202H4773.5V129.93H4786.52V113.402H4788.82L4800.61 129.93ZM4786.52 102.089V90.1881H4794.07C4802.19 90.1881 4802.19 102.089 4794.07 102.089H4786.52ZM4818.34 112.814C4818.34 124.715 4828.91 130.665 4839.49 130.665C4850.05 130.665 4860.55 124.715 4860.55 112.814V95.0366C4860.55 83.1359 4849.98 77.1855 4839.41 77.1855C4828.84 77.1855 4818.34 83.0624 4818.34 95.0366V112.814ZM4831.21 95.0366C4831.21 91.2166 4835.24 89.1597 4839.27 89.1597C4843.44 89.1597 4847.68 90.9962 4847.68 95.0366V112.814C4847.68 116.561 4843.58 118.471 4839.49 118.471C4835.38 118.471 4831.21 116.634 4831.21 112.814V95.0366ZM4863.57 114.651C4865.01 125.67 4873.72 130.665 4882.48 130.665C4892.19 130.665 4901.9 124.274 4901.9 112.961V77.9202H4877.59V89.8208H4889.17V112.961C4889.17 115.973 4886.15 117.956 4882.99 117.956C4879.83 117.956 4876.44 116.267 4875.72 112.079L4863.57 114.651ZM4922.6 90.2616H4945.03V77.9202H4909.58V129.93H4945.03V117.516H4922.6V109.729H4943.23V98.3423H4922.6V90.2616ZM4977.46 113.696C4974.66 120.895 4963.16 119.132 4963.16 112.888V94.9631C4963.16 88.4985 4974.51 87.0293 4977.96 93.4939L4988.46 89.1597C4984.37 79.9036 4976.82 77.1855 4970.55 77.1855C4960.35 77.1855 4950.28 83.2093 4950.28 94.9631V112.888C4950.28 124.715 4960.35 130.665 4970.35 130.665C4976.74 130.665 4984.43 127.433 4988.68 118.985L4977.46 113.696ZM5030.38 90.3351V77.8467H4990.34V90.3351H5003.85V129.93H5016.86V90.3351H5030.38ZM5083.89 93.7877C5084.17 83.8705 5077.06 77.9202 5067.35 77.9202H5046.93V129.93H5067.71C5078.99 129.93 5084.53 124.862 5085.83 116.487C5086.48 112.52 5085.61 105.835 5078.63 102.236C5082.31 100.326 5083.81 96.1385 5083.89 93.7877ZM5059.87 98.2688V89.0128H5067.35C5073.82 89.0128 5073.6 98.2688 5067.35 98.2688H5059.87ZM5059.87 118.397V107.745H5067.35C5074.97 107.745 5075.12 118.397 5067.35 118.397H5059.87ZM5091.8 129.93H5125.45V116.928H5104.74V77.9202H5091.8V129.93ZM5142.58 77.9202H5129.57V112.52C5129.49 136.909 5170.11 136.909 5170.19 112.52V77.9202H5157.17V112.52C5157.11 120.895 5142.58 120.895 5142.58 112.52V77.9202ZM5204.92 129.93H5220.96L5207.08 112.079C5213.25 110.096 5217.07 104.66 5217.07 95.0366C5216.78 82.842 5208.66 77.9202 5198.16 77.9202H5177.82V129.93H5190.82V113.402H5193.12L5204.92 129.93ZM5190.82 102.089V90.1881H5198.37C5206.5 90.1881 5206.5 102.089 5198.37 102.089H5190.82ZM5224.29 129.93H5237.17V114.724H5244.72C5257.01 114.724 5263.27 105.541 5263.27 96.2854C5263.27 87.1028 5257.08 77.9202 5244.64 77.9202H5224.29V129.93ZM5237.17 103.044V90.1881H5244.64C5252.41 90.1147 5252.41 103.117 5244.64 103.044H5237.17ZM5268.74 129.93H5302.39V116.928H5281.68V77.9202H5268.74V129.93ZM5320.52 90.2616H5342.95V77.9202H5307.5V129.93H5342.95V117.516H5320.52V109.729H5341.15V98.3423H5320.52V90.2616Z" fill="white"/>
</g>
<defs>
<linearGradient id="paint0_linear_403_2" x1="2700" y1="1419" x2="2700" y2="2647.5" gradientUnits="userSpaceOnUse">
<stop stop-color="#85C28D"/>
<stop offset="1" stop-color="#2FB67E"/>
</linearGradient>
<clipPath id="clip0_403_2">
<rect width="5400" height="1800" fill="white"/>
</clipPath>
</defs>
</svg>
