<svg width="892" height="373" viewBox="0 0 892 373" fill="none" xmlns="http://www.w3.org/2000/svg">
<path d="M117 373C198.576 291.501 362.848 287.78 449.522 309.736C519.286 234.315 660.925 211.738 748.47 261.606C843.103 315.567 863 373 863 373H117Z" fill="#7269FF"/>
<path d="M344 371C329.061 347.266 283.978 336.559 250.523 342.984C234.153 311.755 183.702 294.445 146.758 329.064C113.393 326.12 69.2047 337.094 65 371H344Z" fill="#7A73FF"/>
<path d="M235 372H0C30.8514 357.863 84.844 355.009 110.968 363.566C146.673 345.833 202.157 345.336 235 372Z" fill="#8088FF"/>
<path d="M892 22.2615C841.089 -5.1228 809.942 34.7183 792.868 57.7786C737.612 24.4235 670.04 61.4847 674.18 132.519C622.648 138.799 558.906 190.376 622.855 289H892V22.2615Z" fill="#7E61FF"/>
<path d="M785 172.63C758.446 153.731 712.956 152.525 696.18 172.63C678.066 168.307 651.923 168.911 637 186H785V172.63Z" fill="#9F80FF"/>
<path d="M853.32 67.0978C857.188 66.4977 861.055 68.598 861.369 75.0989C863.355 74.2988 868.268 74.0987 869 83L846.002 82.7999C845.898 71.3984 849.347 67.6979 853.32 67.0978Z" fill="#53A0A3"/>
<path d="M862.641 174.153C863.364 162.121 864.707 143.345 865.016 138.157C865.326 132.971 867.598 128.614 869.044 125.294C870.802 121.283 871.883 117.006 872.245 112.638C872.554 107.452 874 93.5515 874 88.8827C874 84.215 873.38 83.4889 865.326 82.5552C857.272 81.6217 785.299 82.0366 771.875 82.5552C758.451 83.074 749.984 83.1778 745.647 83.9039C741.309 84.63 741 85.5637 741 87.4308C741 89.298 742.136 112.846 742.136 116.58C742.136 120.315 743.892 131.414 744.201 134.423C744.51 137.431 747.402 139.817 748.848 141.995C750.294 144.174 758.657 153.717 759.587 155.17C760.517 156.623 761.445 159.112 761.858 165.025C762.272 170.937 763.924 183.074 764.234 185.875C764.543 188.676 768.467 191.685 772.185 195.108C775.902 198.531 781.272 202.784 784.782 206.414C788.293 210.046 798 218.76 806.054 216.685C814.109 214.61 832.799 209.839 839.717 204.859C846.636 199.88 853.554 190.854 856.033 187.328C858.511 183.801 862.228 181.933 862.641 174.153Z" fill="#6E4A9B"/>
<path d="M827.258 93.3291C825.513 100.505 826.026 111.265 826.232 113.828C826.437 116.391 826.95 129.1 826.642 131.046C826.334 132.994 826.334 137.709 826.232 141.604C826.225 142.025 826.331 142.441 826.541 142.809C826.75 143.176 827.054 143.48 827.421 143.689C827.788 143.899 828.205 144.006 828.628 144C829.05 143.994 829.464 143.873 829.824 143.653L845.222 134.839C846.099 134.359 846.841 133.666 847.379 132.824C847.918 131.982 848.235 131.018 848.301 130.022C848.507 126.845 848.814 122.334 848.712 120.9C848.609 119.465 851.278 113.111 852.715 110.753C854.468 107.62 855.585 104.171 856 100.607C856 98.5567 855.179 88 855.179 88L839.371 88.41L827.258 93.3291Z" fill="#5D4282"/>
<path d="M741.986 114C741.788 106.394 741 88.9653 741 87.3803C741 85.7958 741.197 84.6338 744.549 84L748 86.007C748 86.007 745.634 92.0281 745.141 94.1411C744.647 96.2529 744.056 102.064 744.056 102.064L743.071 114H741.986Z" fill="#B783D1"/>
<path d="M759.612 104.111C759.612 104.111 760.764 94.401 761.498 88.8216L768.31 85L803 90.9911C803 90.9911 802.266 105.041 802.581 108.76C802.895 112.478 803.314 115.474 802.581 116.714C801.847 117.953 799.437 122.602 797.969 125.081C796.502 127.561 795.035 129.317 795.245 130.556C795.454 131.795 797.969 143.262 797.969 143.262L795.978 168.674L763.07 182C762.441 177.041 761.393 169.397 761.183 165.162C760.764 159.274 759.716 156.691 758.878 155.349C758.039 154.006 756.887 152.87 755 150.596L757.515 117.23V110.825L759.612 104.111Z" fill="#5D4282"/>
<path d="M773.9 90C771.3 91.6756 769 94.294 768.4 95.7593C767.8 97.2259 764.3 100.367 763.4 104.346C762.5 108.325 763.4 106.65 763.4 106.65C764.732 104.982 766.168 103.407 767.7 101.938C769.4 100.577 773.2 97.7496 773.8 96.8067C774.652 94.5813 775.386 92.31 776 90H773.9Z" fill="#76589B"/>
<path d="M770.015 113.761C751.33 112.429 726.074 113.146 717.553 113.659C709.032 114.172 709.956 114.479 708.827 115.813C707.698 117.145 708.109 121.042 708.005 125.759C707.903 130.477 709.34 138.475 709.34 141.45C709.719 146.018 710.756 150.509 712.42 154.781C714.474 160.011 717.862 162.574 721.865 165.855C725.87 169.137 727.615 168.317 732.645 165.651C737.676 162.984 744.246 159.088 744.863 158.78C745.478 158.473 746.504 158.473 752.254 157.652C758.004 156.832 762.624 156.73 763.65 153.96C765.314 149.02 766.684 143.987 767.757 138.886C768.124 136.626 769.203 134.543 770.837 132.938C771.966 131.707 773.506 130.271 774.43 129.041C775.59 127.517 776.139 125.616 775.97 123.708C775.867 121.452 775.765 118.068 775.559 116.838C775.354 115.607 775.149 114.069 770.015 113.761Z" fill="#6E4A9B"/>
<path d="M716.987 126.151V133.475C716.987 134.731 715.874 136.51 715.503 138.916C715.075 141.22 714.919 143.576 715.039 145.927C715.131 148.123 715.688 146.659 715.967 144.147C716.245 141.636 718.287 138.707 719.494 136.823C720.595 135.309 721.245 133.441 721.35 131.488C721.469 129.314 721.686 127.149 722 125L716.987 126.151Z" fill="#A06DBA"/>
<path d="M731.367 120.218C723.628 119.056 715.821 118.419 708 118.311C708.04 117.464 708.251 116.633 708.621 115.874C709.758 114.496 709.862 114.073 717.409 113.649C724.957 113.225 751.427 112.378 770.246 113.755C775.416 114.073 775.519 115.768 775.829 116.934C776.139 118.1 775.933 117.781 775.933 118.311C772.934 118.628 762.387 120.431 761.044 120.642C759.699 120.854 758.251 121.808 756.184 122.655C754.115 123.503 749.979 125.728 747.809 126.046C743.147 126.691 738.449 127.01 733.746 127L716.892 126.257C716.726 125.598 716.726 124.905 716.892 124.244C717.203 123.609 718.237 122.549 723.923 121.702C729.61 120.854 734.574 120.748 731.367 120.218Z" fill="#53A0A3"/>
<path d="M741 85.9844C741.515 85.1754 742.546 84.6698 745.434 84.1641C748.322 83.6585 758.221 83.2539 771.628 82.8494L780.497 82.2427C802.05 81.8382 857.634 81.9393 864.956 82.5461C872.278 83.1528 872.072 83.8607 873 85.1754L868.256 85.8832C866.606 86.1867 859.903 87.6024 855.159 87.6024C852.787 89.3222 850.312 90.8382 844.641 90.8382C838.969 90.8382 832.059 92.5573 827.109 92.8612C822.159 93.1639 821.334 94.1754 816.075 93.9736H795.243C790.524 93.9928 785.808 93.7562 781.115 93.266C776.475 92.6582 774.928 91.1421 774.309 90.0297C770.803 90.0297 760.696 88.2092 758.015 88.108C752.282 87.9939 746.579 87.282 741 85.9844Z" fill="#53A0A3"/>
<path d="M776 46H828.481C828.619 46 828.751 46.0619 828.848 46.1723C828.945 46.2826 829 46.4323 829 46.5882L828.481 50H776.726L776 46Z" fill="#502D80"/>
<path d="M766 83H782L781.059 66.7387L780.954 65H767.045L766.941 66.7387L766 83Z" fill="#34466E"/>
<path d="M773.004 54.7176C772.967 58.1686 773.201 61.6172 773.704 65.0301C773.904 65.9489 774.004 66.8678 774.203 67.6846C775.238 73.1988 777.42 78.4217 780.602 83H786L777.402 49.9188L777.103 49H774.203L774.004 49.9188L773.604 51.6546L773.004 54.7176Z" fill="#FADECA"/>
<path d="M762 83H767.4C770.543 78.3992 772.722 73.1852 773.8 67.6846C773.99 66.8096 774.123 65.9228 774.2 65.0301C774.739 61.6203 775.006 58.1716 775 54.7176L774.3 51.6546L774 49.9188L773.8 49H770.8L770.6 49.9188L762 83Z" fill="#FADECA"/>
<path d="M777 50C775.345 52.6667 772.655 52.6667 771 50H777Z" fill="#D9A551"/>
<path d="M776 50L776.104 50.6111L780.151 65.0741L780.67 66.8056L785.132 83H787L777.868 50H776Z" fill="#BE73D1"/>
<path d="M761 83H762.868L767.33 66.8056L767.849 65.0741L771.896 50.6111L772 50H770.132L761 83Z" fill="#BE73D1"/>
<path d="M778 50L787.167 83H838L828.729 50H778Z" fill="#59338F"/>
<path d="M793.015 30.0313L791.07 29.0938C790.977 29.0938 790.977 29 791.07 29L793.015 28.0625H793.108L793.942 26H794.035L794.961 28.0625L797 29L794.961 29.9375L794.035 32H793.942L793.108 29.9375L793.015 30.0313Z" fill="#FADECA"/>
<path d="M812 75.1881C811.171 69.4863 809.513 65.5469 808.063 64.3029C806.613 63.0588 805.162 65.7543 804.126 70.4194C802.158 70.1084 800.604 70.1084 799.153 73.3222C798.343 75.0592 797.685 76.8627 797.185 78.7129C793.455 78.6092 789.414 80.6827 789 84H812V75.1881Z" fill="#53A0A3"/>
<path d="M769.55 46H778.451C778.596 46 778.736 46.0619 778.839 46.1723C778.942 46.2826 779 46.4323 779 46.5882L778.451 50H769.55L769 46.5882C769 46.4323 769.058 46.2826 769.161 46.1723C769.264 46.0619 769.404 46 769.55 46Z" fill="#BE73D1"/>
<path d="M811 29H840V83H811V29Z" fill="#EDC25C"/>
<path d="M836.789 0H814.211C813.359 0 812.542 0.349881 811.94 0.972769C811.338 1.59566 811 2.44052 811 3.32139V18H840V3.32139C840 2.88522 839.917 2.45337 839.756 2.05042C839.594 1.64733 839.358 1.28129 839.06 0.972769C838.762 0.66438 838.407 0.419757 838.018 0.252771C837.628 0.0859122 837.211 0 836.789 0Z" fill="#F065E9"/>
<path d="M811 18H840V29H811V18Z" fill="#BBD0FF"/>
<path d="M812 18H816V29H812V18Z" fill="white"/>
<path d="M823 18H840V29H823V18Z" fill="#A3B3FF"/>
<path d="M832 29H840V83H832V29Z" fill="#D9A551"/>
<path d="M832 61H846V83H832V61Z" fill="#EDC25C"/>
<path d="M846 61H858V83H846V61Z" fill="#D9A551"/>
<path d="M829 61H832V83H829V61Z" fill="#FFD97D"/>
<path d="M858 61H829L841.532 38.5157C841.617 38.3684 841.737 38.2443 841.882 38.1544C842.026 38.0644 842.191 38.0114 842.361 38H844.639C844.797 38.0082 844.949 38.0611 845.077 38.1525C845.206 38.2439 845.305 38.3699 845.364 38.5157L858 61Z" fill="#FADECA"/>
<path d="M811 29H815V83H811V29Z" fill="#FFD97D"/>
<path d="M811 24H840V26H811V24Z" fill="#7C73FF"/>
<path d="M839 56L846 60.819V67H832V60.819L839 56Z" fill="#EDC25C"/>
<path d="M852 56L858 60.819V67H846V60.819L852 56Z" fill="#D9A551"/>
<path d="M829.964 59L832 60.7067V67H829V60.7067L829.964 59Z" fill="#FFD97D"/>
<path d="M838 43.6629L841 38.5056C841.088 38.3612 841.212 38.2395 841.361 38.1514C841.511 38.0632 841.681 38.0112 841.857 38H844.214C844.377 38.008 844.535 38.0599 844.667 38.1496C844.8 38.2391 844.903 38.3627 844.964 38.5056L850 47L838 43.6629Z" fill="#34466E"/>
<path d="M830 59.3713L831.883 61L838.919 56.3174L841 44.8144L838.324 44L830 59.3713Z" fill="white"/>
<path d="M819 56.1012C819 54.3884 820.343 53 822 53C823.657 53 825 54.3884 825 56.1012V68.8987C825 70.6115 823.657 72 822 72C820.343 72 819 70.6115 819 68.8987V56.1012Z" fill="#E6B24A"/>
<path d="M822.829 75.3567C823.298 73.875 824.184 72.5743 825.37 71.623C826.557 70.6717 827.99 70.1137 829.485 70.0213C832.578 69.8397 835.631 70.8246 838.085 72.7957C840.44 74.7164 841.771 79.7317 843 84H813C813 76.6372 818.222 74.7164 822.829 75.3567Z" fill="#3C9186"/>
<path d="M826 87C825.25 80.4234 823.5 78.9493 822.625 80.6503C821.75 82.3511 821 87 821 87H826Z" fill="#85B386"/>
<path d="M802.937 82.8169C803.241 81.0712 804.658 79.7363 805.57 80.0444C806.481 80.3524 807.595 82.5087 808 86H800C800.608 84.0491 800.506 83.5356 802.937 82.8169Z" fill="#85B386"/>
<path d="M726.854 161.93C725.145 160.899 723.705 159.46 722.656 157.736C721.837 156.373 721.939 153.228 722.144 151.655C722.349 150.082 728.8 144.317 729.72 143.163C731.443 140.87 732.886 138.37 734.02 135.72C734.635 133.623 740.983 130.478 743.133 130.059C745.283 129.64 745.795 131.526 745.795 133.204C745.795 134.881 745.385 139.809 745.795 141.277C746.203 142.744 746.101 145.47 744.566 146.727C742.409 149.092 740.425 151.615 738.627 154.276C737.706 155.849 728.288 162.768 726.854 161.93Z" fill="#5D4282"/>
<path d="M753.547 108.824C753.547 108.824 754.298 103.678 756.337 100.796C758.376 97.9144 761.381 98.9427 762.239 100.796C763.098 102.649 762.454 103.986 763.635 104.708C764.814 105.428 768.142 110.471 769 115H747C747.323 110.677 750.435 108.722 753.547 108.824Z" fill="#3C9186"/>
<path d="M741 86.0435C744.704 86.9705 748.468 87.6243 752.261 88C756.954 85.174 764.775 84.8478 768.946 84.7391C773.118 84.6304 776.037 83.4347 780 83H762.377C754.243 83.3262 748.716 83.5435 745.484 84.0869C742.251 84.6304 741.416 85.1738 741 86.0435Z" fill="#69BA91"/>
<path d="M708.62 115.655C709.755 114.383 709.859 113.993 717.396 113.602C722.561 113.308 733.712 112.918 746 113.015C740.425 113.407 734.228 114.286 733.403 115.263C727.723 114.677 719.876 114.969 719.049 115.947C716.929 115.764 714.796 116.1 712.854 116.925C712.598 117.023 712.365 117.169 712.171 117.353C711.975 117.538 711.821 117.758 711.717 118H708C708.026 117.185 708.237 116.385 708.62 115.655Z" fill="#69BA91"/>
<path d="M732.173 120.207C734.291 118.151 737.09 117.004 740 117C737.992 117.828 737.19 121.448 737.19 121.448C735.62 121.332 734.044 121.332 732.474 121.448C730.366 121.655 726.553 122.69 725.148 122.793C723.743 122.897 721.737 123.931 721.737 124.759V126L717.12 125.794C716.96 125.148 716.96 124.473 717.12 123.827C717.422 123.207 718.425 122.172 723.944 121.345C727.958 120.725 731.57 120.517 732.072 120.207H732.173Z" fill="#69BA91"/>
<path d="M695.442 224.059C685.312 222.225 673.134 223.141 667.404 224.059C666.381 228.439 667.301 234.55 670.166 237.097C673.032 239.645 674.26 240.357 674.465 242.089C674.669 243.82 676.511 247.488 682.958 245.348C689.405 243.209 693.396 241.173 694.522 235.977C695.646 230.781 698.922 224.67 695.442 224.059Z" fill="#6356D6"/>
<path d="M708.933 89.2584C708.819 93.0762 707.914 94.0298 706.894 94.7717C705.875 95.5148 704.97 94.3484 703.951 92.6518C703.187 91.0936 702.874 89.3743 703.046 87.6679C703.046 86.9256 703.724 87.0317 705.423 87.0317C706.548 86.9203 707.686 87.1038 708.706 87.5618C709.045 87.8799 709.045 88.1978 708.933 89.2584Z" fill="#5D51C9"/>
<path d="M621.234 280.943C632.313 227.956 697.96 234.656 717.529 238.366C727.159 188.267 770.233 163.526 816.62 158.37C824.697 138.372 848.719 114.043 892 126.31V166.515V373H480C490.664 318.466 530.219 277.644 621.234 280.943Z" fill="#CCBDFF"/>
<path d="M834.714 180.316C784.74 179.079 738.403 203.904 717 238C726.663 187.938 769.883 163.216 816.429 158.065C821.623 145.19 833.571 130.459 853 125C840.74 137.362 840.325 147.559 834.714 180.316Z" fill="url(#paint0_linear_303_2)"/>
<path d="M621.443 280.945C629.013 244.762 662.196 236.413 688.637 236C664.061 238.99 641.248 256.411 640.834 283.316C686.046 293.419 696 308.056 696 308.056C624.45 307.335 569.49 319.396 531.641 373H480C490.681 318.468 530.293 277.647 621.443 280.945Z" fill="url(#paint1_linear_303_2)"/>
<path d="M546.369 308.569L544 307.5L546.369 306.432H546.476L547.446 304.081C547.554 303.973 547.554 303.973 547.554 304.081L548.631 306.432L551 307.5L548.631 308.569L547.554 310.92C547.554 311.027 547.554 311.027 547.446 310.92L546.476 308.569H546.369Z" fill="#FFFAE6"/>
<path d="M599.769 266.238L597 265L599.769 263.761L601.001 261.077C601.001 260.974 601.001 260.974 601.103 261.077L602.231 263.761H602.333L605 265L602.333 266.238H602.231L601.103 268.923C601.001 269.026 601.001 269.026 601.001 268.923L599.769 266.238Z" fill="#FFF5CF"/>
<path d="M776.667 158.605L774 157.5L776.667 156.395H776.769L777.897 154H778L779.231 156.395L782 157.5L779.231 158.605L778 161H777.897L776.769 158.605H776.667Z" fill="#C495DE"/>
<path d="M695.103 270.229L691.083 268.553C690.972 268.553 690.972 268.448 691.083 268.448L695.103 266.772L696.888 263H697.111L698.898 266.772L702.916 268.448C703.028 268.448 703.028 268.553 702.916 268.553L698.898 270.229L697.111 274H696.888L695.103 270.229Z" fill="#ADEDFF"/>
<path d="M733.628 288.666L732 288L733.628 287.429L734.441 286H734.559L735.255 287.429L737 288L735.255 288.666L734.559 290H734.441L733.628 288.666Z" fill="#FFEFC4"/>
<path d="M761 243.414C756.035 241.18 754.277 240.122 753.139 241.885C752.384 243.084 751.986 244.525 752 246L761 243.414Z" fill="#6C6C96"/>
<path d="M758.753 226C762.988 233.282 766 243.292 766 243.292L764.023 244C761.953 236.72 758 226.707 758 226.707L758.753 226Z" fill="#824B6F"/>
<path d="M760.312 227.426L764.031 231.168C765.015 228.336 763.922 226.414 761.078 226.009C762.28 225.503 766 223.279 766 223.279C764.25 222.671 762.061 222.975 759.766 224.999C758.89 223.784 756.922 222.369 753.64 223.784L757.577 225.706C754.296 226.111 753.421 227.83 752 229.752L757.469 228.032L757.796 234C757.796 234 760.749 229.752 760.312 227.426Z" fill="#58A67E"/>
<path d="M858.034 171.083L857.516 162.042C857.445 160.88 857.612 159.715 858.008 158.621C858.403 157.526 859.018 156.523 859.815 155.676C860.611 154.83 861.573 154.154 862.64 153.694C863.707 153.233 864.856 152.998 866.018 153C867.175 153.012 868.318 153.258 869.377 153.725C870.437 154.19 871.393 154.864 872.186 155.709C872.98 156.553 873.596 157.549 873.997 158.637C874.398 159.724 874.576 160.882 874.52 162.042L873.898 171.083C873.584 177.39 875.492 183.609 879.289 188.648C884.888 195.923 883.748 202.055 878.563 235H853.472C848.184 202.055 847.147 195.923 852.746 188.648C856.556 183.62 858.432 177.384 858.034 171.083Z" fill="#A281C7"/>
<path d="M837.842 176.643L837.536 170.822C837.478 170.069 837.579 169.312 837.832 168.601C838.085 167.889 838.484 167.238 839.004 166.69C839.523 166.141 840.152 165.708 840.849 165.417C841.546 165.127 842.296 164.985 843.051 165.001C843.798 164.999 844.537 165.152 845.221 165.449C845.906 165.746 846.522 166.181 847.031 166.728C847.539 167.274 847.929 167.921 848.176 168.626C848.423 169.33 848.521 170.078 848.464 170.822L848.158 176.643C847.904 180.717 849.138 184.745 851.631 187.977C855.206 192.777 854.491 196.759 851.12 218H834.88C831.509 196.759 830.795 192.777 834.369 187.977C836.862 184.745 838.096 180.717 837.842 176.643Z" fill="#A281C7"/>
<path d="M748.255 371H892V259.08L832.383 249L740.466 254.924C740.466 258.872 743.478 281.215 743.478 281.215C742.647 284.333 740.258 289.008 739.012 293.893C737.765 298.777 737.35 300.751 737.246 304.596V318.521L736 336.499L748.255 371Z" fill="#824B6F"/>
<path d="M838.828 265.49L836.035 284.849L832.931 294.321L832 332H892V253L838.103 256.018L838.828 265.49Z" fill="#5A3C5C"/>
<path d="M851.388 271.92L845.051 281.268L841 296L854.193 291.224L856.997 279.946C856.997 279.946 856.894 273.952 856.997 272.427C857.101 270.904 854.089 270.396 851.388 271.92Z" fill="#754465"/>
<path d="M807.795 269.203L801.937 284.494L795.557 293.69L794.197 305.159L792 318.384L812.711 322V307.122L811.142 295.654L817 283.874V266L807.795 269.203Z" fill="#734163"/>
<path d="M780 254.842L778.76 269.169C778.76 269.169 775.351 273.775 772.459 277.254C769.566 280.733 762.748 287.795 761.095 289.74C759.442 291.683 759.132 291.991 757.479 286.157C756.406 282.289 755.578 278.359 755 274.389C755 274.389 755.723 269.374 756.549 268.043L761.921 260.47L763.781 253L780 254.842Z" fill="#754465"/>
<path d="M758 272.011C758 273.427 758.334 278.483 758.334 278.483L758.917 280L760.084 276.865L761 271L758 272.011Z" fill="#824B6F"/>
<path d="M739.684 293.852C740.874 289.008 743.153 284.371 743.945 281.279C743.945 281.279 741.072 259.123 741.072 255.207L743.945 255L746.027 256.649L746.522 265.1L746.324 272.519L749 280.558C749 280.558 744.044 291.688 743.945 292.1L741.567 300.756L739.981 309L738 308.692V304.466C738.099 300.653 738.495 298.696 739.684 293.852Z" fill="#966290"/>
<path d="M785.464 271L785.268 283.462C785.268 283.462 779.768 292.187 779.179 294.472L778 306L789 286.163C789 286.163 788.411 281.49 788.411 279.412C788.411 277.335 789 271 789 271H785.464Z" fill="#966290"/>
<path d="M892 322.449C811.817 309.374 761.987 299.902 727.904 296.195C693.821 292.49 652.279 297.637 611.565 308.344C594.886 312.668 589.499 318.228 584.32 339.437C579.14 360.646 578 373 578 373H892V322.449Z" fill="#6EAC8D"/>
<path d="M684 327.04C677.203 326.787 671.318 327.718 670 330L684 327.04Z" fill="#629987"/>
<path d="M824 322.363C800.32 320.493 781.561 325.689 775 341.696L807.803 355L824 350.427V322.363Z" fill="#508F86"/>
<path d="M775 359.782C765.003 348.734 744.698 340.699 728.557 350.24C712.417 359.782 712 364 712 364C726.475 358.175 755.111 355.563 775 359.782Z" fill="#629987"/>
<path d="M646.389 299.405C645.98 289.741 642.002 286.181 639.859 285.163C637.717 284.146 637.717 288.011 640.268 293.2C634.248 289.335 631.902 290.555 631.596 292.183C631.289 293.81 635.983 296.353 639.044 297.778C632.717 296.659 626.597 298.388 635.37 301.44C644.144 304.491 647 305 647 305L646.389 299.405Z" fill="#92D18F"/>
<path d="M584 337C589.191 316.83 594.591 311.527 611.308 307.369C652.114 297.179 693.647 291.461 727.912 295.101C746.913 297.179 785.539 304.666 817 309.76C799.037 308.824 781.178 308.616 765.084 309.344C743.902 307.16 722.512 312.671 710.884 316.518C697.385 316.934 688.975 320.885 688.975 320.885C688.975 320.885 661.874 310.592 640.9 320.885C623.041 318.597 608.608 319.741 594.383 324.939C588.568 327.123 587.946 328.579 584 337Z" fill="#85C28D"/>
<path d="M697 300C698.174 297.164 702.966 296.03 706 297.958L697 300Z" fill="#BAD17B"/>
<path d="M638 313.472C642.049 313.849 646.114 314.024 650.181 313.997C651.997 313.997 651.035 312 644.838 312C638.64 312 638 313.472 638 313.472Z" fill="#6AA88D"/>
<path d="M706.241 294.188C708.657 289.721 704.833 286.676 701.412 288.807C701.01 283.731 690.244 279.772 686.622 286.778C683 293.782 683 295 683 295L706.241 294.188Z" fill="#6EAC8D"/>
<path d="M659 306.536C679.446 309.643 703.109 312 713.8 312C724.489 312 722.933 307.394 696.571 304.821C670.21 302.25 659 306.536 659 306.536Z" fill="#6AA88D"/>
<path d="M590.266 321C595.73 334.641 599.337 332.795 605.934 336.795C638.818 355.564 665 373 665 373H578C578 373 579.031 360.18 584.288 338.436C586.04 330.846 587.896 325.308 590.266 321Z" fill="#78426A"/>
<path d="M611 340.723C607.659 345.188 605.097 350.19 603.424 355.516L602.615 361.291L601 362C601 362 601.202 358.15 601.303 356.428C601.403 354.704 603.424 348.119 603.424 348.119L608.273 339L611 340.723Z" fill="#5A3C5C"/>
<path d="M628.641 351C626.122 356.468 624.533 362.318 623.939 368.308L623 373H665L628.641 351Z" fill="#5A3C5C"/>
<path d="M642 361.796L633.365 366.935C632.913 367.059 632.429 367.005 632.018 366.783C631.605 366.561 631.296 366.191 631.157 365.75C630.354 363.97 632.863 358.337 633.566 356.558C634.089 355.415 634.492 354.223 634.771 353L642 361.796Z" fill="#78426A"/>
<path d="M584.189 338.47C585.913 330.968 587.74 325.316 590.072 321C592.609 327.269 596.871 330.249 599 331.996L597.175 334.257C591.493 343.815 590.072 356.557 590.072 356.557C590.072 356.557 583.885 367.758 583.479 373H578C578 373 579.014 360.155 584.189 338.47Z" fill="#8F516F"/>
<path d="M581 349.899C581.724 346.362 582.655 342.422 583.69 338.077C585.448 330.7 587.311 325.244 589.689 321C590.32 322.445 591.081 323.831 591.966 325.143L593 329.184C590.413 333.833 587.516 340.501 587.516 340.501L584.207 344.341L581 350V349.899Z" fill="#BF6172"/>
<path d="M602.828 336.368C611.414 347.1 622.276 351.743 634.483 354.736C646.69 366.602 663.138 373 663.138 373H710C710 373 672.242 361.753 660.759 353.395C646.069 349.68 630.862 344.624 621.035 336.264C616.69 334.201 593.621 332.24 592.173 318C591.318 318.821 590.587 319.759 590 320.786C590 327.081 595.586 332.446 602.828 336.368Z" fill="#609684"/>
<path d="M794.496 158.847L793.775 147.475C793.677 146.003 793.88 144.527 794.373 143.138C794.867 141.749 795.639 140.476 796.643 139.4C797.646 138.323 798.859 137.466 800.207 136.882C801.554 136.297 803.007 135.996 804.474 136C805.942 135.996 807.395 136.297 808.742 136.882C810.089 137.466 811.302 138.323 812.306 139.4C813.309 140.476 814.082 141.749 814.575 143.138C815.068 144.527 815.272 146.003 815.173 147.475L814.556 158.847C814.033 166.873 816.448 174.815 821.345 181.177C828.341 190.377 827.003 198.235 820.317 240H788.632C782.048 198.235 780.608 190.377 787.706 181.177C792.512 174.767 794.916 166.862 794.496 158.847Z" fill="#FFDB9E"/>
<path d="M807.739 191.295L806 190.5L807.739 189.705L808.5 188L809.261 189.592L811 190.387L809.261 191.182L808.5 193L807.739 191.182V191.295Z" fill="white"/>
<path d="M817.816 209.952C806.591 197.385 792.713 203.466 790.57 215.424C781.284 206.607 771.59 213.701 771.181 225.456C770.773 237.211 771.181 244 771.181 244H822L817.816 209.952Z" fill="#69BA91"/>
<path d="M821.201 219.457C806.295 216.289 800.394 217.979 797.496 227.589C784.867 226.744 780.416 231.497 777 241L830 234.348L821.201 219.457Z" fill="#4C9677"/>
<path d="M786.821 180.715C791.717 174.397 794.167 166.605 793.738 158.705L793.004 147.496C792.853 145.284 793.419 143.082 794.622 141.199C795.825 139.317 797.605 137.848 799.712 137C797.72 143.115 799.712 149.84 800.445 155.036C801.179 160.233 801.913 169.608 797.511 175.213C793.109 180.817 784.725 186.319 782 196C782 188.867 783.467 184.892 786.821 180.715Z" fill="#FFEFC4"/>
<path d="M741.06 255.515C753.681 260.048 762.785 256.03 766.923 256.236C771.062 256.442 780.579 256.236 788.028 255.618C793.741 256.161 799.495 256.127 805.202 255.515C800.857 256.339 799.201 259.327 796.718 261.284C792.477 262.005 788.545 265.817 787.614 268.496C785.131 269.217 785.545 270.97 785.545 270.97C790.869 271.589 796.221 271.933 801.581 272C806.34 272 818.547 269.321 824.134 268.599C829.72 267.878 852.894 262.623 852.894 262.623C852.894 262.623 876.171 262.623 892 259.636V229.654C872.782 228.088 853.437 229.337 834.583 233.363C807.995 234.703 791.959 237.382 774.372 241.297C756.785 245.212 746.233 245.624 743.646 248.921C741.06 252.218 740.853 252.011 741.06 255.515Z" fill="#58A67E"/>
<path d="M800 247H784C798.142 242.5 800 247 800 247Z" fill="#4C9677"/>
<path d="M774.182 241.045C779.121 239.89 783.958 238.84 789 238C776.24 242.095 770.065 244.718 769.139 246.713C755.968 246.818 751.749 249.022 750.204 251.541C749.007 251.814 747.946 252.514 747.209 253.515C746.474 254.516 746.112 255.752 746.192 257C744.545 256.58 742.796 256.161 741.047 255.531C740.841 251.961 741.253 251.752 743.618 248.813C745.986 245.873 756.894 243.774 774.182 241.045Z" fill="#85C286"/>
<path d="M694 335C701.972 332.993 713.878 331.725 725.266 334.577C729.821 333.204 736.137 333.098 744.212 334.471C748.043 324.222 765.642 322.108 782 321.897C758.499 314.288 734.894 318.831 730.028 326.863C715.327 322.636 700.213 324.856 694 335Z" fill="#629987"/>
<path d="M746.143 373H892V279.256C874.235 271.789 863.431 272.723 862.6 279.256C850.757 276.353 838.394 277.182 839.849 286.618C826.24 287.344 818.344 296.055 822.292 311.61C809.514 309.122 812.007 321.877 814.5 326.646C807.748 327.995 808.059 333.698 812.215 340.128C805.462 339.091 797.151 339.297 796.32 344.172C787.49 340.646 779.075 334.528 772.946 336.705C766.817 338.882 767.336 345.519 767.336 345.519C758.297 344.172 754.038 344.897 755.596 351.119C756.511 354.862 757.691 358.535 759.129 362.111C748.533 362.008 742.299 362.733 746.143 373Z" fill="#1D2B38"/>
<path d="M597.225 361.826C604.22 358.874 612.227 355.606 616.282 355.079C620.337 354.551 616.688 356.66 610.808 361.826C607.087 365.165 603.722 368.911 600.773 373H588C589.521 368.572 590.231 364.672 597.225 361.826Z" fill="#854D76"/>
<path d="M706 307.424C702.453 296.643 694.423 295.074 692.858 294.55C692.546 281.573 692.754 279.269 683.472 276.443C674.191 273.617 661.675 272.781 654.479 276.443C647.283 280.107 644.468 290.887 644.154 296.225C643.949 298.941 643.949 301.671 644.154 304.388C644.154 304.388 667.411 309.726 706 307.424Z" fill="#8D8CC4"/>
<path d="M840.5 253C820.342 253 804 236.658 804 216.499C804 196.342 820.342 180 840.5 180C860.658 180 877 196.342 877 216.499C877 236.658 860.658 253 840.5 253Z" fill="#6238EB"/>
<path d="M825 183.695C830.336 181.025 836.251 179.766 842.195 180.036C848.139 180.305 853.919 182.093 859 185.234C842.911 188.005 835.726 182.257 825 183.695Z" fill="#632ADE"/>
<path d="M804 219.978C812.606 209.882 830.131 211.015 838.737 217.402C836.767 200.918 863.416 188.969 873.682 200.713C875.852 205.472 876.983 210.632 877 215.856C877.006 222.188 875.343 228.409 872.178 233.904C869.013 239.398 864.455 243.974 858.957 247.175L823.08 248C817.852 245.215 813.384 241.208 810.06 236.327C806.737 231.445 804.657 225.835 804 219.978Z" fill="#632ADE"/>
<path d="M828.378 177.485L826 176.5L828.378 175.406L829.459 173H829.568L830.541 175.406H830.649L832.919 176.5C833.027 176.5 833.027 176.5 832.919 176.609L830.649 177.594H830.541L829.568 180H829.459L828.378 177.594V177.485Z" fill="#82B8E8"/>
<path d="M845.34 225.71C853.638 214.355 855.073 203.101 874.435 203C876.981 209.319 877.649 216.226 876.361 222.908C875.072 229.59 871.88 235.768 867.162 240.715L854.765 246.392L822.187 247C814.327 242.303 808.547 234.845 806 226.116C819.626 228.954 838.988 234.328 845.34 225.71Z" fill="#6238EB"/>
<path d="M876.8 212.547C876.9 213.699 877 214.85 877 216.106C876.975 225.487 873.545 234.506 867.407 241.337L859.912 245C858.518 242.043 857.381 238.959 856.514 235.788C849.119 209.302 870.904 206.79 876.8 212.547Z" fill="#632ADE"/>
<path d="M862.048 219.989C862.868 214.46 871.572 212.061 877 220.614C876.08 228.392 872.743 235.666 867.476 241.374L866.247 242C871.163 231.882 861.229 225.935 862.048 219.989Z" fill="#6238EB"/>
<path opacity="0.32" d="M809.153 235C808.329 225.321 812.141 213.065 820.075 201.841C828.01 190.615 838.52 183.201 848 180.833C842.687 179.675 837.182 179.725 831.892 180.981C826.601 182.236 821.661 184.664 817.436 188.086C813.211 191.507 809.811 195.833 807.485 200.746C805.159 205.657 803.969 211.03 804.001 216.463C803.98 222.999 805.762 229.412 809.153 235Z" fill="url(#paint2_linear_303_2)"/>
<path d="M822.428 199.213C821.502 197.993 822.127 195.788 823.824 194.29C825.52 192.791 827.646 192.566 828.572 193.786C829.497 195.008 828.873 197.212 827.176 198.71C825.48 200.209 823.354 200.435 822.428 199.213Z" fill="#23283D"/>
<path d="M837.428 199.214C836.503 197.993 837.127 195.789 838.824 194.289C840.52 192.791 842.646 192.566 843.572 193.786C844.498 195.007 843.873 197.211 842.176 198.711C840.48 200.209 838.354 200.434 837.428 199.214Z" fill="#23283D"/>
<path d="M825.428 210.213C824.503 208.993 825.127 206.788 826.824 205.29C828.52 203.791 830.646 203.566 831.572 204.786C832.498 206.006 831.873 208.212 830.176 209.71C828.48 211.209 826.354 211.435 825.428 210.213Z" fill="#23283D"/>
<path d="M826.872 193.012C827.133 192.981 827.397 193.01 827.648 193.092C827.898 193.176 828.13 193.314 828.33 193.497C828.529 193.678 828.691 193.904 828.807 194.156C828.922 194.409 828.988 194.683 829 194.964C827.685 194.673 826.318 194.805 825.074 195.346C823.829 195.887 822.762 196.81 822.008 198C821.969 197.473 822.075 196.945 822.312 196.481C822.691 195.504 823.32 194.658 824.126 194.045C824.933 193.432 825.884 193.074 826.872 193.012Z" fill="#3A3C66"/>
<path d="M841.87 193.012C842.131 192.981 842.395 193.01 842.646 193.092C842.897 193.176 843.129 193.314 843.329 193.497C843.529 193.678 843.691 193.904 843.806 194.156C843.922 194.409 843.988 194.683 844 194.964C842.683 194.673 841.315 194.805 840.069 195.346C838.823 195.887 837.755 196.81 837 198C837.013 197.478 837.116 196.963 837.304 196.481C837.684 195.504 838.313 194.658 839.121 194.045C839.928 193.432 840.881 193.074 841.87 193.012Z" fill="#2D2E4F"/>
<path d="M829.872 204.003C830.393 203.973 830.906 204.155 831.302 204.511C831.699 204.868 831.948 205.371 832 205.917C830.674 205.612 829.29 205.745 828.038 206.297C826.786 206.849 825.728 207.792 825.007 209C824.971 208.449 825.076 207.899 825.311 207.405C825.709 206.46 826.343 205.645 827.146 205.047C827.948 204.448 828.89 204.087 829.872 204.003Z" fill="#2D2E4F"/>
<path d="M794.102 158.561V161H813.898C813.879 160.185 813.913 159.371 814 158.561V157H794L794.102 158.561Z" fill="#D44E7B"/>
<path d="M790 176H818C817.301 174.71 816.707 173.373 816.224 172H791.881C791.361 173.375 790.733 174.713 790 176Z" fill="#D44E7B"/>
<path d="M892 218.579C870.84 208.819 856.143 220.97 850.723 231.725C837.173 229.933 830.814 232.422 828 238H892V218.579Z" fill="#58A67E"/>
<path d="M808 238H875V255H808V238Z" fill="#58A67E"/>
<path d="M823.803 268.536C818.189 269.271 805.922 272 801.14 272C795.754 271.931 790.376 271.581 785.026 270.95C785.026 270.95 784.61 269.166 787.105 268.431C788.041 265.703 791.991 261.82 796.254 261.086C798.749 259.092 800.412 256.049 804.778 255.21C799.836 255.661 794.869 255.766 789.912 255.524C790.952 252.271 795.734 249.648 800.204 249.228C803.947 244.611 809.456 241.253 820.996 241.253H856.758L861.644 238H892V259.407C876.094 262.45 852.703 262.45 852.703 262.45C852.703 262.45 829.417 267.802 823.803 268.536Z" fill="#4C9677"/>
<path d="M892 230.186C891.369 229.17 890.51 228.322 889.493 227.711C888.477 227.099 887.332 226.742 886.153 226.669C884.974 226.596 883.795 226.809 882.713 227.291C881.631 227.773 880.677 228.508 879.93 229.439C879.615 220.149 875.312 218.334 872.688 219.189C870.064 220.042 867.335 222.819 867.335 234.137C860.513 234.458 856.42 238.728 856 243H891.895L892 230.186Z" fill="#437A6D"/>
<path d="M789.556 222.454C791.273 225.768 793.495 236.228 794 247H784C785.111 233.64 787.939 219.245 789.556 222.454Z" fill="#468069"/>
<path d="M805 240C804.357 231.677 803.5 228.139 802.643 227.099C801.786 226.058 799.429 233.446 799 240H805Z" fill="#468069"/>
<path d="M864 247H833V229H864V247Z" fill="#82B8E8"/>
<path d="M847 247H833V229H847V247Z" fill="#BBD0FF"/>
<path d="M836 247H840V240.25C840 239.654 839.794 239.081 839.428 238.66C839.063 238.238 838.566 238 838.049 238C837.531 238 837.035 238.238 836.669 238.66C836.303 239.081 836.098 239.654 836.098 240.25V247H836Z" fill="#827D99"/>
<path d="M833 237L840 230H833V237Z" fill="#D4E1FF"/>
<path d="M864 230H833L840.13 224H856.87L864 230Z" fill="#23283D"/>
<path d="M847 230L840 224L833 230H847Z" fill="#4E4766"/>
<path d="M852.456 243.137C851.484 243.137 850.697 242.352 850.697 241.382C850.697 240.413 851.484 239.627 852.456 239.627C853.428 239.627 854.216 240.413 854.216 241.382C854.216 242.352 853.428 243.137 852.456 243.137Z" fill="#6BA1D1"/>
<path d="M859.081 243.137C858.109 243.137 857.321 242.352 857.321 241.382C857.321 240.413 858.109 239.627 859.081 239.627C860.053 239.627 860.841 240.413 860.841 241.382C860.841 242.352 860.053 243.137 859.081 243.137Z" fill="#6BA1D1"/>
<path d="M859.081 236.53C858.109 236.53 857.321 235.745 857.321 234.775C857.321 233.807 858.109 233.021 859.081 233.021C860.053 233.021 860.841 233.807 860.841 234.775C860.841 235.745 860.053 236.53 859.081 236.53Z" fill="#6BA1D1"/>
<path d="M852.456 236.53C851.484 236.53 850.697 235.745 850.697 234.775C850.697 233.807 851.484 233.021 852.456 233.021C853.428 233.021 854.216 233.807 854.216 234.775C854.216 235.745 853.428 236.53 852.456 236.53Z" fill="#6BA1D1"/>
<path d="M812 232H821V240H812V232Z" fill="#82B8E8"/>
<path d="M812 232H821V234H812V232Z" fill="#827D99"/>
<path d="M827 240H821V225H827V240Z" fill="#82B8E8"/>
<path d="M885.556 250.786C876.878 247.411 870 256 870 256H890C889.809 254.825 889.296 253.724 888.515 252.805C887.733 251.888 886.711 251.191 885.556 250.786Z" fill="#58A67E"/>
<path d="M875.882 224C879.425 238.212 878.982 256 878.982 256H874.775C875.439 243.118 874 224.92 874 224.92L875.882 224Z" fill="#824B6F"/>
<path d="M876.2 227.379L883.1 234.671C884.3 230.519 882 227.076 877.3 225.354C879.2 224.949 885 222.619 885 222.619C883.45 221.744 881.684 221.336 879.912 221.444C878.14 221.551 876.436 222.171 875 223.228C873.3 221.101 869.8 218.063 864.7 219.278L871.5 223.733C866.1 223.228 864.9 225.658 863 228.291L871.7 227.379L873.2 237C873.2 237 877.5 231.33 876.2 227.379Z" fill="#85C286"/>
<path d="M796.369 260.865C798.924 258.927 800.627 255.971 805.099 255.155C808.009 253.299 811.562 252.603 815 253.219C805.631 255.869 803.608 260.457 803.608 260.457C805.303 260.277 807.018 260.487 808.612 261.068C801.692 261.578 794.772 263.617 792.11 267.287C790.377 267.247 788.649 267.488 787 268C787.958 265.35 792.004 261.578 796.369 260.865Z" fill="#5CAD84"/>
<path d="M770.881 266.071C764.543 266.413 760.556 268.807 758 272C765.974 271.088 767.302 270.632 771.903 269.036C776.503 267.439 778.548 265.615 770.881 266.071Z" fill="#4A8C7B"/>
<path d="M839 261H821C836.919 256.5 839 261 839 261Z" fill="#468069"/>
<path d="M825.516 249.076C828.723 249.495 832.038 255.666 833 261H816C817.925 254.411 818.994 248.24 825.516 249.076Z" fill="#6C6C96"/>
<path d="M775 266.683C773.802 263.232 771.297 261.966 769.773 263.922C766.723 264.152 764 264.381 764 268.985C764 268.985 771.188 269.33 775 266.683Z" fill="#58A67E"/>
<path d="M644.104 296.59C644.419 291.156 647.247 280.288 654.476 276.452C658.094 274.788 662.028 273.952 666 274.002C658.666 274.535 653.323 283.059 653.428 286.681C651.438 287.214 644.419 294.033 644 300C644 299.041 644 297.869 644.104 296.59Z" fill="#AEA3D1"/>
<path d="M685 293.823C683.047 294.132 676.265 295.996 676.265 300.653C676.094 303.153 675.611 305.623 674.826 308C668.66 307.69 663.419 307.276 659 306.862C659 303.653 661.158 300.342 664.036 297.444C666.912 294.547 668.147 291.856 669.482 287.302C670.817 282.749 675.237 276.332 683.458 277.056C681.095 279.644 682.02 284.818 685 293.823Z" fill="#7E74A6"/>
<path d="M667 276C664.338 276.453 663.197 278.152 663.008 278.831C662.818 279.51 665.955 277.926 665.955 277.926L667 276Z" fill="#B3A9D1"/>
<path d="M656.794 302.541C655.66 295.878 656.382 288.701 660.51 289.01C664.637 289.316 663.604 296.596 663.501 300.388C663.501 300.388 665.668 297.211 668.454 298.748C671.24 300.286 670.311 305.207 665.255 309H655.144C646.477 301.722 653.596 297.313 656.794 302.541Z" fill="#CFE08B"/>
<path d="M642 304C639.519 295.721 631.763 282.991 629.386 280.197C627.007 277.403 627.731 279.679 631.246 285.165C634.763 290.65 640.656 304 640.656 304H642Z" fill="#CFE08B"/>
<path d="M642.296 283.172C642.569 279.91 643.206 280.857 642.933 282.541C642.66 284.224 641.294 297.268 641.658 304H641.02C640.899 297.026 641.326 290.055 642.296 283.172Z" fill="#CFE08B"/>
<path d="M682.008 308C681.953 307.134 682.185 306.275 682.671 305.547C683.157 304.82 683.872 304.264 684.708 303.963C684.275 303.083 684.113 302.1 684.242 301.133C684.37 300.166 684.786 299.256 685.435 298.512C687.617 295.888 693.744 296.797 701.846 300.329C703.763 302.386 705.183 304.835 706 307.495H703.819C702.676 305.88 699.768 304.164 697.38 303.155C696.445 299.824 690.212 297.907 688.447 298.512C686.682 299.118 686.059 301.642 686.89 303.862C685.658 304.901 684.847 306.332 684.605 307.899L682.008 308Z" fill="#8C7CA6"/>
<path d="M658.837 305.221C658.125 299.026 658.939 292.412 660.056 293.042C661.174 293.672 661.277 296.821 661.277 303.75C661.987 301.336 664.935 300.706 664.833 303.016C665.747 301.545 668.797 300.811 669 304.171C668.086 306.095 666.725 307.755 665.036 309H656.805C652.638 304.171 656.703 303.961 658.837 305.221Z" fill="#BAD17B"/>
<path d="M840.54 309.779C827.307 304.378 825.848 318.918 826.057 323.383C820.43 323.383 819.805 329.407 821.368 335.846C812.616 329.407 811.99 340 811.99 340C807.823 333.562 807.51 327.954 814.283 326.603C811.782 321.722 809.281 308.948 822.097 311.441C818.138 295.863 826.057 287.139 839.706 286.516C838.977 281.531 841.999 278.934 846.687 278C844.083 280.804 844.604 285.789 847 287.865C837.622 287.762 836.372 301.159 840.54 309.779Z" fill="#20373D"/>
<path d="M868 298.306C862.438 295.312 851.838 297.17 852.363 306.98C847.536 305.844 841.764 307.599 843.233 314C846.486 310.179 854.462 309.663 861.703 312.554C860.911 310.66 859.604 309.017 857.925 307.805C857.401 302.229 860.864 299.442 868 298.306Z" fill="#253B47"/>
<path d="M817 347.9C808.5 345.319 801.97 348.624 801.97 353.582C792.019 349.966 785.488 354.511 784.97 356.267C779.061 351.516 768.903 352.032 766 353.582C771.598 354.201 780.927 359.365 783.519 362.774C777.921 363.29 774.811 367.009 774.811 373C779.994 367.629 790.464 363.187 796.787 363.601C795.32 362.016 793.513 360.779 791.5 359.985C797.5 356.88 804.244 355.485 810.988 355.957C809.537 351.825 811.299 349.346 817 347.9Z" fill="#20373D"/>
<path d="M892 318.522C878.021 314.506 872.909 318.832 872.909 326.864C853.297 325.936 843.177 332.322 846.933 346.946C834.727 347.976 823.356 358.583 822 373H834.727C837.544 363.216 853.088 351.58 868.006 351.58C862.268 342.518 859.973 341.488 859.973 341.488C869.258 336.545 886.367 335.927 892 340.148V318.522Z" fill="#192530"/>
<path d="M631 309.292C627.021 307.142 613.653 307.04 611 314L631 309.292Z" fill="#CFE08B"/>
<path d="M647 312.227C644.73 308.003 641.43 307.609 639.778 307.707C637.198 306.333 632.35 306.431 633.073 312.914C637.612 313.307 647 312.227 647 312.227Z" fill="#8C7CA6"/>
<path d="M644 308.873C643.077 308.427 642.153 308.65 641.948 309.096C641.743 309.543 643.282 311.104 643.384 313H641.23C641.235 311.895 640.87 310.824 640.205 309.988C639.076 308.985 637.025 309.765 636 310.546C636.074 309.68 636.211 308.823 636.411 307.98C636.82 306.753 638.872 306.865 639.692 307.311C641.257 307.226 642.795 307.784 644 308.873Z" fill="#7E74A6"/>
<path d="M652 332.595C651.971 332.324 653.514 332.062 655.447 332.009C657.379 331.957 658.971 332.134 659 332.405C659.029 332.677 657.487 332.939 655.554 332.991C653.621 333.043 652.03 332.866 652 332.595Z" fill="#85C28D"/>
<path d="M726.001 306C719.925 306 715 305.552 715 304.999C715 304.448 719.925 304 726.001 304C732.075 304 737 304.448 737 304.999C737 305.552 732.075 306 726.001 306Z" fill="#508F86"/>
<path d="M608 311.716C607.977 311.468 608.853 311.169 609.957 311.05C611.061 310.929 611.976 311.035 612 311.284C612.023 311.532 611.147 311.831 610.043 311.95C608.939 312.071 608.024 311.965 608 311.716Z" fill="#CFE08B"/>
<path d="M668.987 311.392C669.764 310.475 671.222 311.278 672 312.655L665 313C665.486 311.392 667.236 310.704 668.987 311.392Z" fill="#CFE08B"/>
<path d="M653.14 323.827C650.695 323.141 646.338 324.399 644 326L666 324.169C664.193 322.797 658.667 322.569 653.14 323.827Z" fill="#85C28D"/>
<path d="M731.996 313C732.036 308.955 731.762 304.92 731.18 301C730.774 305.052 731.058 309.219 731.996 313Z" fill="#CFE08B"/>
<path d="M732.001 313C731.977 308.901 732.735 304.821 734.249 300.884C734.812 299.715 735.375 299.291 734.672 302.267C733.968 305.242 732.703 313 732.703 313H732.001Z" fill="#CFE08B"/>
<path d="M698 341.562C692.3 336.938 686.299 336.219 685 343L698 341.562Z" fill="#7E74A6"/>
<path d="M745 302.448C745 294.08 761.926 292.04 768.339 295.101C774.436 291.427 785.474 291.427 786 304.592C772.649 303.878 762.346 304.183 757.405 305C748.05 304.081 745 302.448 745 302.448Z" fill="#629987"/>
<path d="M763 293.117C756.238 292.377 751.347 297.136 750.619 299.145C748.225 298.616 745.417 299.145 745 302C745 295.126 755.509 292.377 763 293.117Z" fill="#BAD17B"/>
<path d="M768.241 303.803C768.021 303.365 767.95 302.873 768.035 302.394C768.122 301.915 768.362 301.473 768.722 301.13C769.083 300.787 769.547 300.558 770.05 300.475C770.553 300.394 771.07 300.461 771.53 300.671C771.212 299.735 771.286 298.718 771.736 297.832C772.661 295.776 776.465 294.993 778.521 297.93C781.092 297.245 781.811 300.475 780.783 301.846C783.148 301.16 783.353 302.824 782.634 304C777.185 303.803 772.353 303.803 768.241 303.803Z" fill="#508F86"/>
<path d="M713 292.058L723 301L733 292.058V271.941L723 263L713 271.941V292.058Z" fill="#A73DB3"/>
<path d="M716 287.811L721 293L726 287.811V276.188L721 271L716 276.188V287.811Z" fill="#CC4CC8"/>
<path d="M721.181 271.038L723 263L713 271.733L715.929 276L721.181 271.038Z" fill="#F275FF"/>
<path d="M713 292.267L715.929 288L721.181 292.962L723 301L713 292.267Z" fill="#772C91"/>
<path d="M722.847 301L721 292.962L726.333 288L733 292.267L722.847 301Z" fill="#8C39A8"/>
<path d="M733 292L726 287.657V276.343L733 272V292Z" fill="#B341BF"/>
<path d="M723.162 288L721 286.286L725 285L723.162 288Z" fill="#D464CE"/>
<path d="M724.269 274C722.114 274.887 720.245 276.419 718.885 278.411L716 280.052V282C717.501 281.254 719.042 280.602 720.615 280.052C721.097 278.411 724.558 275.744 726 275.846L724.269 274Z" fill="#D45AE0"/>
<path d="M719.5 273.078L720 266L717 268.154L718.5 274L719.5 273.078Z" fill="white"/>
<path d="M787.72 311.528C782.93 310.356 777.732 311.267 776 312.96L792 314C792 314 791.898 310.097 787.72 311.528Z" fill="#629987"/>
<defs>
<linearGradient id="paint0_linear_303_2" x1="757.354" y1="196.94" x2="895.311" y2="124.016" gradientUnits="userSpaceOnUse">
<stop offset="0.03" stop-color="white"/>
<stop offset="1" stop-color="#CCBDFF"/>
</linearGradient>
<linearGradient id="paint1_linear_303_2" x1="587.447" y1="236.158" x2="480.007" y2="373.32" gradientUnits="userSpaceOnUse">
<stop stop-color="white"/>
<stop offset="1" stop-color="#CCBDFF"/>
</linearGradient>
<linearGradient id="paint2_linear_303_2" x1="836.418" y1="191.182" x2="808.035" y2="216.244" gradientUnits="userSpaceOnUse">
<stop stop-color="#6238EB"/>
<stop offset="1" stop-color="#80FBFF"/>
</linearGradient>
</defs>
</svg>
