<svg width="1800" height="600" viewBox="0 0 1800 600" fill="none" xmlns="http://www.w3.org/2000/svg">
<g clip-path="url(#clip0_174_2)">
<path fill-rule="evenodd" clip-rule="evenodd" d="M1800 535.266C1728.5 529.982 1656 551.787 1569 604.924C1324.67 448.194 1222.12 486.854 981.217 635H1800V535.266ZM892.587 635H0V523.667C52.5337 505.247 107.024 499.07 162.1 514.024C184.138 519.977 207.424 519.466 229.18 512.551C250.935 505.636 270.243 492.609 284.8 475.024C419.1 312.424 507.2 373.524 667.5 560.224C726.997 481.717 777.14 522.572 892.587 635Z" fill="#5865F2"/>
<path fill-rule="evenodd" clip-rule="evenodd" d="M300 600.115L325 582.673C350 565.23 400 530.345 450 521.624C500 512.903 550 530.345 600 547.788C650 565.23 700 582.673 750 571.044C800 559.416 850 518.717 900 495.46C950 472.203 1000 466.389 1050 480.925C1100 495.46 1150 530.345 1200 536.159C1250 541.973 1300 518.717 1350 527.438C1400 536.159 1450 576.858 1475 597.208L1500 617.558V635H1475C1450 635 1400 635 1350 635C1300 635 1250 635 1200 635C1150 635 1100 635 1050 635C1000 635 950 635 900 635C850 635 800 635 750 635C700 635 650 635 600 635C550 635 500 635 450 635C400 635 350 635 325 635H300V600.115Z" fill="url(#paint0_linear_174_2)"/>
<path d="M2038 600C2004.27 550.977 1902.47 528.86 1826.92 542.13C1789.96 477.624 1676.04 441.87 1592.62 513.378C1517.27 507.298 1417.49 529.965 1408 600H2038Z" fill="#7A73FF"/>
<path d="M1800 600H1333C1394.31 571.052 1501.6 565.21 1553.52 582.731C1624.47 546.419 1734.73 545.402 1800 600V600Z" fill="#8088FF"/>
<path d="M374 598C344.283 548.977 254.602 526.86 188.051 540.13C155.487 475.624 55.1283 439.87 -18.3621 511.378C-84.7342 505.298 -172.636 527.965 -181 598H374Z" fill="#7A73FF"/>
<path d="M-34 600H433C371.691 571.052 264.395 565.21 212.48 582.731C141.526 546.419 31.2673 545.402 -34 600V600Z" fill="#8088FF"/>
<path d="M1338.93 495.423C1344.69 519.363 1343.97 549.328 1343.97 549.328H1337.13C1338.21 527.628 1335.88 496.973 1335.88 496.973L1338.93 495.423Z" fill="#824B6F"/>
<path d="M1339.45 501.115L1350.66 513.399C1352.61 506.404 1348.87 500.604 1341.24 497.703C1344.32 497.022 1353.75 493.097 1353.75 493.097C1351.23 491.622 1348.36 490.935 1345.48 491.117C1342.6 491.298 1339.83 492.341 1337.5 494.122C1334.74 490.54 1329.05 485.421 1320.76 487.468L1331.81 494.973C1323.04 494.122 1321.09 498.215 1318 502.651L1332.14 501.115L1334.57 517.322C1334.57 517.322 1341.56 507.77 1339.45 501.115Z" fill="#85C286"/>
<path fill-rule="evenodd" clip-rule="evenodd" d="M546.334 557.228C547.816 555.942 548.39 553.116 547.607 550.164C546.721 546.819 544.4 544.478 542.233 544.603C543.908 547.659 545.345 552.25 546.334 557.228Z" fill="#535379"/>
<path d="M538.625 540.878C543.037 542.024 546.928 555.624 547.644 567.236L524 565.962C527.445 551.852 529.651 538.58 538.625 540.878Z" fill="#6C6C96"/>
<ellipse cx="536.577" cy="551.141" rx="5.57143" ry="3.09524" transform="rotate(3.08332 536.577 551.141)" fill="#535379"/>
<path d="M1314.52 572.655L1265.56 574.68L1264.41 546.823L1313.36 544.798L1314.52 572.655Z" fill="#BACFFF"/>
<path d="M1287.67 573.765L1265.56 574.68L1264.4 546.771L1286.51 545.856L1287.67 573.765Z" fill="#C8D9FF"/>
<path d="M1270.3 574.484L1276.61 574.222L1276.16 563.172C1276.12 562.196 1275.75 561.271 1275.15 560.606C1274.54 559.939 1273.74 559.582 1272.92 559.615C1272.1 559.649 1271.34 560.071 1270.79 560.786C1270.24 561.499 1269.95 562.451 1269.99 563.427L1270.45 574.477L1270.3 574.484Z" fill="#827D99"/>
<path d="M1264.88 558.308L1275.46 546.391L1264.41 546.848L1264.88 558.308Z" fill="#D4E1FF"/>
<path d="M1313.36 544.823L1264.41 546.848L1275.26 536.559L1301.7 535.466L1313.36 544.823Z" fill="#23283D"/>
<path d="M1286.52 545.933L1275.06 536.568L1264.41 546.848L1286.52 545.933Z" fill="#4E4766"/>
<path d="M1296.02 567.084C1294.49 567.147 1293.19 565.914 1293.13 564.326C1293.06 562.74 1294.25 561.402 1295.79 561.338C1297.32 561.275 1298.62 562.51 1298.68 564.096C1298.75 565.684 1297.56 567.02 1296.02 567.084V567.084Z" fill="#6BA1D1"/>
<path d="M1306.49 566.651C1304.95 566.714 1303.65 565.481 1303.59 563.893C1303.52 562.307 1304.71 560.969 1306.25 560.906C1307.78 560.842 1309.08 562.077 1309.15 563.663C1309.21 565.251 1308.02 566.588 1306.49 566.651Z" fill="#6BA1D1"/>
<path d="M1306.04 555.835C1304.5 555.898 1303.21 554.665 1303.14 553.077C1303.07 551.491 1304.27 550.153 1305.8 550.09C1307.34 550.026 1308.63 551.261 1308.7 552.847C1308.76 554.435 1307.57 555.771 1306.04 555.835Z" fill="#6BA1D1"/>
<path d="M1295.58 556.268C1294.04 556.331 1292.74 555.098 1292.68 553.51C1292.61 551.924 1293.8 550.586 1295.34 550.522C1296.87 550.459 1298.17 551.694 1298.24 553.28C1298.3 554.868 1297.11 556.204 1295.58 556.268V556.268Z" fill="#6BA1D1"/>
<path d="M830.157 532.446L836.147 532.112L837.133 549.796C837.225 551.45 835.959 552.866 834.305 552.958V552.958C832.65 553.05 831.235 551.784 831.142 550.13L830.157 532.446Z" fill="#9A9A9A"/>
<path d="M878.083 529.774L884.073 529.44L884.946 545.092C885.038 546.746 883.771 548.162 882.117 548.254V548.254C880.463 548.347 879.047 547.08 878.955 545.426L878.083 529.774Z" fill="#9A9A9A"/>
<rect x="819" y="494.007" width="72" height="39" rx="1" transform="rotate(-3.19008 819 494.007)" fill="#C4C4C4"/>
<rect x="821.109" y="495.892" width="68" height="35" rx="1" transform="rotate(-3.19008 821.109 495.892)" fill="#FFFCF5"/>
<path d="M870.046 505.179C869.802 500.662 865.947 497.198 861.437 497.442C858.7 497.591 856.357 499.075 854.987 501.224C853.393 499.235 850.904 498.013 848.167 498.161C843.656 498.405 840.198 502.264 840.443 506.782C840.478 507.422 840.592 508.037 840.764 508.628C842.28 515.622 850.516 522.641 856.241 524.381C861.744 522.033 869.175 514.165 869.925 507.049C870.034 506.444 870.081 505.819 870.046 505.179Z" fill="#EB459F"/>
<path d="M1549 554.68L1540 550.5L1549 546.32L1553 537.261C1553 536.913 1553 536.913 1553.33 537.261L1557 546.32H1557.33L1566 550.5L1557.33 554.68H1557L1553.33 563.739C1553 564.087 1553 564.087 1553 563.739L1549 554.68Z" fill="#FFF5CF"/>
<path d="M1727.85 512.419L1723.45 503.526L1733.09 505.901L1741.88 501.345C1742.1 501.073 1742.1 501.073 1742.14 501.552L1739.33 510.912L1739.59 511.12L1743.73 519.806L1734.35 517.638L1734.09 517.431L1725.56 522.197C1725.08 522.261 1725.08 522.261 1725.3 521.99L1727.85 512.419Z" fill="#FDE37E"/>
<path d="M70.5964 509.686L75.454 501.035L78.9317 510.328L87.6572 515.014C88.0039 515.041 88.0039 515.041 87.6318 515.345L78.3179 518.307L78.2925 518.638L73.4602 526.959L69.9572 517.997L69.9826 517.666L61.2312 513.314C60.9101 512.957 60.9101 512.957 61.2567 512.984L70.5964 509.686Z" fill="#FFF4CC"/>
<path d="M1233.2 164.1C1230.55 162.385 1228.3 160.124 1226.59 157.468C1224.88 154.813 1223.76 151.823 1223.3 148.7L1221.7 137.9C1221.64 137.653 1221.5 137.432 1221.3 137.27C1221.1 137.108 1220.85 137.013 1220.6 137C1220.34 136.996 1220.09 137.084 1219.88 137.249C1219.68 137.413 1219.55 137.644 1219.5 137.9L1217.9 148.7C1217.42 151.83 1216.28 154.822 1214.56 157.477C1212.83 160.132 1210.56 162.39 1207.9 164.1L1206.5 165C1206.35 165.104 1206.23 165.238 1206.15 165.394C1206.06 165.549 1206.01 165.722 1206 165.9C1206 166.08 1206.05 166.255 1206.14 166.412C1206.22 166.569 1206.35 166.702 1206.5 166.8L1207.9 167.7C1210.57 169.431 1212.84 171.707 1214.56 174.378C1216.28 177.05 1217.42 180.057 1217.9 183.2L1219.5 194C1219.55 194.256 1219.68 194.487 1219.88 194.652C1220.09 194.816 1220.34 194.904 1220.6 194.9C1220.85 194.887 1221.1 194.792 1221.3 194.631C1221.5 194.469 1221.64 194.248 1221.7 194L1223.3 183.2C1223.76 180.063 1224.88 177.059 1226.59 174.387C1228.29 171.715 1230.55 169.436 1233.2 167.7L1234.7 166.8C1234.84 166.697 1234.95 166.561 1235.02 166.403C1235.09 166.245 1235.12 166.072 1235.1 165.9C1235.11 165.729 1235.08 165.559 1235.01 165.403C1234.94 165.247 1234.83 165.109 1234.7 165L1233.2 164.1Z" fill="#AFD7FF"/>
<path d="M1724.7 397.1C1722.55 395.705 1720.73 393.868 1719.35 391.713C1717.97 389.557 1717.07 387.133 1716.7 384.6L1715.3 375.9C1715.3 375.688 1715.22 375.484 1715.07 375.334C1714.92 375.184 1714.71 375.1 1714.5 375.1C1714.28 375.099 1714.06 375.18 1713.9 375.327C1713.73 375.475 1713.62 375.679 1713.6 375.9L1712.3 384.6C1711.91 387.139 1710.99 389.567 1709.6 391.722C1708.2 393.877 1706.36 395.71 1704.2 397.1L1703.1 397.8C1702.99 397.883 1702.89 397.988 1702.83 398.108C1702.76 398.229 1702.71 398.362 1702.7 398.5C1702.7 398.642 1702.73 398.781 1702.81 398.904C1702.88 399.027 1702.98 399.129 1703.1 399.2L1704.2 399.9C1706.35 401.299 1708.18 403.135 1709.58 405.289C1710.97 407.442 1711.9 409.865 1712.3 412.4L1713.6 421.1C1713.62 421.321 1713.73 421.525 1713.9 421.673C1714.06 421.821 1714.28 421.902 1714.5 421.9C1714.71 421.9 1714.92 421.816 1715.07 421.666C1715.22 421.516 1715.3 421.312 1715.3 421.1L1716.7 412.4C1717.08 409.872 1717.99 407.451 1719.37 405.298C1720.75 403.144 1722.56 401.305 1724.7 399.9L1725.8 399.2C1725.93 399.139 1726.04 399.039 1726.11 398.913C1726.18 398.788 1726.21 398.644 1726.2 398.5C1726.2 398.358 1726.16 398.219 1726.09 398.096C1726.02 397.973 1725.92 397.871 1725.8 397.8L1724.7 397.1Z" fill="#404EED"/>
<path d="M137.5 262.9C135.931 261.918 134.599 260.602 133.596 259.047C132.594 257.491 131.946 255.734 131.7 253.9L130.7 247.5C130.676 247.359 130.602 247.231 130.492 247.139C130.382 247.047 130.243 246.998 130.1 247C129.956 246.998 129.817 247.047 129.707 247.139C129.597 247.231 129.523 247.359 129.5 247.5L128.5 253.9C128.234 255.728 127.578 257.478 126.577 259.03C125.577 260.583 124.254 261.903 122.7 262.9L121.9 263.4C121.804 263.442 121.723 263.512 121.669 263.602C121.615 263.692 121.591 263.796 121.6 263.9C121.591 264.004 121.615 264.109 121.669 264.198C121.723 264.288 121.804 264.359 121.9 264.4L122.7 264.9C124.249 265.928 125.565 267.268 126.564 268.836C127.563 270.403 128.222 272.162 128.5 274L129.5 280.3C129.523 280.441 129.597 280.569 129.707 280.661C129.817 280.753 129.956 280.802 130.1 280.8C130.243 280.802 130.382 280.753 130.492 280.661C130.602 280.569 130.676 280.441 130.7 280.3L131.7 274C131.958 272.157 132.61 270.39 133.611 268.82C134.611 267.25 135.938 265.913 137.5 264.9L138.3 264.4C138.396 264.359 138.476 264.288 138.53 264.198C138.584 264.109 138.608 264.004 138.6 263.9C138.608 263.796 138.584 263.692 138.53 263.602C138.476 263.512 138.396 263.442 138.3 263.4L137.5 262.9Z" fill="#91FFAD"/>
<path d="M433 208.892C432.86 200.21 429.71 191.846 424.09 185.227C418.47 178.608 410.73 174.145 402.18 172.599C393.64 171.053 384.82 172.52 377.24 176.75C369.66 180.979 363.77 187.71 360.6 195.792C357.81 195.186 354.96 194.884 352.1 194.892C346.36 194.874 340.69 196.12 335.49 198.539C330.29 200.959 325.68 204.493 322 208.892H433Z" fill="#CDD1FF"/>
<path d="M1706.6 270.5C1709.11 270.527 1711.6 269.998 1713.88 268.951C1716.16 267.903 1718.18 266.363 1719.8 264.441C1721.41 262.52 1722.58 260.264 1723.22 257.836C1723.86 255.408 1723.96 252.869 1723.5 250.4C1718.71 224.556 1705.63 200.974 1686.26 183.214C1666.88 165.454 1642.25 154.481 1616.09 151.952C1589.92 149.422 1563.65 155.474 1541.23 169.193C1518.81 182.912 1501.46 203.553 1491.8 228C1482.86 226.071 1473.74 225.098 1464.6 225.1C1447.03 225.071 1429.64 228.712 1413.56 235.789C1397.48 242.866 1383.05 253.224 1371.2 266.2C1370.88 266.573 1370.67 267.029 1370.6 267.516C1370.52 268.003 1370.59 268.501 1370.79 268.952C1370.99 269.402 1371.31 269.787 1371.72 270.061C1372.13 270.335 1372.61 270.487 1373.1 270.5H1706.6Z" fill="#CDD1FF"/>
</g>
<defs>
<linearGradient id="paint0_linear_174_2" x1="900" y1="473" x2="900" y2="882.5" gradientUnits="userSpaceOnUse">
<stop stop-color="#85C28D"/>
<stop offset="1" stop-color="#2FB67E"/>
</linearGradient>
<clipPath id="clip0_174_2">
<rect width="1800" height="600" fill="white"/>
</clipPath>
</defs>
</svg>
