<svg width="3600" height="1200" viewBox="0 0 3600 1200" fill="none" xmlns="http://www.w3.org/2000/svg">
<g clip-path="url(#clip0_403_2)">
<path fill-rule="evenodd" clip-rule="evenodd" d="M3600 1070.53C3457 1059.96 3312.01 1103.57 3138 1209.85C2649.34 896.388 2444.23 973.708 1962.43 1270H3600V1070.53ZM1785.17 1270H0V1047.33C105.067 1010.49 214.048 998.14 324.2 1028.05C368.276 1039.95 414.848 1038.93 458.36 1025.1C501.87 1011.27 540.486 985.218 569.6 950.048C838.2 624.848 1014.4 747.048 1335 1120.45C1453.99 963.434 1554.28 1045.14 1785.17 1270Z" fill="#5865F2"/>
<path fill-rule="evenodd" clip-rule="evenodd" d="M600 1200.23L650 1165.35C700 1130.46 800 1060.69 900 1043.25C1000 1025.81 1100 1060.69 1200 1095.58C1300 1130.46 1400 1165.35 1500 1142.09C1600 1118.83 1700 1037.43 1800 990.92C1900 944.407 2000 932.778 2100 961.849C2200 990.92 2300 1060.69 2400 1072.32C2500 1083.95 2600 1037.43 2700 1054.88C2800 1072.32 2900 1153.72 2950 1194.42L3000 1235.12V1270H2950C2900 1270 2800 1270 2700 1270C2600 1270 2500 1270 2400 1270C2300 1270 2200 1270 2100 1270C2000 1270 1900 1270 1800 1270C1700 1270 1600 1270 1500 1270C1400 1270 1300 1270 1200 1270C1100 1270 1000 1270 900 1270C800 1270 700 1270 650 1270H600V1200.23Z" fill="url(#paint0_linear_403_2)"/>
<path d="M4076 1200C4008.53 1101.95 3804.93 1057.72 3653.85 1084.26C3579.92 955.249 3352.08 883.741 3185.23 1026.76C3034.55 1014.6 2834.99 1059.93 2816 1200H4076Z" fill="#7A73FF"/>
<path d="M3600 1200H2666C2788.62 1142.1 3003.21 1130.42 3107.04 1165.46C3248.95 1092.84 3469.47 1090.8 3600 1200V1200Z" fill="#8088FF"/>
<path d="M748 1196C688.566 1097.95 509.203 1053.72 376.102 1080.26C310.974 951.249 110.257 879.741 -36.7242 1022.76C-169.468 1010.6 -345.271 1055.93 -362 1196H748Z" fill="#7A73FF"/>
<path d="M-68 1200H866C743.382 1142.1 528.79 1130.42 424.959 1165.46C283.052 1092.84 62.5345 1090.8 -68 1200V1200Z" fill="#8088FF"/>
<path d="M2677.87 990.846C2689.38 1038.73 2687.94 1098.66 2687.94 1098.66H2674.27C2676.43 1055.26 2671.75 993.947 2671.75 993.947L2677.87 990.846Z" fill="#824B6F"/>
<path d="M2678.9 1002.23L2701.33 1026.8C2705.23 1012.81 2697.75 1001.21 2682.47 995.406C2688.65 994.044 2707.5 986.194 2707.5 986.194C2702.46 983.244 2696.72 981.87 2690.97 982.234C2685.21 982.595 2679.67 984.682 2675 988.245C2669.47 981.079 2658.1 970.842 2641.52 974.936L2663.62 989.947C2646.07 988.245 2642.18 996.431 2636 1005.3L2664.28 1002.23L2669.15 1034.64C2669.15 1034.64 2683.13 1015.54 2678.9 1002.23Z" fill="#85C286"/>
<path fill-rule="evenodd" clip-rule="evenodd" d="M1092.67 1114.46C1095.63 1111.88 1096.78 1106.23 1095.21 1100.33C1093.44 1093.64 1088.8 1088.96 1084.47 1089.21C1087.82 1095.32 1090.69 1104.5 1092.67 1114.46Z" fill="#535379"/>
<path d="M1077.25 1081.76C1086.07 1084.05 1093.85 1111.25 1095.29 1134.47L1048 1131.92C1054.89 1103.7 1059.3 1077.16 1077.25 1081.76Z" fill="#6C6C96"/>
<ellipse cx="1073.15" cy="1102.28" rx="11.1428" ry="6.19049" transform="rotate(3.0833 1073.15 1102.28)" fill="#535379"/>
<path d="M1853.41 1030.1C1862.39 1030.14 1872.78 1042.12 1876.48 1052.96L1829.33 1057.37C1833.39 1043.16 1835.16 1030.05 1853.41 1030.1Z" fill="#535379"/>
<path d="M1853.41 1030.1C1862.39 1030.14 1872.78 1042.12 1876.48 1052.96L1829.33 1057.37C1833.39 1043.16 1835.16 1030.05 1853.41 1030.1Z" fill="#6C6C96"/>
<path d="M2181.12 1054.4C2189.93 1056.28 2197.73 1073.89 2199.2 1088.67L2152 1084.75C2158.84 1067.21 2163.2 1050.62 2181.12 1054.4Z" fill="#535379"/>
<path d="M2181.12 1054.4C2189.93 1056.28 2197.73 1073.89 2199.2 1088.67L2152 1084.75C2158.84 1067.21 2163.2 1050.62 2181.12 1054.4Z" fill="#6C6C96"/>
<path d="M2629.03 1145.31L2531.12 1149.36L2528.81 1093.65L2626.73 1089.6L2629.03 1145.31Z" fill="#BACFFF"/>
<path d="M2575.34 1147.53L2531.12 1149.36L2528.81 1093.54L2573.03 1091.71L2575.34 1147.53Z" fill="#C8D9FF"/>
<path d="M2540.59 1148.97L2553.23 1148.44L2552.31 1126.34C2552.23 1124.39 2551.5 1122.54 2550.29 1121.21C2549.08 1119.88 2547.48 1119.16 2545.84 1119.23C2544.21 1119.3 2542.67 1120.14 2541.57 1121.57C2540.48 1123 2539.9 1124.9 2539.98 1126.85L2540.9 1148.95L2540.59 1148.97Z" fill="#827D99"/>
<path d="M2529.76 1116.62L2550.92 1092.78L2528.81 1093.7L2529.76 1116.62Z" fill="#D4E1FF"/>
<path d="M2626.73 1089.65L2528.81 1093.7L2550.52 1073.12L2603.4 1070.93L2626.73 1089.65Z" fill="#23283D"/>
<path d="M2573.03 1091.87L2550.11 1073.14L2528.81 1093.7L2573.03 1091.87Z" fill="#4E4766"/>
<path d="M2592.15 1134.07C2589.14 1134.25 2586.54 1131.87 2586.35 1128.75C2586.17 1125.63 2588.45 1122.95 2591.47 1122.77C2594.48 1122.59 2597.07 1124.98 2597.26 1128.1C2597.45 1131.22 2595.16 1133.89 2592.15 1134.07V1134.07Z" fill="#6BA1D1"/>
<path d="M2613.08 1133.21C2610.06 1133.39 2607.47 1131 2607.28 1127.88C2607.09 1124.76 2609.38 1122.09 2612.39 1121.91C2615.4 1121.73 2618 1124.11 2618.19 1127.23C2618.38 1130.35 2616.09 1133.03 2613.08 1133.21Z" fill="#6BA1D1"/>
<path d="M2612.18 1111.57C2609.17 1111.75 2606.57 1109.37 2606.38 1106.25C2606.2 1103.13 2608.49 1100.45 2611.5 1100.27C2614.51 1100.09 2617.11 1102.48 2617.29 1105.6C2617.48 1108.72 2615.19 1111.39 2612.18 1111.57Z" fill="#6BA1D1"/>
<path d="M2591.26 1112.44C2588.24 1112.62 2585.65 1110.24 2585.46 1107.12C2585.27 1104 2587.56 1101.32 2590.57 1101.14C2593.58 1100.96 2596.18 1103.35 2596.37 1106.46C2596.56 1109.59 2594.27 1112.26 2591.26 1112.44V1112.44Z" fill="#6BA1D1"/>
<path d="M3098 1109.36L3080 1101L3098 1092.64L3106 1074.52C3106 1073.83 3106 1073.83 3106.67 1074.52L3114 1092.64H3114.67L3132 1101L3114.67 1109.36H3114L3106.67 1127.48C3106 1128.17 3106 1128.17 3106 1127.48L3098 1109.36Z" fill="#FFF5CF"/>
<path d="M3455.7 1024.84L3446.91 1007.05L3466.17 1011.8L3483.76 1002.69C3484.2 1002.15 3484.2 1002.15 3484.28 1003.1L3478.65 1021.82L3479.17 1022.24L3487.45 1039.61L3468.7 1035.28L3468.18 1034.86L3451.12 1044.39C3450.17 1044.52 3450.17 1044.52 3450.6 1043.98L3455.7 1024.84Z" fill="#FDE37E"/>
<path d="M141.193 1019.37L150.908 1002.07L157.863 1020.66L175.314 1030.03C176.008 1030.08 176.008 1030.08 175.264 1030.69L156.636 1036.61L156.585 1037.28L146.92 1053.92L139.914 1035.99L139.965 1035.33L122.462 1026.63C121.82 1025.91 121.82 1025.91 122.513 1025.97L141.193 1019.37Z" fill="#FFF4CC"/>
<path d="M2466.4 328.2C2461.1 324.77 2456.6 320.248 2453.18 314.936C2449.76 309.626 2447.52 303.646 2446.6 297.4L2443.4 275.8C2443.28 275.306 2443 274.864 2442.6 274.54C2442.2 274.216 2441.7 274.026 2441.2 274C2440.68 273.992 2440.18 274.168 2439.76 274.498C2439.36 274.826 2439.1 275.288 2439 275.8L2435.8 297.4C2434.84 303.66 2432.56 309.644 2429.12 314.954C2425.66 320.264 2421.12 324.78 2415.8 328.2L2413 330C2412.7 330.208 2412.46 330.476 2412.3 330.788C2412.12 331.098 2412.02 331.444 2412 331.8C2412 332.16 2412.1 332.51 2412.28 332.824C2412.44 333.138 2412.7 333.404 2413 333.6L2415.8 335.4C2421.14 338.862 2425.68 343.414 2429.12 348.756C2432.56 354.1 2434.84 360.114 2435.8 366.4L2439 388C2439.1 388.512 2439.36 388.974 2439.76 389.304C2440.18 389.632 2440.68 389.808 2441.2 389.8C2441.7 389.774 2442.2 389.584 2442.6 389.262C2443 388.938 2443.28 388.496 2443.4 388L2446.6 366.4C2447.52 360.126 2449.76 354.118 2453.18 348.774C2456.58 343.43 2461.1 338.872 2466.4 335.4L2469.4 333.6C2469.68 333.394 2469.9 333.122 2470.04 332.806C2470.18 332.49 2470.24 332.144 2470.2 331.8C2470.22 331.458 2470.16 331.118 2470.02 330.806C2469.88 330.494 2469.66 330.218 2469.4 330L2466.4 328.2Z" fill="#AFD7FF"/>
<path d="M3449.4 794.2C3445.1 791.41 3441.46 787.736 3438.7 783.426C3435.94 779.114 3434.14 774.266 3433.4 769.2L3430.6 751.8C3430.6 751.376 3430.44 750.968 3430.14 750.668C3429.84 750.368 3429.42 750.2 3429 750.2C3428.56 750.198 3428.12 750.36 3427.8 750.654C3427.46 750.95 3427.24 751.358 3427.2 751.8L3424.6 769.2C3423.82 774.278 3421.98 779.134 3419.2 783.444C3416.4 787.754 3412.72 791.42 3408.4 794.2L3406.2 795.6C3405.98 795.766 3405.78 795.976 3405.66 796.216C3405.52 796.458 3405.42 796.724 3405.4 797C3405.4 797.284 3405.46 797.562 3405.62 797.808C3405.76 798.054 3405.96 798.258 3406.2 798.4L3408.4 799.8C3412.7 802.598 3416.36 806.27 3419.16 810.578C3421.94 814.884 3423.8 819.73 3424.6 824.8L3427.2 842.2C3427.24 842.642 3427.46 843.05 3427.8 843.346C3428.12 843.642 3428.56 843.804 3429 843.8C3429.42 843.8 3429.84 843.632 3430.14 843.332C3430.44 843.032 3430.6 842.624 3430.6 842.2L3433.4 824.8C3434.16 819.744 3435.98 814.902 3438.74 810.596C3441.5 806.288 3445.12 802.61 3449.4 799.8L3451.6 798.4C3451.86 798.278 3452.08 798.078 3452.22 797.826C3452.36 797.576 3452.42 797.288 3452.4 797C3452.4 796.716 3452.32 796.438 3452.18 796.192C3452.04 795.946 3451.84 795.742 3451.6 795.6L3449.4 794.2Z" fill="#404EED"/>
<path d="M275 525.8C271.862 523.836 269.198 521.204 267.192 518.094C265.188 514.982 263.892 511.468 263.4 507.8L261.4 495C261.352 494.718 261.204 494.462 260.984 494.278C260.764 494.094 260.486 493.996 260.2 494C259.912 493.996 259.634 494.094 259.414 494.278C259.194 494.462 259.046 494.718 259 495L257 507.8C256.468 511.456 255.156 514.956 253.154 518.06C251.154 521.166 248.508 523.806 245.4 525.8L243.8 526.8C243.608 526.884 243.446 527.024 243.338 527.204C243.23 527.384 243.182 527.592 243.2 527.8C243.182 528.008 243.23 528.218 243.338 528.396C243.446 528.576 243.608 528.718 243.8 528.8L245.4 529.8C248.498 531.856 251.13 534.536 253.128 537.672C255.126 540.806 256.444 544.324 257 548L259 560.6C259.046 560.882 259.194 561.138 259.414 561.322C259.634 561.506 259.912 561.604 260.2 561.6C260.486 561.604 260.764 561.506 260.984 561.322C261.204 561.138 261.352 560.882 261.4 560.6L263.4 548C263.916 544.314 265.22 540.78 267.222 537.64C269.222 534.5 271.876 531.826 275 529.8L276.6 528.8C276.792 528.718 276.952 528.576 277.06 528.396C277.168 528.218 277.216 528.008 277.2 527.8C277.216 527.592 277.168 527.384 277.06 527.204C276.952 527.024 276.792 526.884 276.6 526.8L275 525.8Z" fill="#91FFAD"/>
<path d="M866 417.784C865.72 400.42 859.42 383.692 848.18 370.454C836.94 357.216 821.46 348.29 804.36 345.198C787.28 342.106 769.64 345.04 754.48 353.5C739.32 361.958 727.54 375.42 721.2 391.584C715.62 390.372 709.92 389.768 704.2 389.784C692.72 389.748 681.38 392.24 670.98 397.078C660.58 401.918 651.36 408.986 644 417.784H866Z" fill="#CDD1FF" fill-opacity="0.5"/>
<path d="M3413.2 541C3418.22 541.054 3423.2 539.996 3427.76 537.902C3432.32 535.806 3436.36 532.726 3439.6 528.882C3442.82 525.04 3445.16 520.528 3446.44 515.672C3447.72 510.816 3447.92 505.738 3447 500.8C3437.42 449.112 3411.26 401.948 3372.52 366.428C3333.76 330.908 3284.5 308.962 3232.18 303.904C3179.84 298.844 3127.3 310.948 3082.46 338.386C3037.62 365.824 3002.92 407.106 2983.6 456C2965.72 452.142 2947.48 450.196 2929.2 450.2C2894.06 450.142 2859.28 457.424 2827.12 471.578C2794.96 485.732 2766.1 506.448 2742.4 532.4C2741.76 533.146 2741.34 534.058 2741.2 535.032C2741.04 536.006 2741.18 537.002 2741.58 537.904C2741.98 538.804 2742.62 539.574 2743.44 540.122C2744.26 540.67 2745.22 540.974 2746.2 541H3413.2Z" fill="#CDD1FF" fill-opacity="0.5"/>
<path d="M2698.45 71.9235H2675.47V76.884H2684.09V96.9044H2689.97V76.884H2698.45V71.9235ZM2715.06 75.4565C2711.21 75.4565 2708.65 77.2408 2707.22 80.9166V71.2097H2701.55V96.9044H2707.22V86.4124C2707.22 82.8794 2709.11 80.417 2712.68 80.417C2715.97 80.417 2717.58 82.4155 2717.58 86.5908V96.9044H2723.29V85.3061C2723.29 78.9895 2720.32 75.4565 2715.06 75.4565ZM2736.34 75.4565C2732.56 75.4565 2729.94 76.7055 2728.05 78.133V83.0221C2729.83 81.2378 2732 80.2742 2734.73 80.2742C2738.48 80.2742 2741.28 82.2013 2741.32 86.1626V87.0904C2739.88 85.1277 2737.64 84.1284 2734.66 84.1284C2729.97 84.1284 2726.96 86.9477 2726.96 90.8019C2726.96 94.6561 2729.87 97.5824 2734.38 97.5824C2737.53 97.5824 2739.95 96.4047 2741.35 94.1208V96.9044H2746.92V85.6273C2746.92 79.0609 2742.96 75.4565 2736.34 75.4565ZM2736.62 93.8353C2733.96 93.8353 2732.39 92.4792 2732.39 90.5521C2732.39 88.6607 2733.96 87.3046 2736.73 87.3046C2739.5 87.3046 2741.35 88.6607 2741.35 90.4807C2741.35 92.4078 2739.39 93.8353 2736.62 93.8353ZM2765.3 75.4565C2761.41 75.4565 2758.85 77.2765 2757.42 80.988V76.313H2751.78V96.9044H2757.45V86.4124C2757.45 82.8794 2759.34 80.417 2762.92 80.417C2766.21 80.417 2767.82 82.4155 2767.82 86.5908V96.9044H2773.53V85.3061C2773.53 78.9895 2770.55 75.4565 2765.3 75.4565ZM2789.97 85.1633L2799.53 76.313H2792.53L2784.16 84.4496V71.2097H2778.42V96.9044H2784.16V86.0555L2793.2 96.9044H2800.2L2789.97 85.1633ZM2813.32 83.0578L2806.6 71.9235H2799.98L2810.28 88.3038V96.9044H2816.44V88.3038L2826.88 71.9235H2820.19L2813.32 83.0578ZM2836.87 97.511C2844.26 97.511 2848.74 92.6219 2848.74 86.4124C2848.74 80.1672 2844.26 75.4565 2836.87 75.4565C2829.55 75.4565 2825 80.1672 2825 86.4124C2825 92.6219 2829.55 97.511 2836.87 97.511ZM2836.87 92.836C2833.09 92.836 2830.78 90.1595 2830.78 86.4838C2830.78 82.7723 2833.09 80.2029 2836.87 80.2029C2840.65 80.2029 2842.96 82.7723 2842.96 86.4838C2842.96 90.1595 2840.65 92.836 2836.87 92.836ZM2868.17 87.1261C2868.17 90.7305 2866.28 92.9788 2862.92 92.9788C2859.7 92.9788 2858.09 91.1944 2858.09 87.4116V76.313H2852.35V88.5893C2852.35 94.442 2855.29 97.6538 2860.57 97.6538C2864.04 97.6538 2866.77 96.0836 2868.17 92.729V96.9044H2873.88V76.313H2868.17V87.1261ZM2890.51 96.9044C2900.39 96.9044 2905.36 91.5156 2905.36 84.3069C2905.36 77.1338 2900.7 71.9235 2891.46 71.9235H2879.38V96.9044H2890.51ZM2885.26 76.5628H2890.97C2896.61 76.5628 2899.13 79.7032 2899.13 84.2712C2899.13 89.2317 2896.05 92.2651 2890.44 92.2651H2885.26V76.5628ZM2912.3 75.3137C2914.19 75.3137 2915.59 74.1004 2915.59 72.4945C2915.59 70.8886 2914.19 69.7466 2912.3 69.7466C2910.41 69.7466 2908.97 70.8886 2908.97 72.4945C2908.97 74.1004 2910.37 75.3137 2912.3 75.3137ZM2915.13 96.9044V76.9553H2909.43V96.9044H2915.13ZM2929.05 97.511C2934.97 97.511 2938.4 94.8345 2938.4 90.8376C2938.4 87.2332 2936.13 85.5202 2932.34 84.7351L2928.28 83.8429C2926.15 83.3433 2925.24 82.808 2925.24 81.7017C2925.24 80.4884 2926.57 79.7032 2929.37 79.7032C2932.59 79.7032 2935.32 80.7739 2937.28 82.13V77.7405C2935.39 76.4914 2932.59 75.4565 2928.88 75.4565C2923.03 75.4565 2919.46 78.026 2919.46 81.7374C2919.46 84.5567 2921.1 86.5195 2925.59 87.6614L2930.07 88.732C2932.2 89.303 2932.52 90.1952 2932.52 91.016C2932.52 92.4078 2931.22 93.2643 2928.6 93.2643C2925.34 93.2643 2921.91 92.1937 2919.35 90.1952V94.7275C2922.08 96.5832 2925.52 97.511 2929.05 97.511ZM2953.11 97.511C2956.4 97.511 2959.06 96.6189 2961.34 95.0129V90.3736C2959.73 91.587 2957.31 92.6576 2954.58 92.6576C2949.5 92.6576 2946.88 89.9097 2946.88 86.4481C2946.88 82.9151 2949.71 80.3099 2954.48 80.3099C2957.38 80.3099 2959.66 81.3805 2961.23 82.7009V77.8475C2959.55 76.5628 2957.1 75.4565 2953.29 75.4565C2945.58 75.4565 2940.92 80.2385 2940.92 86.4481C2940.92 92.6219 2945.41 97.511 2953.11 97.511ZM2975.84 97.511C2983.23 97.511 2987.71 92.6219 2987.71 86.4124C2987.71 80.1672 2983.23 75.4565 2975.84 75.4565C2968.52 75.4565 2963.97 80.1672 2963.97 86.4124C2963.97 92.6219 2968.52 97.511 2975.84 97.511ZM2975.84 92.836C2972.06 92.836 2969.75 90.1595 2969.75 86.4838C2969.75 82.7723 2972.06 80.2029 2975.84 80.2029C2979.63 80.2029 2981.94 82.7723 2981.94 86.4838C2981.94 90.1595 2979.63 92.836 2975.84 92.836ZM3003.16 75.9204C3000.32 75.9204 2998.22 77.8118 2997.24 81.9515V76.313H2991.6V96.9044H2997.34V88.0183C2997.38 83.379 2999.58 81.2021 3002.7 81.2021C3004.14 81.2021 3005.29 81.5947 3006.06 82.1656V76.7769C3005.36 76.2773 3004.38 75.9204 3003.16 75.9204ZM3025.68 80.5954C3024.21 77.3122 3021.54 75.4565 3017.69 75.4565C3011.95 75.4565 3007.64 79.9887 3007.64 86.5195C3007.64 92.7647 3011.46 97.511 3017.2 97.511C3021.44 97.511 3024.24 95.4055 3025.68 92.1937V96.9044H3031.38V71.2097H3025.68V80.5954ZM3019.55 92.7647C3015.91 92.7647 3013.56 90.1238 3013.56 86.4838C3013.56 82.8437 3015.91 80.2029 3019.62 80.2029C3023.4 80.2029 3025.75 82.808 3025.75 86.3767C3025.75 90.0168 3023.33 92.7647 3019.55 92.7647Z" fill="white"/>
<path d="M2646.57 98.0647C2646.57 91.698 2641.51 86.5369 2635.28 86.5369C2631.49 86.5369 2628.15 88.4445 2626.1 91.3604C2624.05 88.4445 2620.71 86.5369 2616.92 86.5369C2610.69 86.5369 2605.63 91.6968 2605.63 98.0647C2605.63 98.9666 2605.74 99.8404 2605.93 100.683C2607.5 110.628 2618.33 121.119 2626.1 124C2633.86 121.119 2644.7 110.628 2646.26 100.684C2646.46 99.8416 2646.57 98.9678 2646.57 98.0647Z" fill="white"/>
<path fill-rule="evenodd" clip-rule="evenodd" d="M2650.93 55.3111C2646.35 53.1507 2641.43 51.559 2636.28 50.6474C2636.19 50.6298 2636.1 50.6738 2636.05 50.7617C2635.41 51.9166 2634.71 53.4233 2634.22 54.6076C2628.69 53.7575 2623.19 53.7575 2617.77 54.6076C2617.28 53.397 2616.55 51.9166 2615.91 50.7617C2615.87 50.6767 2615.77 50.6327 2615.68 50.6474C2610.54 51.5561 2605.62 53.1478 2601.03 55.3111C2600.99 55.3287 2600.95 55.3581 2600.93 55.3961C2591.6 69.7039 2589.04 83.66 2590.3 97.443C2590.3 97.5104 2590.34 97.5749 2590.39 97.616C2595.31 101.322 2600.1 103.866 2604.82 105.691C2604.24 104.201 2603.8 102.683 2603.56 101.158C2603.34 100.179 2603.21 99.1451 2603.21 98.0645C2603.21 90.337 2609.34 84.069 2616.92 84.069C2620.46 84.069 2623.67 85.4403 2626.1 87.6754C2628.52 85.4402 2631.74 84.069 2635.28 84.069C2642.85 84.069 2648.99 90.3385 2648.99 98.0645C2648.99 99.1451 2648.86 100.18 2648.64 101.162C2648.4 102.648 2647.98 104.126 2647.42 105.578C2652.06 103.761 2656.76 101.247 2661.58 97.616C2661.63 97.5749 2661.66 97.5134 2661.67 97.4459C2663.17 81.5113 2659.16 67.6696 2651.03 55.399C2651.01 55.3581 2650.97 55.3287 2650.93 55.3111ZM2637.01 78.9093C2639.74 78.9093 2642.28 79.7054 2644.43 81.082C2644.24 77.246 2641.45 74.1595 2637.97 74.1595C2634.85 74.1595 2632.29 76.6627 2631.65 79.9967C2633.3 79.2965 2635.11 78.9093 2637.01 78.9093ZM2614.31 78.9093C2616.51 78.9093 2618.6 79.4303 2620.45 80.3568C2619.97 76.8644 2617.31 74.1595 2614.05 74.1595C2610.74 74.1595 2608.05 76.9871 2607.64 80.6345C2609.62 79.5344 2611.9 78.9093 2614.31 78.9093Z" fill="white"/>
<path d="M3084.24 85.1302L3096.06 68.3547H3086.21L3078.22 80.2583L3070.58 68.3547H3060.83L3072.46 85.1302L3060.43 103.513H3070.04L3078.22 90.4542L3086.36 103.513H3096.36L3084.24 85.1302Z" fill="white"/>
<path d="M3153.09 78.4216H3150.16C3147.75 78.4216 3145.8 76.6974 3145.8 74.5753L3147.66 51.7894C3147.66 50.2964 3144.43 48 3142.73 48H3138.15C3136.46 48 3133.23 50.2737 3133.23 51.7894L3135.08 74.5753C3135.08 76.6974 3133.13 78.4216 3130.72 78.4216H3127.79C3125.68 78.4216 3123.98 79.9374 3123.98 81.7753V86.8152C3124.02 87.2811 3124.41 87.6302 3124.87 87.5996H3156.02C3156.48 87.6323 3156.88 87.2821 3156.91 86.8152V81.7905C3156.9 79.926 3155.2 78.4216 3153.09 78.4216ZM3142.38 55.1279C3142.32 55.8504 3141.71 56.3942 3141 56.3443H3139.88C3139.18 56.3921 3138.56 55.8493 3138.51 55.1279V52.5701C3138.57 51.8517 3139.18 51.3133 3139.88 51.3612H3141C3141.71 51.3112 3142.32 51.8507 3142.38 52.5701V55.1279Z" fill="white"/>
<path d="M3157.99 103.448V116.927C3157.99 119.373 3156.05 121.357 3153.65 121.357H3127.38C3126.23 121.357 3125.12 120.89 3124.31 120.059C3123.49 119.228 3123.04 118.101 3123.04 116.927V107.855V98.6957C3123.04 96.3204 3124.93 94.3947 3127.26 94.3947H3127.87C3130.2 94.3947 3132.09 96.3204 3132.09 98.6957V106.218C3132.09 107.121 3132.81 107.853 3133.7 107.855C3134.59 107.855 3135.3 107.122 3135.3 106.218V96.3425C3135.3 93.9686 3137.19 92.0436 3139.52 92.0415H3141.26C3142.38 92.0415 3143.46 92.4947 3144.25 93.3013C3145.04 94.1078 3145.48 95.2018 3145.48 96.3425V105.778C3145.48 106.329 3145.7 106.857 3146.08 107.247C3146.46 107.636 3146.98 107.855 3147.52 107.855C3148.65 107.853 3149.56 106.924 3149.56 105.778V103.55C3149.54 101.264 3151.25 99.3485 3153.49 99.1581C3154.65 99.0762 3155.8 99.4913 3156.66 100.304C3157.51 101.118 3158 102.256 3158 103.448H3157.99Z" fill="white"/>
<path d="M3172.77 100.209H3180.43V91.1799H3184.93C3192.25 91.1799 3195.97 85.7277 3195.97 80.2319C3195.97 74.7797 3192.29 69.3275 3184.88 69.3275H3172.77V100.209ZM3180.43 84.2447V76.6116H3184.88C3189.51 76.568 3189.51 84.2883 3184.88 84.2447H3180.43ZM3215.36 100.209H3224.91L3216.65 89.6096C3220.33 88.432 3222.6 85.2043 3222.6 79.4904C3222.43 72.2499 3217.59 69.3275 3211.34 69.3275H3199.23V100.209H3206.98V90.3947H3208.35L3215.36 100.209ZM3206.98 83.6777V76.6116H3211.47C3216.31 76.6116 3216.31 83.6777 3211.47 83.6777H3206.98ZM3225.92 90.0458C3225.92 97.1118 3232.21 100.645 3238.5 100.645C3244.79 100.645 3251.04 97.1118 3251.04 90.0458V79.4904C3251.04 72.4244 3244.75 68.8914 3238.46 68.8914C3232.17 68.8914 3225.92 72.3808 3225.92 79.4904V90.0458ZM3233.58 79.4904C3233.58 77.2223 3235.98 76.001 3238.37 76.001C3240.86 76.001 3243.38 77.0914 3243.38 79.4904V90.0458C3243.38 92.2703 3240.94 93.4043 3238.5 93.4043C3236.06 93.4043 3233.58 92.3139 3233.58 90.0458V79.4904ZM3252.84 91.1362C3253.7 97.6789 3258.88 100.645 3264.1 100.645C3269.88 100.645 3275.65 96.8501 3275.65 90.133V69.3275H3261.19V76.3936H3268.08V90.133C3268.08 91.9214 3266.28 93.099 3264.4 93.099C3262.52 93.099 3260.5 92.0958 3260.07 89.6096L3252.84 91.1362ZM3287.97 76.6553H3301.33V69.3275H3280.23V100.209H3301.33V92.8373H3287.97V88.2139H3300.26V81.4532H3287.97V76.6553ZM3320.63 90.5692C3318.96 94.8437 3312.12 93.7969 3312.12 90.0894V79.4468C3312.12 75.6084 3318.87 74.7361 3320.93 78.5744L3327.18 76.001C3324.74 70.5052 3320.25 68.8914 3316.52 68.8914C3310.44 68.8914 3304.45 72.468 3304.45 79.4468V90.0894C3304.45 97.1118 3310.44 100.645 3316.4 100.645C3320.2 100.645 3324.78 98.7257 3327.31 93.7097L3320.63 90.5692ZM3352.13 76.6989V69.2839H3328.3V76.6989H3336.34V100.209H3344.09V76.6989H3352.13ZM3383.98 78.7489C3384.15 72.8605 3379.91 69.3275 3374.14 69.3275H3361.98V100.209H3374.35C3381.07 100.209 3384.36 97.1991 3385.13 92.2267C3385.52 89.8713 3385 85.9021 3380.85 83.7649C3383.04 82.6308 3383.93 80.1447 3383.98 78.7489ZM3369.69 81.4096V75.9138H3374.14C3377.99 75.9138 3377.86 81.4096 3374.14 81.4096H3369.69ZM3369.69 93.3607V87.0362H3374.14C3378.68 87.0362 3378.76 93.3607 3374.14 93.3607H3369.69ZM3388.69 100.209H3408.72V92.4884H3396.39V69.3275H3388.69V100.209ZM3418.92 69.3275H3411.17V89.8713C3411.12 104.352 3435.31 104.352 3435.35 89.8713V69.3275H3427.6V89.8713C3427.56 94.8437 3418.92 94.8437 3418.92 89.8713V69.3275ZM3456.02 100.209H3465.57L3457.31 89.6096C3460.98 88.432 3463.25 85.2043 3463.25 79.4904C3463.09 72.2499 3458.25 69.3275 3452 69.3275H3439.89V100.209H3447.63V90.3947H3449L3456.02 100.209ZM3447.63 83.6777V76.6116H3452.13C3456.96 76.6116 3456.96 83.6777 3452.13 83.6777H3447.63ZM3467.55 100.209H3475.22V91.1799H3479.71C3487.03 91.1799 3490.76 85.7277 3490.76 80.2319C3490.76 74.7797 3487.07 69.3275 3479.67 69.3275H3467.55V100.209ZM3475.22 84.2447V76.6116H3479.67C3484.29 76.568 3484.29 84.2883 3479.67 84.2447H3475.22ZM3494.01 100.209H3514.04V92.4884H3501.71V69.3275H3494.01V100.209ZM3524.83 76.6553H3538.18V69.3275H3517.08V100.209H3538.18V92.8373H3524.83V88.2139H3537.11V81.4532H3524.83V76.6553Z" fill="white"/>
<path d="M1953.37 941.821C1942.09 979.625 1939.08 1028.79 1939.08 1028.79L1948.6 1030.07C1950.25 994.44 1957.45 944.33 1957.45 944.33L1953.37 941.821Z" fill="#824B6F"/>
<path d="M1947.98 949.724L1935.25 970.691C1927.92 958.639 1930.81 948.689 1943.09 943.969C1937.2 942.847 1918.29 936.34 1918.29 936.34C1925.47 931.784 1935.56 930.987 1947.9 937.999C1950.56 931.526 1957.88 923.033 1974 926.256L1958.41 939.061C1973.48 937.631 1979.16 944.67 1987.5 952.09L1961.3 949.663L1966.02 977.472C1966.02 977.472 1948.44 960.873 1947.98 949.724V949.724Z" fill="#58A67E"/>
</g>
<defs>
<linearGradient id="paint0_linear_403_2" x1="1800" y1="946" x2="1800" y2="1765" gradientUnits="userSpaceOnUse">
<stop stop-color="#85C28D"/>
<stop offset="1" stop-color="#2FB67E"/>
</linearGradient>
<clipPath id="clip0_403_2">
<rect width="3600" height="1200" fill="white"/>
</clipPath>
</defs>
</svg>
